<svg width="577" height="223" viewBox="0 0 577 223" fill="none" xmlns="http://www.w3.org/2000/svg">
<rect width="577" height="223" fill="white"/>
<path d="M15.9716 27.2727V36H14.9148V28.3807H14.8636L12.733 29.7955V28.7216L14.9148 27.2727H15.9716ZM21.3793 36.1193C21.0213 36.1136 20.6634 36.0455 20.3054 35.9148C19.9474 35.7841 19.6207 35.5639 19.3253 35.2543C19.0298 34.9418 18.7926 34.5199 18.6136 33.9886C18.4347 33.4545 18.3452 32.7841 18.3452 31.9773C18.3452 31.2045 18.4176 30.5199 18.5625 29.9233C18.7074 29.3239 18.9176 28.8196 19.1932 28.4105C19.4688 27.9986 19.8011 27.6861 20.1903 27.473C20.5824 27.2599 21.0241 27.1534 21.5156 27.1534C22.0043 27.1534 22.4389 27.2514 22.8196 27.4474C23.2031 27.6406 23.5156 27.9105 23.7571 28.2571C23.9986 28.6037 24.1548 29.0028 24.2259 29.4545H23.1861C23.0895 29.0625 22.902 28.7372 22.6236 28.4787C22.3452 28.2202 21.9759 28.0909 21.5156 28.0909C20.8395 28.0909 20.3068 28.3849 19.9176 28.973C19.5313 29.5611 19.3366 30.3864 19.3338 31.4489H19.402C19.5611 31.2074 19.75 31.0014 19.9688 30.831C20.1903 30.6577 20.4347 30.5241 20.7017 30.4304C20.9688 30.3366 21.2514 30.2898 21.5497 30.2898C22.0497 30.2898 22.5071 30.4148 22.9219 30.6648C23.3366 30.9119 23.669 31.2543 23.919 31.6918C24.169 32.1264 24.294 32.625 24.294 33.1875C24.294 33.7273 24.1733 34.2216 23.9318 34.6705C23.6903 35.1165 23.3509 35.4716 22.9134 35.7358C22.4787 35.9972 21.9673 36.125 21.3793 36.1193ZM21.3793 35.1818C21.7372 35.1818 22.0582 35.0923 22.3423 34.9134C22.6293 34.7344 22.8551 34.4943 23.0199 34.1932C23.1875 33.892 23.2713 33.5568 23.2713 33.1875C23.2713 32.8267 23.1903 32.4986 23.0284 32.2031C22.8693 31.9048 22.6491 31.6676 22.3679 31.4915C22.0895 31.3153 21.7713 31.2273 21.4134 31.2273C21.1435 31.2273 20.892 31.2812 20.6591 31.3892C20.4261 31.4943 20.2216 31.6392 20.0455 31.8239C19.8722 32.0085 19.7358 32.2202 19.6364 32.4588C19.5369 32.6946 19.4872 32.9432 19.4872 33.2045C19.4872 33.5511 19.5682 33.875 19.7301 34.1761C19.8949 34.4773 20.1193 34.7202 20.4034 34.9048C20.6903 35.0895 21.0156 35.1818 21.3793 35.1818ZM28.8164 36.1193C28.1744 36.1193 27.6275 35.9446 27.1758 35.5952C26.7241 35.2429 26.3789 34.733 26.1403 34.0653C25.9016 33.3949 25.7823 32.5852 25.7823 31.6364C25.7823 30.6932 25.9016 29.8878 26.1403 29.2202C26.3817 28.5497 26.7283 28.0384 27.18 27.6861C27.6346 27.331 28.18 27.1534 28.8164 27.1534C29.4528 27.1534 29.9968 27.331 30.4485 27.6861C30.9031 28.0384 31.2496 28.5497 31.4883 29.2202C31.7298 29.8878 31.8505 30.6932 31.8505 31.6364C31.8505 32.5852 31.7312 33.3949 31.4925 34.0653C31.2539 34.733 30.9087 35.2429 30.457 35.5952C30.0053 35.9446 29.4585 36.1193 28.8164 36.1193ZM28.8164 35.1818C29.4528 35.1818 29.9471 34.875 30.2994 34.2614C30.6516 33.6477 30.8278 32.7727 30.8278 31.6364C30.8278 30.8807 30.7468 30.2372 30.5849 29.706C30.4258 29.1747 30.1957 28.7699 29.8945 28.4915C29.5962 28.2131 29.2369 28.0739 28.8164 28.0739C28.1857 28.0739 27.6928 28.3849 27.3377 29.0071C26.9826 29.6264 26.805 30.5028 26.805 31.6364C26.805 32.392 26.8846 33.0341 27.0437 33.5625C27.2028 34.0909 27.4315 34.4929 27.7298 34.7685C28.0309 35.044 28.3931 35.1818 28.8164 35.1818ZM36.3164 36.1193C35.6744 36.1193 35.1275 35.9446 34.6758 35.5952C34.2241 35.2429 33.8789 34.733 33.6403 34.0653C33.4016 33.3949 33.2823 32.5852 33.2823 31.6364C33.2823 30.6932 33.4016 29.8878 33.6403 29.2202C33.8817 28.5497 34.2283 28.0384 34.68 27.6861C35.1346 27.331 35.68 27.1534 36.3164 27.1534C36.9528 27.1534 37.4968 27.331 37.9485 27.6861C38.4031 28.0384 38.7496 28.5497 38.9883 29.2202C39.2298 29.8878 39.3505 30.6932 39.3505 31.6364C39.3505 32.5852 39.2312 33.3949 38.9925 34.0653C38.7539 34.733 38.4087 35.2429 37.957 35.5952C37.5053 35.9446 36.9585 36.1193 36.3164 36.1193ZM36.3164 35.1818C36.9528 35.1818 37.4471 34.875 37.7994 34.2614C38.1516 33.6477 38.3278 32.7727 38.3278 31.6364C38.3278 30.8807 38.2468 30.2372 38.0849 29.706C37.9258 29.1747 37.6957 28.7699 37.3945 28.4915C37.0962 28.2131 36.7369 28.0739 36.3164 28.0739C35.6857 28.0739 35.1928 28.3849 34.8377 29.0071C34.4826 29.6264 34.305 30.5028 34.305 31.6364C34.305 32.392 34.3846 33.0341 34.5437 33.5625C34.7028 34.0909 34.9315 34.4929 35.2298 34.7685C35.5309 35.044 35.8931 35.1818 36.3164 35.1818Z" fill="black" fill-opacity="0.7"/>
<path d="M16.9716 60.0227V68.75H15.9148V61.1307H15.8636L13.733 62.5455V61.4716L15.9148 60.0227H16.9716ZM19.4815 68.75V67.983L22.3622 64.8295C22.7003 64.4602 22.9787 64.1392 23.1974 63.8665C23.4162 63.5909 23.5781 63.3324 23.6832 63.0909C23.7912 62.8466 23.8452 62.5909 23.8452 62.3239C23.8452 62.017 23.7713 61.7514 23.6236 61.527C23.4787 61.3026 23.2798 61.1293 23.027 61.0071C22.7741 60.8849 22.4901 60.8239 22.1747 60.8239C21.8395 60.8239 21.5469 60.8935 21.2969 61.0327C21.0497 61.169 20.858 61.3608 20.7216 61.608C20.5881 61.8551 20.5213 62.1449 20.5213 62.4773H19.5156C19.5156 61.9659 19.6335 61.517 19.8693 61.1307C20.1051 60.7443 20.4261 60.4432 20.8324 60.2273C21.2415 60.0114 21.7003 59.9034 22.2088 59.9034C22.7202 59.9034 23.1733 60.0114 23.5682 60.2273C23.9631 60.4432 24.2727 60.7344 24.4972 61.1009C24.7216 61.4673 24.8338 61.875 24.8338 62.3239C24.8338 62.6449 24.7756 62.9588 24.6591 63.2656C24.5455 63.5696 24.3466 63.9091 24.0625 64.2841C23.7812 64.6562 23.3906 65.1108 22.8906 65.6477L20.9304 67.7443V67.8125H24.9872V68.75H19.4815ZM29.5938 68.8693C28.9517 68.8693 28.4048 68.6946 27.9531 68.3452C27.5014 67.9929 27.1563 67.483 26.9176 66.8153C26.679 66.1449 26.5597 65.3352 26.5597 64.3864C26.5597 63.4432 26.679 62.6378 26.9176 61.9702C27.1591 61.2997 27.5057 60.7884 27.9574 60.4361C28.4119 60.081 28.9574 59.9034 29.5938 59.9034C30.2301 59.9034 30.7741 60.081 31.2259 60.4361C31.6804 60.7884 32.027 61.2997 32.2656 61.9702C32.5071 62.6378 32.6278 63.4432 32.6278 64.3864C32.6278 65.3352 32.5085 66.1449 32.2699 66.8153C32.0312 67.483 31.6861 67.9929 31.2344 68.3452C30.7827 68.6946 30.2358 68.8693 29.5938 68.8693ZM29.5938 67.9318C30.2301 67.9318 30.7244 67.625 31.0767 67.0114C31.429 66.3977 31.6051 65.5227 31.6051 64.3864C31.6051 63.6307 31.5241 62.9872 31.3622 62.456C31.2031 61.9247 30.973 61.5199 30.6719 61.2415C30.3736 60.9631 30.0142 60.8239 29.5938 60.8239C28.9631 60.8239 28.4702 61.1349 28.1151 61.7571C27.7599 62.3764 27.5824 63.2528 27.5824 64.3864C27.5824 65.142 27.6619 65.7841 27.821 66.3125C27.9801 66.8409 28.2088 67.2429 28.5071 67.5185C28.8082 67.794 29.1705 67.9318 29.5938 67.9318ZM37.0938 68.8693C36.4517 68.8693 35.9048 68.6946 35.4531 68.3452C35.0014 67.9929 34.6563 67.483 34.4176 66.8153C34.179 66.1449 34.0597 65.3352 34.0597 64.3864C34.0597 63.4432 34.179 62.6378 34.4176 61.9702C34.6591 61.2997 35.0057 60.7884 35.4574 60.4361C35.9119 60.081 36.4574 59.9034 37.0938 59.9034C37.7301 59.9034 38.2741 60.081 38.7259 60.4361C39.1804 60.7884 39.527 61.2997 39.7656 61.9702C40.0071 62.6378 40.1278 63.4432 40.1278 64.3864C40.1278 65.3352 40.0085 66.1449 39.7699 66.8153C39.5312 67.483 39.1861 67.9929 38.7344 68.3452C38.2827 68.6946 37.7358 68.8693 37.0938 68.8693ZM37.0938 67.9318C37.7301 67.9318 38.2244 67.625 38.5767 67.0114C38.929 66.3977 39.1051 65.5227 39.1051 64.3864C39.1051 63.6307 39.0241 62.9872 38.8622 62.456C38.7031 61.9247 38.473 61.5199 38.1719 61.2415C37.8736 60.9631 37.5142 60.8239 37.0938 60.8239C36.4631 60.8239 35.9702 61.1349 35.6151 61.7571C35.2599 62.3764 35.0824 63.2528 35.0824 64.3864C35.0824 65.142 35.1619 65.7841 35.321 66.3125C35.4801 66.8409 35.7088 67.2429 36.0071 67.5185C36.3082 67.794 36.6705 67.9318 37.0938 67.9318Z" fill="black" fill-opacity="0.7"/>
<path d="M21.6989 101.619C21.1136 101.619 20.5966 101.516 20.1477 101.308C19.7017 101.098 19.3537 100.81 19.1037 100.443C18.8537 100.074 18.7301 99.6534 18.733 99.1818C18.7301 98.8125 18.8026 98.4716 18.9503 98.1591C19.098 97.8437 19.2997 97.581 19.5554 97.3707C19.8139 97.1577 20.1023 97.0227 20.4205 96.9659V96.9148C20.0028 96.8068 19.6705 96.5724 19.4233 96.2116C19.1761 95.848 19.054 95.4347 19.0568 94.9716C19.054 94.5284 19.1662 94.1321 19.3935 93.7827C19.6207 93.4332 19.9332 93.1577 20.331 92.956C20.7315 92.7543 21.1875 92.6534 21.6989 92.6534C22.2045 92.6534 22.6563 92.7543 23.054 92.956C23.4517 93.1577 23.7642 93.4332 23.9915 93.7827C24.2216 94.1321 24.3381 94.5284 24.3409 94.9716C24.3381 95.4347 24.2116 95.848 23.9616 96.2116C23.7145 96.5724 23.3864 96.8068 22.9773 96.9148V96.9659C23.2926 97.0227 23.5767 97.1577 23.8295 97.3707C24.0824 97.581 24.2841 97.8437 24.4347 98.1591C24.5852 98.4716 24.6619 98.8125 24.6648 99.1818C24.6619 99.6534 24.5341 100.074 24.2812 100.443C24.0312 100.81 23.6832 101.098 23.2372 101.308C22.794 101.516 22.2813 101.619 21.6989 101.619ZM21.6989 100.682C22.0938 100.682 22.4347 100.618 22.7216 100.49C23.0085 100.362 23.2301 100.182 23.3864 99.9489C23.5426 99.7159 23.6222 99.4432 23.625 99.1307C23.6222 98.8011 23.5369 98.5099 23.3693 98.2571C23.2017 98.0043 22.973 97.8054 22.6832 97.6605C22.3963 97.5156 22.0682 97.4432 21.6989 97.4432C21.3267 97.4432 20.9943 97.5156 20.7017 97.6605C20.4119 97.8054 20.1832 98.0043 20.0156 98.2571C19.8509 98.5099 19.7699 98.8011 19.7727 99.1307C19.7699 99.4432 19.8452 99.7159 19.9986 99.9489C20.1548 100.182 20.3778 100.362 20.6676 100.49C20.9574 100.618 21.3011 100.682 21.6989 100.682ZM21.6989 96.5398C22.0114 96.5398 22.2884 96.4773 22.5298 96.3523C22.7741 96.2273 22.9659 96.0526 23.1051 95.8281C23.2443 95.6037 23.3153 95.3409 23.3182 95.0398C23.3153 94.7443 23.2457 94.4872 23.1094 94.2685C22.973 94.0469 22.7841 93.8764 22.5426 93.7571C22.3011 93.6349 22.0199 93.5739 21.6989 93.5739C21.3722 93.5739 21.0866 93.6349 20.8423 93.7571C20.598 93.8764 20.4091 94.0469 20.2756 94.2685C20.142 94.4872 20.0767 94.7443 20.0795 95.0398C20.0767 95.3409 20.1435 95.6037 20.2798 95.8281C20.419 96.0526 20.6108 96.2273 20.8551 96.3523C21.0994 96.4773 21.3807 96.5398 21.6989 96.5398ZM29.1445 101.619C28.5025 101.619 27.9556 101.445 27.5039 101.095C27.0522 100.743 26.707 100.233 26.4684 99.5653C26.2298 98.8949 26.1104 98.0852 26.1104 97.1364C26.1104 96.1932 26.2298 95.3878 26.4684 94.7202C26.7099 94.0497 27.0565 93.5384 27.5082 93.1861C27.9627 92.831 28.5082 92.6534 29.1445 92.6534C29.7809 92.6534 30.3249 92.831 30.7766 93.1861C31.2312 93.5384 31.5778 94.0497 31.8164 94.7202C32.0579 95.3878 32.1786 96.1932 32.1786 97.1364C32.1786 98.0852 32.0593 98.8949 31.8207 99.5653C31.582 100.233 31.2369 100.743 30.7852 101.095C30.3335 101.445 29.7866 101.619 29.1445 101.619ZM29.1445 100.682C29.7809 100.682 30.2752 100.375 30.6275 99.7614C30.9798 99.1477 31.1559 98.2727 31.1559 97.1364C31.1559 96.3807 31.0749 95.7372 30.913 95.206C30.7539 94.6747 30.5238 94.2699 30.2227 93.9915C29.9244 93.7131 29.565 93.5739 29.1445 93.5739C28.5138 93.5739 28.021 93.8849 27.6658 94.5071C27.3107 95.1264 27.1332 96.0028 27.1332 97.1364C27.1332 97.892 27.2127 98.5341 27.3718 99.0625C27.5309 99.5909 27.7596 99.9929 28.0579 100.268C28.359 100.544 28.7212 100.682 29.1445 100.682ZM36.6445 101.619C36.0025 101.619 35.4556 101.445 35.0039 101.095C34.5522 100.743 34.207 100.233 33.9684 99.5653C33.7298 98.8949 33.6104 98.0852 33.6104 97.1364C33.6104 96.1932 33.7298 95.3878 33.9684 94.7202C34.2099 94.0497 34.5565 93.5384 35.0082 93.1861C35.4627 92.831 36.0082 92.6534 36.6445 92.6534C37.2809 92.6534 37.8249 92.831 38.2766 93.1861C38.7312 93.5384 39.0778 94.0497 39.3164 94.7202C39.5579 95.3878 39.6786 96.1932 39.6786 97.1364C39.6786 98.0852 39.5593 98.8949 39.3207 99.5653C39.082 100.233 38.7369 100.743 38.2852 101.095C37.8335 101.445 37.2866 101.619 36.6445 101.619ZM36.6445 100.682C37.2809 100.682 37.7752 100.375 38.1275 99.7614C38.4798 99.1477 38.6559 98.2727 38.6559 97.1364C38.6559 96.3807 38.5749 95.7372 38.413 95.206C38.2539 94.6747 38.0238 94.2699 37.7227 93.9915C37.4244 93.7131 37.065 93.5739 36.6445 93.5739C36.0138 93.5739 35.521 93.8849 35.1658 94.5071C34.8107 95.1264 34.6332 96.0028 34.6332 97.1364C34.6332 97.892 34.7127 98.5341 34.8718 99.0625C35.0309 99.5909 35.2596 99.9929 35.5579 100.268C35.859 100.544 36.2212 100.682 36.6445 100.682Z" fill="black" fill-opacity="0.7"/>
<path d="M18.6989 132.46V131.591L22.5341 125.523H23.1648V126.869H22.7386L19.8409 131.455V131.523H25.0057V132.46H18.6989ZM22.8068 134.25V132.196V131.791V125.523H23.8125V134.25H22.8068ZM29.4492 134.369C28.8072 134.369 28.2603 134.195 27.8086 133.845C27.3569 133.493 27.0117 132.983 26.7731 132.315C26.5344 131.645 26.4151 130.835 26.4151 129.886C26.4151 128.943 26.5344 128.138 26.7731 127.47C27.0146 126.8 27.3612 126.288 27.8129 125.936C28.2674 125.581 28.8129 125.403 29.4492 125.403C30.0856 125.403 30.6296 125.581 31.0813 125.936C31.5359 126.288 31.8825 126.8 32.1211 127.47C32.3626 128.138 32.4833 128.943 32.4833 129.886C32.4833 130.835 32.364 131.645 32.1254 132.315C31.8867 132.983 31.5415 133.493 31.0898 133.845C30.6381 134.195 30.0913 134.369 29.4492 134.369ZM29.4492 133.432C30.0856 133.432 30.5799 133.125 30.9322 132.511C31.2844 131.898 31.4606 131.023 31.4606 129.886C31.4606 129.131 31.3796 128.487 31.2177 127.956C31.0586 127.425 30.8285 127.02 30.5273 126.741C30.229 126.463 29.8697 126.324 29.4492 126.324C28.8185 126.324 28.3256 126.635 27.9705 127.257C27.6154 127.876 27.4379 128.753 27.4379 129.886C27.4379 130.642 27.5174 131.284 27.6765 131.812C27.8356 132.341 28.0643 132.743 28.3626 133.018C28.6637 133.294 29.0259 133.432 29.4492 133.432ZM36.9492 134.369C36.3072 134.369 35.7603 134.195 35.3086 133.845C34.8569 133.493 34.5117 132.983 34.2731 132.315C34.0344 131.645 33.9151 130.835 33.9151 129.886C33.9151 128.943 34.0344 128.138 34.2731 127.47C34.5146 126.8 34.8612 126.288 35.3129 125.936C35.7674 125.581 36.3129 125.403 36.9492 125.403C37.5856 125.403 38.1296 125.581 38.5813 125.936C39.0359 126.288 39.3825 126.8 39.6211 127.47C39.8626 128.138 39.9833 128.943 39.9833 129.886C39.9833 130.835 39.864 131.645 39.6254 132.315C39.3867 132.983 39.0415 133.493 38.5898 133.845C38.1381 134.195 37.5913 134.369 36.9492 134.369ZM36.9492 133.432C37.5856 133.432 38.0799 133.125 38.4322 132.511C38.7844 131.898 38.9606 131.023 38.9606 129.886C38.9606 129.131 38.8796 128.487 38.7177 127.956C38.5586 127.425 38.3285 127.02 38.0273 126.741C37.729 126.463 37.3697 126.324 36.9492 126.324C36.3185 126.324 35.8256 126.635 35.4705 127.257C35.1154 127.876 34.9379 128.753 34.9379 129.886C34.9379 130.642 35.0174 131.284 35.1765 131.812C35.3356 132.341 35.5643 132.743 35.8626 133.018C36.1637 133.294 36.5259 133.432 36.9492 133.432Z" fill="black" fill-opacity="0.7"/>
<path d="M36.75 167.119C36.108 167.119 35.5611 166.945 35.1094 166.595C34.6577 166.243 34.3125 165.733 34.0739 165.065C33.8352 164.395 33.7159 163.585 33.7159 162.636C33.7159 161.693 33.8352 160.888 34.0739 160.22C34.3153 159.55 34.6619 159.038 35.1136 158.686C35.5682 158.331 36.1136 158.153 36.75 158.153C37.3864 158.153 37.9304 158.331 38.3821 158.686C38.8366 159.038 39.1832 159.55 39.4219 160.22C39.6634 160.888 39.7841 161.693 39.7841 162.636C39.7841 163.585 39.6648 164.395 39.4261 165.065C39.1875 165.733 38.8423 166.243 38.3906 166.595C37.9389 166.945 37.392 167.119 36.75 167.119ZM36.75 166.182C37.3864 166.182 37.8807 165.875 38.233 165.261C38.5852 164.648 38.7614 163.773 38.7614 162.636C38.7614 161.881 38.6804 161.237 38.5185 160.706C38.3594 160.175 38.1293 159.77 37.8281 159.491C37.5298 159.213 37.1705 159.074 36.75 159.074C36.1193 159.074 35.6264 159.385 35.2713 160.007C34.9162 160.626 34.7386 161.503 34.7386 162.636C34.7386 163.392 34.8182 164.034 34.9773 164.562C35.1364 165.091 35.3651 165.493 35.6634 165.768C35.9645 166.044 36.3267 166.182 36.75 166.182Z" fill="black" fill-opacity="0.7"/>
<line x1="46" y1="29.5" x2="568" y2="29.5" stroke="#00001A" stroke-opacity="0.15" stroke-dasharray="2"/>
<line x1="46" y1="63" x2="568" y2="63" stroke="#00001A" stroke-opacity="0.15" stroke-dasharray="2"/>
<line x1="46" y1="96.5" x2="568" y2="96.5" stroke="#00001A" stroke-opacity="0.15" stroke-dasharray="2"/>
<line x1="46" y1="130" x2="568" y2="130" stroke="#00001A" stroke-opacity="0.15" stroke-dasharray="2"/>
<line x1="46" y1="163.5" x2="568" y2="163.5" stroke="#00001A" stroke-opacity="0.3"/>
<line x1="45.5" y1="164" x2="45.5" y2="30" stroke="#00001A" stroke-opacity="0.15" stroke-dasharray="2"/>
<line x1="97.7" y1="164" x2="97.7" y2="30" stroke="#00001A" stroke-opacity="0.15" stroke-dasharray="2"/>
<line x1="149.9" y1="164" x2="149.9" y2="30" stroke="#00001A" stroke-opacity="0.15" stroke-dasharray="2"/>
<line x1="202.1" y1="164" x2="202.1" y2="30" stroke="#00001A" stroke-opacity="0.15" stroke-dasharray="2"/>
<line x1="254.3" y1="164" x2="254.3" y2="30" stroke="#00001A" stroke-opacity="0.15" stroke-dasharray="2"/>
<line x1="306.5" y1="164" x2="306.5" y2="30" stroke="#00001A" stroke-opacity="0.15" stroke-dasharray="2"/>
<line x1="358.7" y1="164" x2="358.7" y2="30" stroke="#00001A" stroke-opacity="0.15" stroke-dasharray="2"/>
<line x1="410.9" y1="164" x2="410.9" y2="30" stroke="#00001A" stroke-opacity="0.15" stroke-dasharray="2"/>
<line x1="463.1" y1="164" x2="463.1" y2="30" stroke="#00001A" stroke-opacity="0.15" stroke-dasharray="2"/>
<line x1="515.3" y1="164" x2="515.3" y2="30" stroke="#00001A" stroke-opacity="0.15" stroke-dasharray="2"/>
<line x1="567.5" y1="164" x2="567.5" y2="30" stroke="#00001A" stroke-opacity="0.15" stroke-dasharray="2"/>
<path d="M123.6 52.0375L71.2 64V163H490.4L438 88.75L385.6 125.875L333.2 97L280.8 39.25L228.4 92.875L176 80.5L123.6 52.0375Z" fill="url(#paint0_linear_161_1617)"/>
<path d="M71.2 64L123.6 52.0375L176 80.5L228.4 92.875L280.8 39.25L333.2 97L385.6 125.875L438 88.75L490.4 163H542.8M542.8 163V163Z" stroke="#03346E"/>
<circle cx="71.2" cy="64" r="3.5" fill="white" stroke="#03346E"/>
<circle cx="123.6" cy="52.0376" r="3.5" fill="white" stroke="#03346E"/>
<circle cx="176" cy="80.5" r="3.5" fill="white" stroke="#03346E"/>
<circle cx="228.4" cy="92.875" r="3.5" fill="white" stroke="#03346E"/>
<circle cx="280.8" cy="39.25" r="3.5" fill="white" stroke="#03346E"/>
<circle cx="333.2" cy="97" r="3.5" fill="white" stroke="#03346E"/>
<circle cx="385.6" cy="125.875" r="3.5" fill="white" stroke="#03346E"/>
<circle cx="438" cy="88.75" r="3.5" fill="white" stroke="#03346E"/>
<circle cx="490.4" cy="163" r="3.5" fill="white" stroke="#03346E"/>
<circle cx="542.8" cy="163" r="3.5" fill="white" stroke="#03346E"/>
<path d="M68.4109 180.119C67.7689 180.119 67.222 179.945 66.7703 179.595C66.3186 179.243 65.9734 178.733 65.7348 178.065C65.4962 177.395 65.3768 176.585 65.3768 175.636C65.3768 174.693 65.4962 173.888 65.7348 173.22C65.9763 172.55 66.3229 172.038 66.7746 171.686C67.2291 171.331 67.7746 171.153 68.4109 171.153C69.0473 171.153 69.5913 171.331 70.043 171.686C70.4976 172.038 70.8442 172.55 71.0828 173.22C71.3243 173.888 71.445 174.693 71.445 175.636C71.445 176.585 71.3257 177.395 71.0871 178.065C70.8484 178.733 70.5033 179.243 70.0516 179.595C69.5999 179.945 69.053 180.119 68.4109 180.119ZM68.4109 179.182C69.0473 179.182 69.5416 178.875 69.8939 178.261C70.2462 177.648 70.4223 176.773 70.4223 175.636C70.4223 174.881 70.3413 174.237 70.1794 173.706C70.0203 173.175 69.7902 172.77 69.4891 172.491C69.1908 172.213 68.8314 172.074 68.4109 172.074C67.7803 172.074 67.2874 172.385 66.9322 173.007C66.5771 173.626 66.3996 174.503 66.3996 175.636C66.3996 176.392 66.4791 177.034 66.6382 177.562C66.7973 178.091 67.026 178.493 67.3243 178.768C67.6254 179.044 67.9876 179.182 68.4109 179.182ZM76.1325 171.273V180H75.0757V172.381H75.0246L72.8939 173.795V172.722L75.0757 171.273H76.1325Z" fill="black" fill-opacity="0.7"/>
<path d="M119.967 180.119C119.325 180.119 118.778 179.945 118.327 179.595C117.875 179.243 117.53 178.733 117.291 178.065C117.052 177.395 116.933 176.585 116.933 175.636C116.933 174.693 117.052 173.888 117.291 173.22C117.533 172.55 117.879 172.038 118.331 171.686C118.785 171.331 119.331 171.153 119.967 171.153C120.604 171.153 121.148 171.331 121.599 171.686C122.054 172.038 122.4 172.55 122.639 173.22C122.881 173.888 123.001 174.693 123.001 175.636C123.001 176.585 122.882 177.395 122.643 178.065C122.405 178.733 122.06 179.243 121.608 179.595C121.156 179.945 120.609 180.119 119.967 180.119ZM119.967 179.182C120.604 179.182 121.098 178.875 121.45 178.261C121.802 177.648 121.979 176.773 121.979 175.636C121.979 174.881 121.898 174.237 121.736 173.706C121.577 173.175 121.346 172.77 121.045 172.491C120.747 172.213 120.388 172.074 119.967 172.074C119.337 172.074 118.844 172.385 118.488 173.007C118.133 173.626 117.956 174.503 117.956 175.636C117.956 176.392 118.035 177.034 118.194 177.562C118.354 178.091 118.582 178.493 118.881 178.768C119.182 179.044 119.544 179.182 119.967 179.182ZM124.621 180V179.233L127.501 176.08C127.839 175.71 128.118 175.389 128.337 175.116C128.555 174.841 128.717 174.582 128.822 174.341C128.93 174.097 128.984 173.841 128.984 173.574C128.984 173.267 128.91 173.001 128.763 172.777C128.618 172.553 128.419 172.379 128.166 172.257C127.913 172.135 127.629 172.074 127.314 172.074C126.979 172.074 126.686 172.143 126.436 172.283C126.189 172.419 125.997 172.611 125.861 172.858C125.727 173.105 125.66 173.395 125.66 173.727H124.655C124.655 173.216 124.773 172.767 125.008 172.381C125.244 171.994 125.565 171.693 125.971 171.477C126.381 171.261 126.839 171.153 127.348 171.153C127.859 171.153 128.312 171.261 128.707 171.477C129.102 171.693 129.412 171.984 129.636 172.351C129.861 172.717 129.973 173.125 129.973 173.574C129.973 173.895 129.915 174.209 129.798 174.516C129.685 174.82 129.486 175.159 129.202 175.534C128.92 175.906 128.53 176.361 128.03 176.898L126.069 178.994V179.062H130.126V180H124.621Z" fill="black" fill-opacity="0.7"/>
<path d="M172.18 180.119C171.538 180.119 170.991 179.945 170.539 179.595C170.087 179.243 169.742 178.733 169.504 178.065C169.265 177.395 169.146 176.585 169.146 175.636C169.146 174.693 169.265 173.888 169.504 173.22C169.745 172.55 170.092 172.038 170.543 171.686C170.998 171.331 171.543 171.153 172.18 171.153C172.816 171.153 173.36 171.331 173.812 171.686C174.266 172.038 174.613 172.55 174.852 173.22C175.093 173.888 175.214 174.693 175.214 175.636C175.214 176.585 175.094 177.395 174.856 178.065C174.617 178.733 174.272 179.243 173.82 179.595C173.369 179.945 172.822 180.119 172.18 180.119ZM172.18 179.182C172.816 179.182 173.31 178.875 173.663 178.261C174.015 177.648 174.191 176.773 174.191 175.636C174.191 174.881 174.11 174.237 173.948 173.706C173.789 173.175 173.559 172.77 173.258 172.491C172.96 172.213 172.6 172.074 172.18 172.074C171.549 172.074 171.056 172.385 170.701 173.007C170.346 173.626 170.168 174.503 170.168 175.636C170.168 176.392 170.248 177.034 170.407 177.562C170.566 178.091 170.795 178.493 171.093 178.768C171.394 179.044 171.756 179.182 172.18 179.182ZM179.782 180.119C179.219 180.119 178.718 180.023 178.278 179.83C177.84 179.636 177.492 179.368 177.234 179.024C176.978 178.678 176.839 178.276 176.816 177.818H177.89C177.913 178.099 178.009 178.342 178.18 178.547C178.35 178.749 178.573 178.905 178.849 179.016C179.124 179.126 179.43 179.182 179.765 179.182C180.14 179.182 180.472 179.116 180.762 178.986C181.052 178.855 181.279 178.673 181.444 178.44C181.609 178.207 181.691 177.938 181.691 177.631C181.691 177.31 181.611 177.027 181.452 176.783C181.293 176.536 181.06 176.342 180.754 176.203C180.447 176.064 180.072 175.994 179.629 175.994H178.93V175.057H179.629C179.975 175.057 180.279 174.994 180.54 174.869C180.805 174.744 181.011 174.568 181.158 174.341C181.309 174.114 181.384 173.847 181.384 173.54C181.384 173.244 181.319 172.987 181.188 172.768C181.058 172.55 180.873 172.379 180.634 172.257C180.398 172.135 180.12 172.074 179.799 172.074C179.498 172.074 179.214 172.129 178.947 172.24C178.683 172.348 178.467 172.506 178.299 172.713C178.131 172.918 178.04 173.165 178.026 173.455H177.004C177.021 172.997 177.158 172.597 177.417 172.253C177.675 171.906 178.013 171.636 178.431 171.443C178.852 171.25 179.313 171.153 179.816 171.153C180.356 171.153 180.819 171.263 181.205 171.482C181.592 171.697 181.888 171.983 182.096 172.338C182.303 172.693 182.407 173.077 182.407 173.489C182.407 173.98 182.278 174.399 182.019 174.746C181.763 175.092 181.415 175.332 180.975 175.466V175.534C181.526 175.625 181.957 175.859 182.266 176.237C182.576 176.612 182.731 177.077 182.731 177.631C182.731 178.105 182.602 178.531 182.343 178.909C182.087 179.284 181.738 179.58 181.295 179.795C180.852 180.011 180.347 180.119 179.782 180.119Z" fill="black" fill-opacity="0.7"/>
<path d="M224.55 180.119C223.908 180.119 223.361 179.945 222.91 179.595C222.458 179.243 222.113 178.733 221.874 178.065C221.636 177.395 221.516 176.585 221.516 175.636C221.516 174.693 221.636 173.888 221.874 173.22C222.116 172.55 222.462 172.038 222.914 171.686C223.369 171.331 223.914 171.153 224.55 171.153C225.187 171.153 225.731 171.331 226.183 171.686C226.637 172.038 226.984 172.55 227.222 173.22C227.464 173.888 227.584 174.693 227.584 175.636C227.584 176.585 227.465 177.395 227.227 178.065C226.988 178.733 226.643 179.243 226.191 179.595C225.739 179.945 225.192 180.119 224.55 180.119ZM224.55 179.182C225.187 179.182 225.681 178.875 226.033 178.261C226.386 177.648 226.562 176.773 226.562 175.636C226.562 174.881 226.481 174.237 226.319 173.706C226.16 173.175 225.93 172.77 225.629 172.491C225.33 172.213 224.971 172.074 224.55 172.074C223.92 172.074 223.427 172.385 223.072 173.007C222.717 173.626 222.539 174.503 222.539 175.636C222.539 176.392 222.619 177.034 222.778 177.562C222.937 178.091 223.165 178.493 223.464 178.768C223.765 179.044 224.127 179.182 224.55 179.182ZM228.999 178.21V177.341L232.834 171.273H233.465V172.619H233.039L230.141 177.205V177.273H235.306V178.21H228.999ZM233.107 180V177.946V177.541V171.273H234.113V180H233.107Z" fill="black" fill-opacity="0.7"/>
<path d="M277.15 180.119C276.508 180.119 275.961 179.945 275.509 179.595C275.057 179.243 274.712 178.733 274.473 178.065C274.235 177.395 274.116 176.585 274.116 175.636C274.116 174.693 274.235 173.888 274.473 173.22C274.715 172.55 275.062 172.038 275.513 171.686C275.968 171.331 276.513 171.153 277.15 171.153C277.786 171.153 278.33 171.331 278.782 171.686C279.236 172.038 279.583 172.55 279.821 173.22C280.063 173.888 280.184 174.693 280.184 175.636C280.184 176.585 280.064 177.395 279.826 178.065C279.587 178.733 279.242 179.243 278.79 179.595C278.339 179.945 277.792 180.119 277.15 180.119ZM277.15 179.182C277.786 179.182 278.28 178.875 278.633 178.261C278.985 177.648 279.161 176.773 279.161 175.636C279.161 174.881 279.08 174.237 278.918 173.706C278.759 173.175 278.529 172.77 278.228 172.491C277.929 172.213 277.57 172.074 277.15 172.074C276.519 172.074 276.026 172.385 275.671 173.007C275.316 173.626 275.138 174.503 275.138 175.636C275.138 176.392 275.218 177.034 275.377 177.562C275.536 178.091 275.765 178.493 276.063 178.768C276.364 179.044 276.726 179.182 277.15 179.182ZM284.53 180.119C284.03 180.119 283.58 180.02 283.179 179.821C282.779 179.622 282.458 179.349 282.216 179.003C281.975 178.656 281.843 178.261 281.82 177.818H282.843C282.883 178.213 283.062 178.54 283.38 178.798C283.701 179.054 284.084 179.182 284.53 179.182C284.888 179.182 285.206 179.098 285.485 178.93C285.766 178.763 285.986 178.533 286.145 178.24C286.307 177.945 286.388 177.611 286.388 177.239C286.388 176.858 286.304 176.518 286.137 176.22C285.972 175.919 285.745 175.682 285.455 175.509C285.165 175.335 284.834 175.247 284.462 175.244C284.195 175.241 283.921 175.283 283.64 175.368C283.358 175.45 283.127 175.557 282.945 175.688L281.956 175.568L282.485 171.273H287.019V172.21H283.371L283.064 174.784H283.116C283.295 174.642 283.519 174.524 283.789 174.43C284.059 174.337 284.34 174.29 284.633 174.29C285.167 174.29 285.643 174.418 286.06 174.673C286.481 174.926 286.81 175.273 287.049 175.713C287.29 176.153 287.411 176.656 287.411 177.222C287.411 177.778 287.286 178.276 287.036 178.713C286.789 179.148 286.448 179.491 286.013 179.744C285.579 179.994 285.084 180.119 284.53 180.119Z" fill="black" fill-opacity="0.7"/>
<path d="M329.456 180.119C328.814 180.119 328.267 179.945 327.815 179.595C327.364 179.243 327.018 178.733 326.78 178.065C326.541 177.395 326.422 176.585 326.422 175.636C326.422 174.693 326.541 173.888 326.78 173.22C327.021 172.55 327.368 172.038 327.819 171.686C328.274 171.331 328.819 171.153 329.456 171.153C330.092 171.153 330.636 171.331 331.088 171.686C331.543 172.038 331.889 172.55 332.128 173.22C332.369 173.888 332.49 174.693 332.49 175.636C332.49 176.585 332.371 177.395 332.132 178.065C331.893 178.733 331.548 179.243 331.096 179.595C330.645 179.945 330.098 180.119 329.456 180.119ZM329.456 179.182C330.092 179.182 330.587 178.875 330.939 178.261C331.291 177.648 331.467 176.773 331.467 175.636C331.467 174.881 331.386 174.237 331.224 173.706C331.065 173.175 330.835 172.77 330.534 172.491C330.236 172.213 329.876 172.074 329.456 172.074C328.825 172.074 328.332 172.385 327.977 173.007C327.622 173.626 327.444 174.503 327.444 175.636C327.444 176.392 327.524 177.034 327.683 177.562C327.842 178.091 328.071 178.493 328.369 178.768C328.67 179.044 329.033 179.182 329.456 179.182ZM337.007 180.119C336.649 180.114 336.291 180.045 335.933 179.915C335.575 179.784 335.248 179.564 334.953 179.254C334.658 178.942 334.42 178.52 334.241 177.989C334.062 177.455 333.973 176.784 333.973 175.977C333.973 175.205 334.045 174.52 334.19 173.923C334.335 173.324 334.545 172.82 334.821 172.411C335.096 171.999 335.429 171.686 335.818 171.473C336.21 171.26 336.652 171.153 337.143 171.153C337.632 171.153 338.067 171.251 338.447 171.447C338.831 171.641 339.143 171.911 339.385 172.257C339.626 172.604 339.783 173.003 339.854 173.455H338.814C338.717 173.062 338.53 172.737 338.251 172.479C337.973 172.22 337.604 172.091 337.143 172.091C336.467 172.091 335.935 172.385 335.545 172.973C335.159 173.561 334.964 174.386 334.962 175.449H335.03C335.189 175.207 335.378 175.001 335.596 174.831C335.818 174.658 336.062 174.524 336.329 174.43C336.596 174.337 336.879 174.29 337.177 174.29C337.677 174.29 338.135 174.415 338.55 174.665C338.964 174.912 339.297 175.254 339.547 175.692C339.797 176.126 339.922 176.625 339.922 177.188C339.922 177.727 339.801 178.222 339.56 178.67C339.318 179.116 338.979 179.472 338.541 179.736C338.106 179.997 337.595 180.125 337.007 180.119ZM337.007 179.182C337.365 179.182 337.686 179.092 337.97 178.913C338.257 178.734 338.483 178.494 338.648 178.193C338.815 177.892 338.899 177.557 338.899 177.188C338.899 176.827 338.818 176.499 338.656 176.203C338.497 175.905 338.277 175.668 337.996 175.491C337.717 175.315 337.399 175.227 337.041 175.227C336.771 175.227 336.52 175.281 336.287 175.389C336.054 175.494 335.849 175.639 335.673 175.824C335.5 176.009 335.364 176.22 335.264 176.459C335.165 176.695 335.115 176.943 335.115 177.205C335.115 177.551 335.196 177.875 335.358 178.176C335.523 178.477 335.747 178.72 336.031 178.905C336.318 179.089 336.643 179.182 337.007 179.182Z" fill="black" fill-opacity="0.7"/>
<path d="M382.289 180.119C381.647 180.119 381.101 179.945 380.649 179.595C380.197 179.243 379.852 178.733 379.613 178.065C379.375 177.395 379.255 176.585 379.255 175.636C379.255 174.693 379.375 173.888 379.613 173.22C379.855 172.55 380.201 172.038 380.653 171.686C381.108 171.331 381.653 171.153 382.289 171.153C382.926 171.153 383.47 171.331 383.922 171.686C384.376 172.038 384.723 172.55 384.961 173.22C385.203 173.888 385.324 174.693 385.324 175.636C385.324 176.585 385.204 177.395 384.966 178.065C384.727 178.733 384.382 179.243 383.93 179.595C383.478 179.945 382.931 180.119 382.289 180.119ZM382.289 179.182C382.926 179.182 383.42 178.875 383.772 178.261C384.125 177.648 384.301 176.773 384.301 175.636C384.301 174.881 384.22 174.237 384.058 173.706C383.899 173.175 383.669 172.77 383.368 172.491C383.069 172.213 382.71 172.074 382.289 172.074C381.659 172.074 381.166 172.385 380.811 173.007C380.456 173.626 380.278 174.503 380.278 175.636C380.278 176.392 380.358 177.034 380.517 177.562C380.676 178.091 380.905 178.493 381.203 178.768C381.504 179.044 381.866 179.182 382.289 179.182ZM386.981 180L390.885 172.278V172.21H386.385V171.273H391.976V172.261L388.089 180H386.981Z" fill="black" fill-opacity="0.7"/>
<path d="M434.303 180.119C433.661 180.119 433.114 179.945 432.662 179.595C432.21 179.243 431.865 178.733 431.627 178.065C431.388 177.395 431.269 176.585 431.269 175.636C431.269 174.693 431.388 173.888 431.627 173.22C431.868 172.55 432.215 172.038 432.666 171.686C433.121 171.331 433.666 171.153 434.303 171.153C434.939 171.153 435.483 171.331 435.935 171.686C436.389 172.038 436.736 172.55 436.975 173.22C437.216 173.888 437.337 174.693 437.337 175.636C437.337 176.585 437.217 177.395 436.979 178.065C436.74 178.733 436.395 179.243 435.943 179.595C435.492 179.945 434.945 180.119 434.303 180.119ZM434.303 179.182C434.939 179.182 435.433 178.875 435.786 178.261C436.138 177.648 436.314 176.773 436.314 175.636C436.314 174.881 436.233 174.237 436.071 173.706C435.912 173.175 435.682 172.77 435.381 172.491C435.083 172.213 434.723 172.074 434.303 172.074C433.672 172.074 433.179 172.385 432.824 173.007C432.469 173.626 432.291 174.503 432.291 175.636C432.291 176.392 432.371 177.034 432.53 177.562C432.689 178.091 432.918 178.493 433.216 178.768C433.517 179.044 433.879 179.182 434.303 179.182ZM441.752 180.119C441.166 180.119 440.649 180.016 440.2 179.808C439.754 179.598 439.406 179.31 439.156 178.943C438.906 178.574 438.783 178.153 438.786 177.682C438.783 177.312 438.855 176.972 439.003 176.659C439.151 176.344 439.352 176.081 439.608 175.871C439.867 175.658 440.155 175.523 440.473 175.466V175.415C440.056 175.307 439.723 175.072 439.476 174.712C439.229 174.348 439.107 173.935 439.11 173.472C439.107 173.028 439.219 172.632 439.446 172.283C439.673 171.933 439.986 171.658 440.384 171.456C440.784 171.254 441.24 171.153 441.752 171.153C442.257 171.153 442.709 171.254 443.107 171.456C443.504 171.658 443.817 171.933 444.044 172.283C444.274 172.632 444.391 173.028 444.394 173.472C444.391 173.935 444.264 174.348 444.014 174.712C443.767 175.072 443.439 175.307 443.03 175.415V175.466C443.345 175.523 443.629 175.658 443.882 175.871C444.135 176.081 444.337 176.344 444.487 176.659C444.638 176.972 444.715 177.312 444.717 177.682C444.715 178.153 444.587 178.574 444.334 178.943C444.084 179.31 443.736 179.598 443.29 179.808C442.847 180.016 442.334 180.119 441.752 180.119ZM441.752 179.182C442.146 179.182 442.487 179.118 442.774 178.99C443.061 178.862 443.283 178.682 443.439 178.449C443.595 178.216 443.675 177.943 443.678 177.631C443.675 177.301 443.59 177.01 443.422 176.757C443.254 176.504 443.026 176.305 442.736 176.161C442.449 176.016 442.121 175.943 441.752 175.943C441.379 175.943 441.047 176.016 440.754 176.161C440.465 176.305 440.236 176.504 440.068 176.757C439.904 177.01 439.823 177.301 439.825 177.631C439.823 177.943 439.898 178.216 440.051 178.449C440.208 178.682 440.431 178.862 440.72 178.99C441.01 179.118 441.354 179.182 441.752 179.182ZM441.752 175.04C442.064 175.04 442.341 174.977 442.583 174.852C442.827 174.727 443.019 174.553 443.158 174.328C443.297 174.104 443.368 173.841 443.371 173.54C443.368 173.244 443.298 172.987 443.162 172.768C443.026 172.547 442.837 172.376 442.595 172.257C442.354 172.135 442.073 172.074 441.752 172.074C441.425 172.074 441.139 172.135 440.895 172.257C440.651 172.376 440.462 172.547 440.328 172.768C440.195 172.987 440.129 173.244 440.132 173.54C440.129 173.841 440.196 174.104 440.333 174.328C440.472 174.553 440.664 174.727 440.908 174.852C441.152 174.977 441.433 175.04 441.752 175.04Z" fill="black" fill-opacity="0.7"/>
<path d="M486.656 180.119C486.014 180.119 485.467 179.945 485.015 179.595C484.564 179.243 484.218 178.733 483.98 178.065C483.741 177.395 483.622 176.585 483.622 175.636C483.622 174.693 483.741 173.888 483.98 173.22C484.221 172.55 484.568 172.038 485.019 171.686C485.474 171.331 486.019 171.153 486.656 171.153C487.292 171.153 487.836 171.331 488.288 171.686C488.742 172.038 489.089 172.55 489.328 173.22C489.569 173.888 489.69 174.693 489.69 175.636C489.69 176.585 489.571 177.395 489.332 178.065C489.093 178.733 488.748 179.243 488.296 179.595C487.845 179.945 487.298 180.119 486.656 180.119ZM486.656 179.182C487.292 179.182 487.787 178.875 488.139 178.261C488.491 177.648 488.667 176.773 488.667 175.636C488.667 174.881 488.586 174.237 488.424 173.706C488.265 173.175 488.035 172.77 487.734 172.491C487.436 172.213 487.076 172.074 486.656 172.074C486.025 172.074 485.532 172.385 485.177 173.007C484.822 173.626 484.644 174.503 484.644 175.636C484.644 176.392 484.724 177.034 484.883 177.562C485.042 178.091 485.271 178.493 485.569 178.768C485.87 179.044 486.233 179.182 486.656 179.182ZM494.088 171.153C494.446 171.156 494.804 171.224 495.162 171.358C495.519 171.491 495.846 171.713 496.142 172.023C496.437 172.33 496.674 172.749 496.853 173.28C497.032 173.811 497.122 174.477 497.122 175.278C497.122 176.054 497.048 176.743 496.9 177.345C496.755 177.945 496.545 178.45 496.269 178.862C495.997 179.274 495.664 179.587 495.272 179.8C494.883 180.013 494.443 180.119 493.951 180.119C493.463 180.119 493.027 180.023 492.643 179.83C492.262 179.634 491.95 179.362 491.706 179.016C491.464 178.666 491.309 178.261 491.241 177.801H492.281C492.375 178.202 492.561 178.533 492.839 178.794C493.12 179.053 493.491 179.182 493.951 179.182C494.625 179.182 495.156 178.888 495.545 178.3C495.937 177.712 496.133 176.881 496.133 175.807H496.065C495.906 176.045 495.717 176.251 495.498 176.425C495.279 176.598 495.037 176.732 494.769 176.825C494.502 176.919 494.218 176.966 493.917 176.966C493.417 176.966 492.958 176.842 492.541 176.595C492.126 176.345 491.794 176.003 491.544 175.568C491.296 175.131 491.173 174.631 491.173 174.068C491.173 173.534 491.292 173.045 491.531 172.602C491.772 172.156 492.11 171.801 492.545 171.537C492.983 171.273 493.497 171.145 494.088 171.153ZM494.088 172.091C493.73 172.091 493.407 172.18 493.12 172.359C492.836 172.536 492.61 172.774 492.443 173.075C492.278 173.374 492.196 173.705 492.196 174.068C492.196 174.432 492.275 174.763 492.434 175.061C492.596 175.357 492.816 175.592 493.095 175.768C493.376 175.942 493.696 176.028 494.054 176.028C494.323 176.028 494.575 175.976 494.808 175.871C495.041 175.763 495.244 175.616 495.417 175.432C495.593 175.244 495.731 175.033 495.831 174.797C495.93 174.558 495.98 174.31 495.98 174.051C495.98 173.71 495.897 173.391 495.733 173.092C495.571 172.794 495.346 172.553 495.059 172.368C494.775 172.183 494.451 172.091 494.088 172.091Z" fill="black" fill-opacity="0.7"/>
<path d="M540.233 171.273V180H539.176V172.381H539.125L536.994 173.795V172.722L539.176 171.273H540.233ZM545.589 180.119C544.947 180.119 544.4 179.945 543.948 179.595C543.497 179.243 543.152 178.733 542.913 178.065C542.674 177.395 542.555 176.585 542.555 175.636C542.555 174.693 542.674 173.888 542.913 173.22C543.154 172.55 543.501 172.038 543.953 171.686C544.407 171.331 544.953 171.153 545.589 171.153C546.225 171.153 546.769 171.331 547.221 171.686C547.676 172.038 548.022 172.55 548.261 173.22C548.502 173.888 548.623 174.693 548.623 175.636C548.623 176.585 548.504 177.395 548.265 178.065C548.027 178.733 547.681 179.243 547.23 179.595C546.778 179.945 546.231 180.119 545.589 180.119ZM545.589 179.182C546.225 179.182 546.72 178.875 547.072 178.261C547.424 177.648 547.6 176.773 547.6 175.636C547.6 174.881 547.519 174.237 547.358 173.706C547.198 173.175 546.968 172.77 546.667 172.491C546.369 172.213 546.009 172.074 545.589 172.074C544.958 172.074 544.465 172.385 544.11 173.007C543.755 173.626 543.578 174.503 543.578 175.636C543.578 176.392 543.657 177.034 543.816 177.562C543.975 178.091 544.204 178.493 544.502 178.768C544.804 179.044 545.166 179.182 545.589 179.182Z" fill="black" fill-opacity="0.7"/>
<rect x="263.5" y="202" width="16" height="2" fill="#03346E"/>
<circle cx="271.5" cy="203" r="3.5" fill="white" stroke="#03346E"/>
<path d="M284.403 207.5V206.733L287.284 203.58C287.622 203.21 287.901 202.889 288.119 202.616C288.338 202.341 288.5 202.082 288.605 201.841C288.713 201.597 288.767 201.341 288.767 201.074C288.767 200.767 288.693 200.501 288.545 200.277C288.401 200.053 288.202 199.879 287.949 199.757C287.696 199.635 287.412 199.574 287.097 199.574C286.761 199.574 286.469 199.643 286.219 199.783C285.972 199.919 285.78 200.111 285.643 200.358C285.51 200.605 285.443 200.895 285.443 201.227H284.438C284.438 200.716 284.555 200.267 284.791 199.881C285.027 199.494 285.348 199.193 285.754 198.977C286.163 198.761 286.622 198.653 287.131 198.653C287.642 198.653 288.095 198.761 288.49 198.977C288.885 199.193 289.195 199.484 289.419 199.851C289.643 200.217 289.756 200.625 289.756 201.074C289.756 201.395 289.697 201.709 289.581 202.016C289.467 202.32 289.268 202.659 288.984 203.034C288.703 203.406 288.312 203.861 287.812 204.398L285.852 206.494V206.562H289.909V207.5H284.403ZM294.516 207.619C293.874 207.619 293.327 207.445 292.875 207.095C292.423 206.743 292.078 206.233 291.839 205.565C291.601 204.895 291.482 204.085 291.482 203.136C291.482 202.193 291.601 201.388 291.839 200.72C292.081 200.05 292.428 199.538 292.879 199.186C293.334 198.831 293.879 198.653 294.516 198.653C295.152 198.653 295.696 198.831 296.148 199.186C296.602 199.538 296.949 200.05 297.188 200.72C297.429 201.388 297.55 202.193 297.55 203.136C297.55 204.085 297.43 204.895 297.192 205.565C296.953 206.233 296.608 206.743 296.156 207.095C295.705 207.445 295.158 207.619 294.516 207.619ZM294.516 206.682C295.152 206.682 295.646 206.375 295.999 205.761C296.351 205.148 296.527 204.273 296.527 203.136C296.527 202.381 296.446 201.737 296.284 201.206C296.125 200.675 295.895 200.27 295.594 199.991C295.295 199.713 294.936 199.574 294.516 199.574C293.885 199.574 293.392 199.885 293.037 200.507C292.682 201.126 292.504 202.003 292.504 203.136C292.504 203.892 292.584 204.534 292.743 205.062C292.902 205.591 293.131 205.993 293.429 206.268C293.73 206.544 294.092 206.682 294.516 206.682ZM299.169 207.5V206.733L302.05 203.58C302.388 203.21 302.666 202.889 302.885 202.616C303.104 202.341 303.266 202.082 303.371 201.841C303.479 201.597 303.533 201.341 303.533 201.074C303.533 200.767 303.459 200.501 303.311 200.277C303.166 200.053 302.967 199.879 302.714 199.757C302.462 199.635 302.178 199.574 301.862 199.574C301.527 199.574 301.234 199.643 300.984 199.783C300.737 199.919 300.545 200.111 300.409 200.358C300.276 200.605 300.209 200.895 300.209 201.227H299.203C299.203 200.716 299.321 200.267 299.557 199.881C299.793 199.494 300.114 199.193 300.52 198.977C300.929 198.761 301.388 198.653 301.896 198.653C302.408 198.653 302.861 198.761 303.256 198.977C303.651 199.193 303.96 199.484 304.185 199.851C304.409 200.217 304.521 200.625 304.521 201.074C304.521 201.395 304.463 201.709 304.347 202.016C304.233 202.32 304.034 202.659 303.75 203.034C303.469 203.406 303.078 203.861 302.578 204.398L300.618 206.494V206.562H304.675V207.5H299.169ZM306.043 205.71V204.841L309.878 198.773H310.509V200.119H310.082L307.185 204.705V204.773H312.349V205.71H306.043ZM310.151 207.5V205.446V205.041V198.773H311.156V207.5H310.151Z" fill="black" fill-opacity="0.7"/>
<defs>
<linearGradient id="paint0_linear_161_1617" x1="307" y1="39.25" x2="307" y2="163" gradientUnits="userSpaceOnUse">
<stop stop-color="#03346E" stop-opacity="0.3"/>
<stop offset="1" stop-color="#03346E" stop-opacity="0.05"/>
</linearGradient>
</defs>
</svg>
