<svg width="443" height="251" viewBox="0 0 443 251" fill="none" xmlns="http://www.w3.org/2000/svg">
<rect width="443" height="251" fill="white"/>
<path d="M15.8523 36.1193C15.2898 36.1193 14.7884 36.0227 14.348 35.8295C13.9105 35.6364 13.5625 35.3679 13.304 35.0241C13.0483 34.6776 12.9091 34.2756 12.8864 33.8182H13.9602C13.983 34.0994 14.0795 34.3423 14.25 34.5469C14.4205 34.7486 14.6435 34.9048 14.919 35.0156C15.1946 35.1264 15.5 35.1818 15.8352 35.1818C16.2102 35.1818 16.5426 35.1165 16.8324 34.9858C17.1222 34.8551 17.3494 34.6733 17.5142 34.4403C17.679 34.2074 17.7614 33.9375 17.7614 33.6307C17.7614 33.3097 17.6818 33.027 17.5227 32.7827C17.3636 32.5355 17.1307 32.3423 16.8239 32.2031C16.517 32.0639 16.142 31.9943 15.6989 31.9943H15V31.0568H15.6989C16.0455 31.0568 16.3494 30.9943 16.6108 30.8693C16.875 30.7443 17.081 30.5682 17.2287 30.3409C17.3793 30.1136 17.4545 29.8466 17.4545 29.5398C17.4545 29.2443 17.3892 28.9872 17.2585 28.7685C17.1278 28.5497 16.9432 28.3793 16.7045 28.2571C16.4688 28.1349 16.1903 28.0739 15.8693 28.0739C15.5682 28.0739 15.2841 28.1293 15.017 28.2401C14.7528 28.348 14.5369 28.5057 14.3693 28.7131C14.2017 28.9176 14.1108 29.1648 14.0966 29.4545H13.0739C13.0909 28.9972 13.2287 28.5966 13.4872 28.2528C13.7457 27.9062 14.0838 27.6364 14.5014 27.4432C14.9219 27.25 15.3835 27.1534 15.8864 27.1534C16.4261 27.1534 16.8892 27.2628 17.2756 27.4815C17.6619 27.6974 17.9588 27.983 18.1662 28.3381C18.3736 28.6932 18.4773 29.0767 18.4773 29.4886C18.4773 29.9801 18.348 30.3991 18.0895 30.7457C17.8338 31.0923 17.4858 31.3324 17.0455 31.4659V31.5341C17.5966 31.625 18.027 31.8594 18.3366 32.2372C18.6463 32.6122 18.8011 33.0767 18.8011 33.6307C18.8011 34.1051 18.6719 34.5312 18.4134 34.9091C18.1577 35.2841 17.8082 35.5795 17.3651 35.7955C16.9219 36.0114 16.4176 36.1193 15.8523 36.1193ZM23.3906 36.1193C22.7486 36.1193 22.2017 35.9446 21.75 35.5952C21.2983 35.2429 20.9531 34.733 20.7145 34.0653C20.4759 33.3949 20.3565 32.5852 20.3565 31.6364C20.3565 30.6932 20.4759 29.8878 20.7145 29.2202C20.956 28.5497 21.3026 28.0384 21.7543 27.6861C22.2088 27.331 22.7543 27.1534 23.3906 27.1534C24.027 27.1534 24.571 27.331 25.0227 27.6861C25.4773 28.0384 25.8239 28.5497 26.0625 29.2202C26.304 29.8878 26.4247 30.6932 26.4247 31.6364C26.4247 32.5852 26.3054 33.3949 26.0668 34.0653C25.8281 34.733 25.483 35.2429 25.0312 35.5952C24.5795 35.9446 24.0327 36.1193 23.3906 36.1193ZM23.3906 35.1818C24.027 35.1818 24.5213 34.875 24.8736 34.2614C25.2259 33.6477 25.402 32.7727 25.402 31.6364C25.402 30.8807 25.321 30.2372 25.1591 29.706C25 29.1747 24.7699 28.7699 24.4688 28.4915C24.1705 28.2131 23.8111 28.0739 23.3906 28.0739C22.7599 28.0739 22.267 28.3849 21.9119 29.0071C21.5568 29.6264 21.3793 30.5028 21.3793 31.6364C21.3793 32.392 21.4588 33.0341 21.6179 33.5625C21.777 34.0909 22.0057 34.4929 22.304 34.7685C22.6051 35.044 22.9673 35.1818 23.3906 35.1818ZM30.8906 36.1193C30.2486 36.1193 29.7017 35.9446 29.25 35.5952C28.7983 35.2429 28.4531 34.733 28.2145 34.0653C27.9759 33.3949 27.8565 32.5852 27.8565 31.6364C27.8565 30.6932 27.9759 29.8878 28.2145 29.2202C28.456 28.5497 28.8026 28.0384 29.2543 27.6861C29.7088 27.331 30.2543 27.1534 30.8906 27.1534C31.527 27.1534 32.071 27.331 32.5227 27.6861C32.9773 28.0384 33.3239 28.5497 33.5625 29.2202C33.804 29.8878 33.9247 30.6932 33.9247 31.6364C33.9247 32.5852 33.8054 33.3949 33.5668 34.0653C33.3281 34.733 32.983 35.2429 32.5312 35.5952C32.0795 35.9446 31.5327 36.1193 30.8906 36.1193ZM30.8906 35.1818C31.527 35.1818 32.0213 34.875 32.3736 34.2614C32.7259 33.6477 32.902 32.7727 32.902 31.6364C32.902 30.8807 32.821 30.2372 32.6591 29.706C32.5 29.1747 32.2699 28.7699 31.9688 28.4915C31.6705 28.2131 31.3111 28.0739 30.8906 28.0739C30.2599 28.0739 29.767 28.3849 29.4119 29.0071C29.0568 29.6264 28.8793 30.5028 28.8793 31.6364C28.8793 32.392 28.9588 33.0341 29.1179 33.5625C29.277 34.0909 29.5057 34.4929 29.804 34.7685C30.1051 35.044 30.4673 35.1818 30.8906 35.1818Z" fill="black" fill-opacity="0.7"/>
<path d="M12.9034 67.8V67.033L15.7841 63.8796C16.1222 63.5103 16.4006 63.1893 16.6193 62.9165C16.8381 62.641 17 62.3824 17.1051 62.141C17.2131 61.8966 17.267 61.641 17.267 61.3739C17.267 61.0671 17.1932 60.8015 17.0455 60.577C16.9006 60.3526 16.7017 60.1793 16.4489 60.0572C16.196 59.935 15.9119 59.8739 15.5966 59.8739C15.2614 59.8739 14.9688 59.9435 14.7188 60.0827C14.4716 60.2191 14.2798 60.4108 14.1435 60.658C14.0099 60.9052 13.9432 61.1949 13.9432 61.5273H12.9375C12.9375 61.016 13.0554 60.5671 13.2912 60.1807C13.527 59.7944 13.848 59.4932 14.2543 59.2773C14.6634 59.0614 15.1222 58.9535 15.6307 58.9535C16.142 58.9535 16.5952 59.0614 16.9901 59.2773C17.3849 59.4932 17.6946 59.7844 17.919 60.1509C18.1435 60.5174 18.2557 60.925 18.2557 61.3739C18.2557 61.6949 18.1974 62.0089 18.081 62.3157C17.9673 62.6197 17.7685 62.9591 17.4844 63.3341C17.2031 63.7063 16.8125 64.1608 16.3125 64.6978L14.3523 66.7944V66.8625H18.4091V67.8H12.9034ZM19.777 66.0103V65.141L23.6122 59.0728H24.2429V60.4194H23.8168L20.919 65.0046V65.0728H26.0838V66.0103H19.777ZM23.8849 67.8V65.7461V65.3412V59.0728H24.8906V67.8H23.8849ZM30.5273 67.9194C29.8853 67.9194 29.3384 67.7447 28.8867 67.3952C28.435 67.0429 28.0898 66.533 27.8512 65.8654C27.6126 65.1949 27.4933 64.3853 27.4933 63.4364C27.4933 62.4932 27.6126 61.6878 27.8512 61.0202C28.0927 60.3498 28.4393 59.8384 28.891 59.4861C29.3455 59.131 29.891 58.9535 30.5273 58.9535C31.1637 58.9535 31.7077 59.131 32.1594 59.4861C32.614 59.8384 32.9606 60.3498 33.1992 61.0202C33.4407 61.6878 33.5614 62.4932 33.5614 63.4364C33.5614 64.3853 33.4421 65.1949 33.2035 65.8654C32.9648 66.533 32.6197 67.0429 32.168 67.3952C31.7163 67.7447 31.1694 67.9194 30.5273 67.9194ZM30.5273 66.9819C31.1637 66.9819 31.658 66.675 32.0103 66.0614C32.3626 65.4478 32.5387 64.5728 32.5387 63.4364C32.5387 62.6807 32.4577 62.0373 32.2958 61.506C32.1367 60.9748 31.9066 60.5699 31.6055 60.2915C31.3072 60.0131 30.9478 59.8739 30.5273 59.8739C29.8967 59.8739 29.4038 60.185 29.0487 60.8072C28.6935 61.4265 28.516 62.3029 28.516 63.4364C28.516 64.1921 28.5955 64.8341 28.7546 65.3625C28.9137 65.891 29.1424 66.2929 29.4407 66.5685C29.7418 66.8441 30.104 66.9819 30.5273 66.9819Z" fill="black" fill-opacity="0.7"/>
<path d="M17.9716 90.8728V99.6001H16.9148V91.9808H16.8636L14.733 93.3956V92.3217L16.9148 90.8728H17.9716ZM23.277 99.7194C22.6918 99.7194 22.1747 99.6157 21.7259 99.4083C21.2798 99.1981 20.9318 98.9098 20.6818 98.5433C20.4318 98.174 20.3082 97.7535 20.3111 97.2819C20.3082 96.9126 20.3807 96.5717 20.5284 96.2592C20.6761 95.9438 20.8778 95.6811 21.1335 95.4708C21.392 95.2578 21.6804 95.1228 21.9986 95.066V95.0149C21.581 94.9069 21.2486 94.6725 21.0014 94.3117C20.7543 93.9481 20.6321 93.5348 20.6349 93.0717C20.6321 92.6285 20.7443 92.2322 20.9716 91.8828C21.1989 91.5333 21.5114 91.2578 21.9091 91.0561C22.3097 90.8544 22.7656 90.7535 23.277 90.7535C23.7827 90.7535 24.2344 90.8544 24.6321 91.0561C25.0298 91.2578 25.3423 91.5333 25.5696 91.8828C25.7997 92.2322 25.9162 92.6285 25.919 93.0717C25.9162 93.5348 25.7898 93.9481 25.5398 94.3117C25.2926 94.6725 24.9645 94.9069 24.5554 95.0149V95.066C24.8707 95.1228 25.1548 95.2578 25.4077 95.4708C25.6605 95.6811 25.8622 95.9438 26.0128 96.2592C26.1634 96.5717 26.2401 96.9126 26.2429 97.2819C26.2401 97.7535 26.1122 98.174 25.8594 98.5433C25.6094 98.9098 25.2614 99.1981 24.8153 99.4083C24.3722 99.6157 23.8594 99.7194 23.277 99.7194ZM23.277 98.7819C23.6719 98.7819 24.0128 98.718 24.2997 98.5902C24.5866 98.4623 24.8082 98.2819 24.9645 98.049C25.1207 97.816 25.2003 97.5433 25.2031 97.2308C25.2003 96.9012 25.1151 96.61 24.9474 96.3572C24.7798 96.1044 24.5511 95.9055 24.2614 95.7606C23.9744 95.6157 23.6463 95.5433 23.277 95.5433C22.9048 95.5433 22.5724 95.6157 22.2798 95.7606C21.9901 95.9055 21.7614 96.1044 21.5938 96.3572C21.429 96.61 21.348 96.9012 21.3509 97.2308C21.348 97.5433 21.4233 97.816 21.5767 98.049C21.733 98.2819 21.956 98.4623 22.2457 98.5902C22.5355 98.718 22.8793 98.7819 23.277 98.7819ZM23.277 94.6399C23.5895 94.6399 23.8665 94.5774 24.108 94.4524C24.3523 94.3274 24.544 94.1527 24.6832 93.9282C24.8224 93.7038 24.8935 93.441 24.8963 93.1399C24.8935 92.8444 24.8239 92.5873 24.6875 92.3686C24.5511 92.147 24.3622 91.9765 24.1207 91.8572C23.8793 91.735 23.598 91.674 23.277 91.674C22.9503 91.674 22.6648 91.735 22.4205 91.8572C22.1761 91.9765 21.9872 92.147 21.8537 92.3686C21.7202 92.5873 21.6548 92.8444 21.6577 93.1399C21.6548 93.441 21.7216 93.7038 21.858 93.9282C21.9972 94.1527 22.1889 94.3274 22.4332 94.4524C22.6776 94.5774 22.9588 94.6399 23.277 94.6399ZM30.7227 99.7194C30.0806 99.7194 29.5337 99.5447 29.082 99.1953C28.6303 98.843 28.2852 98.3331 28.0465 97.6654C27.8079 96.995 27.6886 96.1853 27.6886 95.2365C27.6886 94.2933 27.8079 93.4879 28.0465 92.8203C28.288 92.1498 28.6346 91.6384 29.0863 91.2862C29.5408 90.9311 30.0863 90.7535 30.7227 90.7535C31.359 90.7535 31.9031 90.9311 32.3548 91.2862C32.8093 91.6384 33.1559 92.1498 33.3945 92.8203C33.636 93.4879 33.7567 94.2933 33.7567 95.2365C33.7567 96.1853 33.6374 96.995 33.3988 97.6654C33.1602 98.3331 32.815 98.843 32.3633 99.1953C31.9116 99.5447 31.3647 99.7194 30.7227 99.7194ZM30.7227 98.7819C31.359 98.7819 31.8533 98.4751 32.2056 97.8615C32.5579 97.2478 32.734 96.3728 32.734 95.2365C32.734 94.4808 32.6531 93.8373 32.4911 93.3061C32.332 92.7748 32.1019 92.37 31.8008 92.0916C31.5025 91.8132 31.1431 91.674 30.7227 91.674C30.092 91.674 29.5991 91.985 29.244 92.6072C28.8888 93.2265 28.7113 94.1029 28.7113 95.2365C28.7113 95.9921 28.7908 96.6342 28.9499 97.1626C29.109 97.691 29.3377 98.093 29.636 98.3686C29.9371 98.6441 30.2994 98.7819 30.7227 98.7819Z" fill="black" fill-opacity="0.7"/>
<path d="M17.9716 122.673V131.4H16.9148V123.781H16.8636L14.733 125.195V124.121L16.9148 122.673H17.9716ZM20.4815 131.4V130.633L23.3622 127.479C23.7003 127.11 23.9787 126.789 24.1974 126.516C24.4162 126.241 24.5781 125.982 24.6832 125.741C24.7912 125.496 24.8452 125.241 24.8452 124.974C24.8452 124.667 24.7713 124.401 24.6236 124.177C24.4787 123.952 24.2798 123.779 24.027 123.657C23.7741 123.535 23.4901 123.474 23.1747 123.474C22.8395 123.474 22.5469 123.543 22.2969 123.683C22.0497 123.819 21.858 124.011 21.7216 124.258C21.5881 124.505 21.5213 124.795 21.5213 125.127H20.5156C20.5156 124.616 20.6335 124.167 20.8693 123.781C21.1051 123.394 21.4261 123.093 21.8324 122.877C22.2415 122.661 22.7003 122.553 23.2088 122.553C23.7202 122.553 24.1733 122.661 24.5682 122.877C24.9631 123.093 25.2727 123.384 25.4972 123.751C25.7216 124.117 25.8338 124.525 25.8338 124.974C25.8338 125.295 25.7756 125.609 25.6591 125.916C25.5455 126.22 25.3466 126.559 25.0625 126.934C24.7812 127.306 24.3906 127.761 23.8906 128.298L21.9304 130.394V130.462H25.9872V131.4H20.4815ZM30.5938 131.519C29.9517 131.519 29.4048 131.345 28.9531 130.995C28.5014 130.643 28.1563 130.133 27.9176 129.465C27.679 128.795 27.5597 127.985 27.5597 127.036C27.5597 126.093 27.679 125.288 27.9176 124.62C28.1591 123.95 28.5057 123.438 28.9574 123.086C29.4119 122.731 29.9574 122.553 30.5938 122.553C31.2301 122.553 31.7741 122.731 32.2259 123.086C32.6804 123.438 33.027 123.95 33.2656 124.62C33.5071 125.288 33.6278 126.093 33.6278 127.036C33.6278 127.985 33.5085 128.795 33.2699 129.465C33.0312 130.133 32.6861 130.643 32.2344 130.995C31.7827 131.345 31.2358 131.519 30.5938 131.519ZM30.5938 130.582C31.2301 130.582 31.7244 130.275 32.0767 129.661C32.429 129.048 32.6051 128.173 32.6051 127.036C32.6051 126.281 32.5241 125.637 32.3622 125.106C32.2031 124.575 31.973 124.17 31.6719 123.891C31.3736 123.613 31.0142 123.474 30.5938 123.474C29.9631 123.474 29.4702 123.785 29.1151 124.407C28.7599 125.026 28.5824 125.903 28.5824 127.036C28.5824 127.792 28.6619 128.434 28.821 128.962C28.9801 129.491 29.2088 129.893 29.5071 130.168C29.8082 130.444 30.1705 130.582 30.5938 130.582Z" fill="black" fill-opacity="0.7"/>
<path d="M23.8011 163.319C23.4432 163.314 23.0852 163.245 22.7273 163.115C22.3693 162.984 22.0426 162.764 21.7472 162.454C21.4517 162.142 21.2145 161.72 21.0355 161.189C20.8565 160.654 20.767 159.984 20.767 159.177C20.767 158.404 20.8395 157.72 20.9844 157.123C21.1293 156.524 21.3395 156.02 21.6151 155.61C21.8906 155.199 22.223 154.886 22.6122 154.673C23.0043 154.46 23.446 154.353 23.9375 154.353C24.4261 154.353 24.8608 154.451 25.2415 154.647C25.625 154.841 25.9375 155.11 26.179 155.457C26.4205 155.804 26.5767 156.203 26.6477 156.654H25.608C25.5114 156.262 25.3239 155.937 25.0455 155.679C24.767 155.42 24.3977 155.291 23.9375 155.291C23.2614 155.291 22.7287 155.585 22.3395 156.173C21.9531 156.761 21.7585 157.586 21.7557 158.649H21.8239C21.983 158.407 22.1719 158.201 22.3906 158.031C22.6122 157.858 22.8565 157.724 23.1236 157.63C23.3906 157.537 23.6733 157.49 23.9716 157.49C24.4716 157.49 24.929 157.615 25.3438 157.865C25.7585 158.112 26.0909 158.454 26.3409 158.892C26.5909 159.326 26.7159 159.825 26.7159 160.387C26.7159 160.927 26.5952 161.422 26.3537 161.87C26.1122 162.316 25.7727 162.672 25.3352 162.936C24.9006 163.197 24.3892 163.325 23.8011 163.319ZM23.8011 162.382C24.1591 162.382 24.4801 162.292 24.7642 162.113C25.0511 161.934 25.277 161.694 25.4418 161.393C25.6094 161.092 25.6932 160.757 25.6932 160.387C25.6932 160.027 25.6122 159.699 25.4503 159.403C25.2912 159.105 25.071 158.868 24.7898 158.691C24.5114 158.515 24.1932 158.427 23.8352 158.427C23.5653 158.427 23.3139 158.481 23.081 158.589C22.848 158.694 22.6435 158.839 22.4673 159.024C22.294 159.208 22.1577 159.42 22.0582 159.659C21.9588 159.895 21.9091 160.143 21.9091 160.404C21.9091 160.751 21.9901 161.075 22.152 161.376C22.3168 161.677 22.5412 161.92 22.8253 162.105C23.1122 162.289 23.4375 162.382 23.8011 162.382ZM31.2383 163.319C30.5962 163.319 30.0494 163.145 29.5977 162.795C29.146 162.443 28.8008 161.933 28.5621 161.265C28.3235 160.595 28.2042 159.785 28.2042 158.836C28.2042 157.893 28.3235 157.088 28.5621 156.42C28.8036 155.75 29.1502 155.238 29.6019 154.886C30.0565 154.531 30.6019 154.353 31.2383 154.353C31.8746 154.353 32.4187 154.531 32.8704 154.886C33.3249 155.238 33.6715 155.75 33.9102 156.42C34.1516 157.088 34.2724 157.893 34.2724 158.836C34.2724 159.785 34.1531 160.595 33.9144 161.265C33.6758 161.933 33.3306 162.443 32.8789 162.795C32.4272 163.145 31.8803 163.319 31.2383 163.319ZM31.2383 162.382C31.8746 162.382 32.369 162.075 32.7212 161.461C33.0735 160.848 33.2496 159.973 33.2496 158.836C33.2496 158.081 33.1687 157.437 33.0067 156.906C32.8477 156.375 32.6175 155.97 32.3164 155.691C32.0181 155.413 31.6587 155.274 31.2383 155.274C30.6076 155.274 30.1147 155.585 29.7596 156.207C29.4045 156.826 29.2269 157.703 29.2269 158.836C29.2269 159.592 29.3065 160.234 29.4656 160.762C29.6246 161.291 29.8533 161.693 30.1516 161.968C30.4528 162.244 30.815 162.382 31.2383 162.382Z" fill="black" fill-opacity="0.7"/>
<path d="M30.75 195.119C30.108 195.119 29.5611 194.945 29.1094 194.595C28.6577 194.243 28.3125 193.733 28.0739 193.065C27.8352 192.395 27.7159 191.585 27.7159 190.636C27.7159 189.693 27.8352 188.888 28.0739 188.22C28.3153 187.55 28.6619 187.038 29.1136 186.686C29.5682 186.331 30.1136 186.153 30.75 186.153C31.3864 186.153 31.9304 186.331 32.3821 186.686C32.8366 187.038 33.1832 187.55 33.4219 188.22C33.6634 188.888 33.7841 189.693 33.7841 190.636C33.7841 191.585 33.6648 192.395 33.4261 193.065C33.1875 193.733 32.8423 194.243 32.3906 194.595C31.9389 194.945 31.392 195.119 30.75 195.119ZM30.75 194.182C31.3864 194.182 31.8807 193.875 32.233 193.261C32.5852 192.648 32.7614 191.773 32.7614 190.636C32.7614 189.881 32.6804 189.237 32.5185 188.706C32.3594 188.175 32.1293 187.77 31.8281 187.491C31.5298 187.213 31.1705 187.074 30.75 187.074C30.1193 187.074 29.6264 187.385 29.2713 188.007C28.9162 188.626 28.7386 189.503 28.7386 190.636C28.7386 191.392 28.8182 192.034 28.9773 192.562C29.1364 193.091 29.3651 193.493 29.6634 193.768C29.9645 194.044 30.3267 194.182 30.75 194.182Z" fill="black" fill-opacity="0.7"/>
<line x1="40" y1="29.5" x2="434" y2="29.5" stroke="#00001A" stroke-opacity="0.15" stroke-dasharray="2"/>
<line x1="40" y1="61.8999" x2="434" y2="61.8999" stroke="#00001A" stroke-opacity="0.15" stroke-dasharray="2"/>
<line x1="40" y1="94.3" x2="434" y2="94.3" stroke="#00001A" stroke-opacity="0.15" stroke-dasharray="2"/>
<line x1="40" y1="126.7" x2="434" y2="126.7" stroke="#00001A" stroke-opacity="0.15" stroke-dasharray="2"/>
<line x1="40" y1="159.1" x2="434" y2="159.1" stroke="#00001A" stroke-opacity="0.15" stroke-dasharray="2"/>
<line x1="40" y1="191.5" x2="434" y2="191.5" stroke="#00001A" stroke-opacity="0.3"/>
<line x1="39.5" y1="192" x2="39.5" y2="30" stroke="#00001A" stroke-opacity="0.15" stroke-dasharray="2"/>
<line x1="95.7857" y1="192" x2="95.7857" y2="30" stroke="#00001A" stroke-opacity="0.15" stroke-dasharray="2"/>
<line x1="152.071" y1="192" x2="152.071" y2="30" stroke="#00001A" stroke-opacity="0.15" stroke-dasharray="2"/>
<line x1="208.357" y1="192" x2="208.357" y2="30" stroke="#00001A" stroke-opacity="0.15" stroke-dasharray="2"/>
<line x1="264.643" y1="192" x2="264.643" y2="30" stroke="#00001A" stroke-opacity="0.15" stroke-dasharray="2"/>
<line x1="320.929" y1="192" x2="320.929" y2="30" stroke="#00001A" stroke-opacity="0.15" stroke-dasharray="2"/>
<line x1="377.214" y1="192" x2="377.214" y2="30" stroke="#00001A" stroke-opacity="0.15" stroke-dasharray="2"/>
<line x1="433.5" y1="192" x2="433.5" y2="30" stroke="#00001A" stroke-opacity="0.15" stroke-dasharray="2"/>
<g opacity="0.2">
<rect opacity="0.7" x="50" y="30" width="35" height="160.5" fill="#8979FF"/>
<rect x="50" y="30" width="17.5" height="160.5" fill="white" fill-opacity="0.3"/>
<path d="M67.5 27L85 30L67.5 33L50 30L67.5 27Z" fill="#8979FF"/>
</g>
<rect opacity="0.7" x="50" y="72.9333" width="35" height="118.467" fill="#8979FF"/>
<rect x="50" y="72.9333" width="17.5" height="117.5" fill="white" fill-opacity="0.3"/>
<path d="M67.5 69.9333L85 72.9333L67.5 75.9333L50 72.9333L67.5 69.9333Z" fill="#8979FF"/>
<path d="M58.5385 85.7703V85.1311L60.9391 82.5032C61.2208 82.1955 61.4528 81.9279 61.6351 81.7007C61.8174 81.471 61.9524 81.2556 62.04 81.0544C62.1299 80.8508 62.1749 80.6377 62.1749 80.4151C62.1749 80.1595 62.1134 79.9381 61.9903 79.7511C61.8695 79.5641 61.7038 79.4196 61.4931 79.3178C61.2824 79.216 61.0456 79.1651 60.7829 79.1651C60.5035 79.1651 60.2597 79.2232 60.0513 79.3392C59.8454 79.4528 59.6856 79.6126 59.5719 79.8186C59.4607 80.0245 59.405 80.266 59.405 80.543H58.567C58.567 80.1169 58.6652 79.7428 58.8617 79.4208C59.0582 79.0989 59.3257 78.8479 59.6643 78.668C60.0052 78.4881 60.3875 78.3981 60.8113 78.3981C61.2374 78.3981 61.615 78.4881 61.9441 78.668C62.2732 78.8479 62.5312 79.0906 62.7182 79.396C62.9053 79.7014 62.9988 80.0411 62.9988 80.4151C62.9988 80.6827 62.9502 80.9443 62.8532 81.2C62.7585 81.4533 62.5928 81.7362 62.356 82.0487C62.1216 82.3588 61.7961 82.7376 61.3795 83.185L59.7459 84.9322V84.989H63.1266V85.7703H58.5385ZM64.5932 85.7703V85.1311L66.9938 82.5032C67.2755 82.1955 67.5075 81.9279 67.6898 81.7007C67.8721 81.471 68.0071 81.2556 68.0947 81.0544C68.1846 80.8508 68.2296 80.6377 68.2296 80.4151C68.2296 80.1595 68.168 79.9381 68.0449 79.7511C67.9242 79.5641 67.7585 79.4196 67.5478 79.3178C67.3371 79.216 67.1003 79.1651 66.8376 79.1651C66.5582 79.1651 66.3144 79.2232 66.106 79.3392C65.9001 79.4528 65.7403 79.6126 65.6266 79.8186C65.5153 80.0245 65.4597 80.266 65.4597 80.543H64.6216C64.6216 80.1169 64.7199 79.7428 64.9164 79.4208C65.1129 79.0989 65.3804 78.8479 65.7189 78.668C66.0599 78.4881 66.4422 78.3981 66.866 78.3981C67.2921 78.3981 67.6697 78.4881 67.9988 78.668C68.3278 78.8479 68.5859 79.0906 68.7729 79.396C68.9599 79.7014 69.0535 80.0411 69.0535 80.4151C69.0535 80.6827 69.0049 80.9443 68.9079 81.2C68.8132 81.4533 68.6474 81.7362 68.4107 82.0487C68.1763 82.3588 67.8508 82.7376 67.4341 83.185L65.8006 84.9322V84.989H69.1813V85.7703H64.5932ZM73.0201 85.8697C72.485 85.8697 72.0293 85.7241 71.6529 85.4329C71.2765 85.1393 70.9888 84.7144 70.79 84.158C70.5911 83.5993 70.4917 82.9246 70.4917 82.1339C70.4917 81.3479 70.5911 80.6768 70.79 80.1204C70.9912 79.5617 71.28 79.1356 71.6564 78.842C72.0352 78.5461 72.4898 78.3981 73.0201 78.3981C73.5504 78.3981 74.0037 78.5461 74.3802 78.842C74.759 79.1356 75.0478 79.5617 75.2466 80.1204C75.4479 80.6768 75.5485 81.3479 75.5485 82.1339C75.5485 82.9246 75.4491 83.5993 75.2502 84.158C75.0513 84.7144 74.7637 85.1393 74.3873 85.4329C74.0108 85.7241 73.5551 85.8697 73.0201 85.8697ZM73.0201 85.0884C73.5504 85.0884 73.9623 84.8328 74.2559 84.3214C74.5494 83.81 74.6962 83.0809 74.6962 82.1339C74.6962 81.5042 74.6287 80.9679 74.4938 80.5252C74.3612 80.0825 74.1695 79.7452 73.9185 79.5132C73.6699 79.2812 73.3705 79.1651 73.0201 79.1651C72.4945 79.1651 72.0838 79.4244 71.7878 79.9428C71.4919 80.4589 71.3439 81.1893 71.3439 82.1339C71.3439 82.7636 71.4102 83.2987 71.5428 83.739C71.6754 84.1794 71.866 84.5143 72.1145 84.744C72.3655 84.9736 72.6673 85.0884 73.0201 85.0884Z" fill="black" fill-opacity="0.7"/>
<g opacity="0.2">
<rect opacity="0.7" x="106.571" y="30" width="35" height="160.5" fill="#8979FF"/>
<rect x="106.571" y="30" width="17.5" height="160.5" fill="white" fill-opacity="0.3"/>
<path d="M124.071 27L141.571 30L124.071 33L106.571 30L124.071 27Z" fill="#8979FF"/>
</g>
<rect opacity="0.7" x="106.571" y="83.6667" width="35" height="107.333" fill="#8979FF"/>
<rect x="106.571" y="83.6667" width="17.5" height="106.5" fill="white" fill-opacity="0.3"/>
<path d="M124.071 80.6667L141.571 83.6667L124.071 86.6667L106.571 83.6667L124.071 80.6667Z" fill="#8979FF"/>
<path d="M115.11 96.5037V95.8645L117.511 93.2366C117.792 92.9289 118.024 92.6613 118.207 92.4341C118.389 92.2044 118.524 91.989 118.611 91.7878C118.701 91.5842 118.746 91.3711 118.746 91.1485C118.746 90.8929 118.685 90.6715 118.562 90.4845C118.441 90.2975 118.275 90.153 118.065 90.0512C117.854 89.9494 117.617 89.8985 117.354 89.8985C117.075 89.8985 116.831 89.9566 116.623 90.0726C116.417 90.1862 116.257 90.346 116.143 90.552C116.032 90.7579 115.976 90.9994 115.976 91.2764H115.138C115.138 90.8503 115.237 90.4762 115.433 90.1542C115.63 89.8323 115.897 89.5813 116.236 89.4014C116.577 89.2215 116.959 89.1315 117.383 89.1315C117.809 89.1315 118.186 89.2215 118.516 89.4014C118.845 89.5813 119.103 89.824 119.29 90.1294C119.477 90.4348 119.57 90.7745 119.57 91.1485C119.57 91.4161 119.522 91.6777 119.425 91.9333C119.33 92.1867 119.164 92.4696 118.927 92.7821C118.693 93.0922 118.368 93.471 117.951 93.9184L116.317 95.6656V95.7224H119.698V96.5037H115.11ZM123.537 96.6031C123.002 96.6031 122.546 96.4575 122.17 96.1663C121.793 95.8727 121.506 95.4478 121.307 94.8914C121.108 94.3327 121.008 93.658 121.008 92.8673C121.008 92.0813 121.108 91.4101 121.307 90.8538C121.508 90.2951 121.797 89.869 122.173 89.5754C122.552 89.2795 123.007 89.1315 123.537 89.1315C124.067 89.1315 124.52 89.2795 124.897 89.5754C125.276 89.869 125.565 90.2951 125.763 90.8538C125.965 91.4101 126.065 92.0813 126.065 92.8673C126.065 93.658 125.966 94.3327 125.767 94.8914C125.568 95.4478 125.28 95.8727 124.904 96.1663C124.528 96.4575 124.072 96.6031 123.537 96.6031ZM123.537 95.8218C124.067 95.8218 124.479 95.5662 124.773 95.0548C125.066 94.5434 125.213 93.8143 125.213 92.8673C125.213 92.2376 125.145 91.7013 125.011 91.2586C124.878 90.8159 124.686 90.4786 124.435 90.2466C124.187 90.0146 123.887 89.8985 123.537 89.8985C123.011 89.8985 122.601 90.1578 122.305 90.6762C122.009 91.1923 121.861 91.9227 121.861 92.8673C121.861 93.497 121.927 94.0321 122.06 94.4724C122.192 94.9128 122.383 95.2477 122.631 95.4774C122.882 95.707 123.184 95.8218 123.537 95.8218ZM129.787 96.6031C129.252 96.6031 128.796 96.4575 128.42 96.1663C128.043 95.8727 127.756 95.4478 127.557 94.8914C127.358 94.3327 127.258 93.658 127.258 92.8673C127.258 92.0813 127.358 91.4101 127.557 90.8538C127.758 90.2951 128.047 89.869 128.423 89.5754C128.802 89.2795 129.257 89.1315 129.787 89.1315C130.317 89.1315 130.77 89.2795 131.147 89.5754C131.526 89.869 131.815 90.2951 132.013 90.8538C132.215 91.4101 132.315 92.0813 132.315 92.8673C132.315 93.658 132.216 94.3327 132.017 94.8914C131.818 95.4478 131.53 95.8727 131.154 96.1663C130.778 96.4575 130.322 96.6031 129.787 96.6031ZM129.787 95.8218C130.317 95.8218 130.729 95.5662 131.023 95.0548C131.316 94.5434 131.463 93.8143 131.463 92.8673C131.463 92.2376 131.395 91.7013 131.261 91.2586C131.128 90.8159 130.936 90.4786 130.685 90.2466C130.437 90.0146 130.137 89.8985 129.787 89.8985C129.261 89.8985 128.851 90.1578 128.555 90.6762C128.259 91.1923 128.111 91.9227 128.111 92.8673C128.111 93.497 128.177 94.0321 128.31 94.4724C128.442 94.9128 128.633 95.2477 128.881 95.4774C129.132 95.707 129.434 95.8218 129.787 95.8218Z" fill="black" fill-opacity="0.7"/>
<g opacity="0.2">
<rect opacity="0.7" x="163.143" y="30" width="35" height="160.5" fill="#8979FF"/>
<rect x="163.143" y="30" width="17.5" height="160.5" fill="white" fill-opacity="0.3"/>
<path d="M180.643 27L198.143 30L180.643 33L163.143 30L180.643 27Z" fill="#8979FF"/>
</g>
<rect opacity="0.7" x="163.143" y="30" width="35" height="161" fill="#8979FF"/>
<rect x="163.143" y="30" width="17.5" height="160.5" fill="white" fill-opacity="0.3"/>
<path d="M180.643 27L198.143 30L180.643 33L163.143 30L180.643 27Z" fill="#8979FF"/>
<path d="M174.139 42.9363C173.67 42.9363 173.252 42.8559 172.885 42.6949C172.521 42.5339 172.231 42.3102 172.015 42.0237C171.802 41.7349 171.686 41.3999 171.667 41.0187H172.562C172.581 41.2531 172.662 41.4555 172.804 41.626C172.946 41.7941 173.131 41.9243 173.361 42.0166C173.591 42.1089 173.845 42.1551 174.125 42.1551C174.437 42.1551 174.714 42.1006 174.956 41.9917C175.197 41.8828 175.386 41.7313 175.524 41.5372C175.661 41.3431 175.73 41.1182 175.73 40.8625C175.73 40.595 175.663 40.3594 175.531 40.1558C175.398 39.9498 175.204 39.7889 174.948 39.6729C174.693 39.5568 174.38 39.4988 174.011 39.4988H173.429V38.7176H174.011C174.3 38.7176 174.553 38.6655 174.771 38.5613C174.991 38.4572 175.163 38.3104 175.286 38.121C175.411 37.9316 175.474 37.7091 175.474 37.4534C175.474 37.2072 175.42 36.9929 175.311 36.8106C175.202 36.6283 175.048 36.4863 174.849 36.3845C174.653 36.2827 174.421 36.2318 174.153 36.2318C173.902 36.2318 173.665 36.278 173.443 36.3703C173.223 36.4603 173.043 36.5916 172.903 36.7645C172.763 36.9349 172.688 37.1409 172.676 37.3824H171.823C171.838 37.0012 171.952 36.6674 172.168 36.3809C172.383 36.0921 172.665 35.8672 173.013 35.7062C173.363 35.5452 173.748 35.4648 174.167 35.4648C174.617 35.4648 175.003 35.5559 175.325 35.7382C175.647 35.9181 175.894 36.156 176.067 36.452C176.24 36.7479 176.326 37.0675 176.326 37.4108C176.326 37.8203 176.219 38.1695 176.003 38.4584C175.79 38.7472 175.5 38.9472 175.133 39.0585V39.1153C175.592 39.1911 175.951 39.3864 176.209 39.7013C176.467 40.0138 176.596 40.4008 176.596 40.8625C176.596 41.2578 176.488 41.613 176.273 41.9278C176.06 42.2403 175.769 42.4865 175.399 42.6665C175.03 42.8464 174.61 42.9363 174.139 42.9363ZM180.421 42.9363C179.886 42.9363 179.43 42.7907 179.054 42.4996C178.677 42.206 178.389 41.781 178.191 41.2247C177.992 40.666 177.892 39.9913 177.892 39.2006C177.892 38.4146 177.992 37.7434 178.191 37.1871C178.392 36.6283 178.681 36.2022 179.057 35.9086C179.436 35.6127 179.89 35.4648 180.421 35.4648C180.951 35.4648 181.404 35.6127 181.781 35.9086C182.16 36.2022 182.448 36.6283 182.647 37.1871C182.849 37.7434 182.949 38.4146 182.949 39.2006C182.949 39.9913 182.85 40.666 182.651 41.2247C182.452 41.781 182.164 42.206 181.788 42.4996C181.412 42.7907 180.956 42.9363 180.421 42.9363ZM180.421 42.1551C180.951 42.1551 181.363 41.8994 181.657 41.3881C181.95 40.8767 182.097 40.1475 182.097 39.2006C182.097 38.5708 182.029 38.0346 181.894 37.5919C181.762 37.1492 181.57 36.8118 181.319 36.5798C181.071 36.3478 180.771 36.2318 180.421 36.2318C179.895 36.2318 179.484 36.491 179.189 37.0095C178.893 37.5256 178.745 38.2559 178.745 39.2006C178.745 39.8303 178.811 40.3653 178.943 40.8057C179.076 41.246 179.267 41.581 179.515 41.8106C179.766 42.0403 180.068 42.1551 180.421 42.1551ZM186.671 42.9363C186.136 42.9363 185.68 42.7907 185.304 42.4996C184.927 42.206 184.639 41.781 184.441 41.2247C184.242 40.666 184.142 39.9913 184.142 39.2006C184.142 38.4146 184.242 37.7434 184.441 37.1871C184.642 36.6283 184.931 36.2022 185.307 35.9086C185.686 35.6127 186.14 35.4648 186.671 35.4648C187.201 35.4648 187.654 35.6127 188.031 35.9086C188.41 36.2022 188.698 36.6283 188.897 37.1871C189.099 37.7434 189.199 38.4146 189.199 39.2006C189.199 39.9913 189.1 40.666 188.901 41.2247C188.702 41.781 188.414 42.206 188.038 42.4996C187.662 42.7907 187.206 42.9363 186.671 42.9363ZM186.671 42.1551C187.201 42.1551 187.613 41.8994 187.907 41.3881C188.2 40.8767 188.347 40.1475 188.347 39.2006C188.347 38.5708 188.279 38.0346 188.144 37.5919C188.012 37.1492 187.82 36.8118 187.569 36.5798C187.321 36.3478 187.021 36.2318 186.671 36.2318C186.145 36.2318 185.734 36.491 185.439 37.0095C185.143 37.5256 184.995 38.2559 184.995 39.2006C184.995 39.8303 185.061 40.3653 185.193 40.8057C185.326 41.246 185.517 41.581 185.765 41.8106C186.016 42.0403 186.318 42.1551 186.671 42.1551Z" fill="black" fill-opacity="0.7"/>
<g opacity="0.2">
<rect opacity="0.7" x="219.714" y="30" width="35" height="160.5" fill="#8979FF"/>
<rect x="219.714" y="30" width="17.5" height="160.5" fill="white" fill-opacity="0.3"/>
<path d="M237.214 27L254.714 30L237.214 33L219.714 30L237.214 27Z" fill="#8979FF"/>
</g>
<rect opacity="0.7" x="219.714" y="110.5" width="35" height="80.5" fill="#8979FF"/>
<rect x="219.714" y="110.5" width="17.5" height="80.5" fill="white" fill-opacity="0.3"/>
<path d="M237.214 107.5L254.714 110.5L237.214 113.5L219.714 110.5L237.214 107.5Z" fill="#8979FF"/>
<path d="M231.81 116.064V123.337H230.929V116.987H230.886L229.111 118.166V117.272L230.929 116.064H231.81ZM236.174 123.436C235.757 123.436 235.382 123.353 235.048 123.188C234.714 123.022 234.447 122.795 234.246 122.506C234.044 122.217 233.934 121.888 233.915 121.519H234.768C234.801 121.848 234.95 122.12 235.215 122.335C235.483 122.549 235.802 122.655 236.174 122.655C236.472 122.655 236.737 122.585 236.969 122.446C237.204 122.306 237.387 122.114 237.52 121.87C237.655 121.624 237.722 121.346 237.722 121.036C237.722 120.719 237.652 120.436 237.513 120.187C237.375 119.936 237.186 119.738 236.945 119.594C236.703 119.45 236.427 119.376 236.117 119.374C235.895 119.371 235.666 119.406 235.432 119.477C235.197 119.545 235.004 119.634 234.853 119.743L234.029 119.644L234.469 116.064H238.248V116.845H235.208L234.952 118.99H234.995C235.144 118.872 235.331 118.774 235.556 118.696C235.781 118.617 236.015 118.578 236.259 118.578C236.704 118.578 237.101 118.685 237.449 118.898C237.799 119.109 238.074 119.398 238.273 119.764C238.474 120.131 238.575 120.55 238.575 121.022C238.575 121.486 238.47 121.9 238.262 122.264C238.056 122.627 237.772 122.913 237.41 123.124C237.048 123.332 236.636 123.436 236.174 123.436ZM242.357 123.436C241.822 123.436 241.367 123.291 240.99 123C240.614 122.706 240.326 122.281 240.127 121.725C239.928 121.166 239.829 120.491 239.829 119.701C239.829 118.915 239.928 118.243 240.127 117.687C240.329 117.128 240.617 116.702 240.994 116.409C241.373 116.113 241.827 115.965 242.357 115.965C242.888 115.965 243.341 116.113 243.717 116.409C244.096 116.702 244.385 117.128 244.584 117.687C244.785 118.243 244.886 118.915 244.886 119.701C244.886 120.491 244.786 121.166 244.588 121.725C244.389 122.281 244.101 122.706 243.725 123C243.348 123.291 242.892 123.436 242.357 123.436ZM242.357 122.655C242.888 122.655 243.3 122.399 243.593 121.888C243.887 121.377 244.034 120.648 244.034 119.701C244.034 119.071 243.966 118.535 243.831 118.092C243.699 117.649 243.507 117.312 243.256 117.08C243.007 116.848 242.708 116.732 242.357 116.732C241.832 116.732 241.421 116.991 241.125 117.509C240.829 118.026 240.681 118.756 240.681 119.701C240.681 120.33 240.748 120.865 240.88 121.306C241.013 121.746 241.203 122.081 241.452 122.311C241.703 122.54 242.005 122.655 242.357 122.655Z" fill="black" fill-opacity="0.7"/>
<g opacity="0.2">
<rect opacity="0.7" x="276.286" y="30" width="35" height="160.5" fill="#8979FF"/>
<rect x="276.286" y="30" width="17.5" height="160.5" fill="white" fill-opacity="0.3"/>
<path d="M293.786 27L311.286 30L293.786 33L276.286 30L293.786 27Z" fill="#8979FF"/>
</g>
<rect opacity="0.7" x="276.286" y="59.5166" width="35" height="131.383" fill="#8979FF"/>
<rect x="276.286" y="59.5166" width="17.5" height="130.5" fill="white" fill-opacity="0.3"/>
<path d="M293.786 56.5166L311.286 59.5166L293.786 62.5166L276.286 59.5166L293.786 56.5166Z" fill="#8979FF"/>
<path d="M284.824 72.3538V71.7146L287.225 69.0867C287.507 68.7789 287.739 68.5114 287.921 68.2842C288.103 68.0545 288.238 67.8391 288.326 67.6379C288.416 67.4343 288.461 67.2212 288.461 66.9986C288.461 66.743 288.399 66.5216 288.276 66.3346C288.155 66.1476 287.99 66.0031 287.779 65.9013C287.568 65.7995 287.331 65.7486 287.069 65.7486C286.789 65.7486 286.545 65.8066 286.337 65.9227C286.131 66.0363 285.971 66.1961 285.858 66.4021C285.746 66.608 285.691 66.8495 285.691 67.1265H284.853C284.853 66.7004 284.951 66.3263 285.147 66.0043C285.344 65.6824 285.611 65.4314 285.95 65.2515C286.291 65.0716 286.673 64.9816 287.097 64.9816C287.523 64.9816 287.901 65.0716 288.23 65.2515C288.559 65.4314 288.817 65.6741 289.004 65.9795C289.191 66.2849 289.284 66.6246 289.284 66.9986C289.284 67.2662 289.236 67.5278 289.139 67.7834C289.044 68.0368 288.878 68.3197 288.642 68.6322C288.407 68.9423 288.082 69.3211 287.665 69.7685L286.032 71.5157V71.5725H289.412V72.3538H284.824ZM290.552 70.8623V70.1379L293.748 65.081H294.274V66.2032H293.919L291.504 70.0242V70.081H295.808V70.8623H290.552ZM293.976 72.3538V70.6421V70.3048V65.081H294.814V72.3538H293.976ZM299.411 72.4532C298.995 72.4532 298.62 72.3703 298.286 72.2046C297.952 72.0389 297.684 71.8116 297.483 71.5228C297.282 71.234 297.172 70.9049 297.153 70.5356H298.005C298.038 70.8646 298.187 71.1369 298.453 71.3523C298.72 71.5654 299.04 71.6719 299.411 71.6719C299.71 71.6719 299.975 71.6021 300.207 71.4624C300.441 71.3227 300.625 71.131 300.757 70.8871C300.892 70.6409 300.96 70.3628 300.96 70.0526C300.96 69.7354 300.89 69.4525 300.75 69.2039C300.613 68.953 300.424 68.7553 300.182 68.6109C299.941 68.4664 299.665 68.3931 299.355 68.3907C299.132 68.3883 298.904 68.4227 298.669 68.4937C298.435 68.5623 298.242 68.6511 298.09 68.76L297.267 68.6606L297.707 65.081H301.485V65.8623H298.446L298.19 68.0072H298.232C298.382 67.8888 298.569 67.7905 298.794 67.7124C299.018 67.6343 299.253 67.5952 299.497 67.5952C299.942 67.5952 300.338 67.7018 300.686 67.9148C301.037 68.1255 301.311 68.4144 301.51 68.7813C301.711 69.1483 301.812 69.5673 301.812 70.0384C301.812 70.5024 301.708 70.9167 301.5 71.2813C301.294 71.6435 301.009 71.93 300.647 72.1407C300.285 72.349 299.873 72.4532 299.411 72.4532Z" fill="black" fill-opacity="0.7"/>
<g opacity="0.2">
<rect opacity="0.7" x="332.857" y="30" width="35" height="160.5" fill="#8979FF"/>
<rect x="332.857" y="30" width="17.5" height="160.5" fill="white" fill-opacity="0.3"/>
<path d="M350.357 27L367.857 30L350.357 33L332.857 30L350.357 27Z" fill="#8979FF"/>
</g>
<rect opacity="0.7" x="332.857" y="105.133" width="35" height="86.0667" fill="#8979FF"/>
<rect x="332.857" y="105.133" width="17.5" height="85.5" fill="white" fill-opacity="0.3"/>
<path d="M350.357 102.133L367.857 105.133L350.357 108.133L332.857 105.133L350.357 102.133Z" fill="#8979FF"/>
<path d="M344.452 110.697V117.97H343.572V111.621H343.529L341.754 112.8V111.905L343.572 110.697H344.452ZM348.959 118.07C348.661 118.065 348.362 118.008 348.064 117.899C347.766 117.79 347.493 117.607 347.247 117.349C347.001 117.088 346.803 116.737 346.654 116.294C346.505 115.849 346.43 115.29 346.43 114.618C346.43 113.974 346.491 113.403 346.612 112.906C346.732 112.407 346.908 111.987 347.137 111.646C347.367 111.302 347.644 111.042 347.968 110.864C348.295 110.687 348.663 110.598 349.073 110.598C349.48 110.598 349.842 110.68 350.159 110.843C350.479 111.004 350.739 111.229 350.94 111.518C351.142 111.807 351.272 112.139 351.331 112.516H350.465C350.384 112.189 350.228 111.918 349.996 111.702C349.764 111.487 349.456 111.379 349.073 111.379C348.509 111.379 348.065 111.624 347.741 112.114C347.419 112.604 347.257 113.292 347.254 114.178H347.311C347.444 113.976 347.601 113.805 347.783 113.663C347.968 113.518 348.172 113.407 348.394 113.329C348.617 113.251 348.852 113.212 349.101 113.212C349.518 113.212 349.899 113.316 350.244 113.524C350.59 113.73 350.867 114.015 351.075 114.38C351.284 114.742 351.388 115.158 351.388 115.626C351.388 116.076 351.287 116.488 351.086 116.862C350.885 117.234 350.602 117.53 350.237 117.75C349.875 117.968 349.449 118.074 348.959 118.07ZM348.959 117.288C349.257 117.288 349.525 117.214 349.761 117.065C350.001 116.916 350.189 116.715 350.326 116.465C350.466 116.214 350.536 115.934 350.536 115.626C350.536 115.326 350.468 115.052 350.333 114.806C350.201 114.558 350.017 114.36 349.783 114.213C349.551 114.066 349.286 113.993 348.987 113.993C348.762 113.993 348.553 114.038 348.359 114.128C348.165 114.215 347.994 114.336 347.847 114.49C347.703 114.644 347.589 114.82 347.506 115.019C347.424 115.216 347.382 115.423 347.382 115.641C347.382 115.929 347.45 116.199 347.585 116.45C347.722 116.701 347.909 116.904 348.146 117.058C348.385 117.211 348.656 117.288 348.959 117.288ZM355.156 118.07C354.621 118.07 354.166 117.924 353.789 117.633C353.413 117.339 353.125 116.914 352.926 116.358C352.728 115.799 352.628 115.125 352.628 114.334C352.628 113.548 352.728 112.877 352.926 112.32C353.128 111.762 353.416 111.336 353.793 111.042C354.172 110.746 354.626 110.598 355.156 110.598C355.687 110.598 356.14 110.746 356.517 111.042C356.895 111.336 357.184 111.762 357.383 112.32C357.584 112.877 357.685 113.548 357.685 114.334C357.685 115.125 357.585 115.799 357.387 116.358C357.188 116.914 356.9 117.339 356.524 117.633C356.147 117.924 355.692 118.07 355.156 118.07ZM355.156 117.288C355.687 117.288 356.099 117.033 356.392 116.521C356.686 116.01 356.833 115.281 356.833 114.334C356.833 113.704 356.765 113.168 356.63 112.725C356.498 112.282 356.306 111.945 356.055 111.713C355.806 111.481 355.507 111.365 355.156 111.365C354.631 111.365 354.22 111.624 353.924 112.143C353.628 112.659 353.48 113.389 353.48 114.334C353.48 114.964 353.547 115.499 353.679 115.939C353.812 116.379 354.002 116.714 354.251 116.944C354.502 117.174 354.804 117.288 355.156 117.288Z" fill="black" fill-opacity="0.7"/>
<g opacity="0.2">
<rect opacity="0.7" x="389.429" y="30" width="35" height="160.5" fill="#8979FF"/>
<rect x="389.429" y="30" width="17.5" height="160.5" fill="white" fill-opacity="0.3"/>
<path d="M406.929 27L424.429 30L406.929 33L389.429 30L406.929 27Z" fill="#8979FF"/>
</g>
<rect opacity="0.7" x="389.429" y="164.167" width="35" height="26.8333" fill="#8979FF"/>
<rect x="389.429" y="164.167" width="17.5" height="26.5" fill="white" fill-opacity="0.3"/>
<path d="M406.929 161.167L424.429 164.167L406.929 167.167L389.429 164.167L406.929 161.167Z" fill="#8979FF"/>
<path d="M403.24 177.103C402.823 177.103 402.448 177.02 402.114 176.855C401.78 176.689 401.513 176.462 401.312 176.173C401.11 175.884 401 175.555 400.981 175.185H401.834C401.867 175.515 402.016 175.787 402.281 176.002C402.549 176.215 402.868 176.322 403.24 176.322C403.538 176.322 403.803 176.252 404.035 176.112C404.27 175.973 404.453 175.781 404.586 175.537C404.721 175.291 404.788 175.013 404.788 174.703C404.788 174.385 404.718 174.102 404.579 173.854C404.441 173.603 404.252 173.405 404.01 173.261C403.769 173.116 403.493 173.043 403.183 173.041C402.96 173.038 402.732 173.073 402.498 173.144C402.263 173.212 402.07 173.301 401.919 173.41L401.095 173.31L401.535 169.731H405.314V170.512H402.274L402.018 172.657H402.061C402.21 172.539 402.397 172.44 402.622 172.362C402.847 172.284 403.081 172.245 403.325 172.245C403.77 172.245 404.167 172.352 404.515 172.565C404.865 172.775 405.14 173.064 405.339 173.431C405.54 173.798 405.64 174.217 405.64 174.688C405.64 175.152 405.536 175.567 405.328 175.931C405.122 176.293 404.838 176.58 404.476 176.791C404.113 176.999 403.701 177.103 403.24 177.103ZM409.423 177.103C408.888 177.103 408.432 176.957 408.056 176.666C407.68 176.373 407.392 175.948 407.193 175.391C406.994 174.833 406.895 174.158 406.895 173.367C406.895 172.581 406.994 171.91 407.193 171.354C407.394 170.795 407.683 170.369 408.06 170.075C408.438 169.779 408.893 169.632 409.423 169.632C409.954 169.632 410.407 169.779 410.783 170.075C411.162 170.369 411.451 170.795 411.65 171.354C411.851 171.91 411.952 172.581 411.952 173.367C411.952 174.158 411.852 174.833 411.653 175.391C411.454 175.948 411.167 176.373 410.79 176.666C410.414 176.957 409.958 177.103 409.423 177.103ZM409.423 176.322C409.954 176.322 410.365 176.066 410.659 175.555C410.953 175.043 411.099 174.314 411.099 173.367C411.099 172.738 411.032 172.201 410.897 171.759C410.764 171.316 410.573 170.979 410.322 170.747C410.073 170.515 409.774 170.399 409.423 170.399C408.898 170.399 408.487 170.658 408.191 171.176C407.895 171.692 407.747 172.423 407.747 173.367C407.747 173.997 407.813 174.532 407.946 174.972C408.079 175.413 408.269 175.748 408.518 175.977C408.769 176.207 409.07 176.322 409.423 176.322Z" fill="black" fill-opacity="0.7"/>
<path d="M59.0964 208V199.273H60.1533V203.159H64.8067V199.273H65.8635V208H64.8067V204.097H60.1533V208H59.0964ZM69.769 208.153C69.3543 208.153 68.9778 208.075 68.6398 207.919C68.3017 207.76 68.0332 207.531 67.8344 207.233C67.6355 206.932 67.5361 206.568 67.5361 206.142C67.5361 205.767 67.6099 205.463 67.7577 205.23C67.9054 204.994 68.1028 204.81 68.35 204.676C68.5971 204.543 68.8699 204.443 69.1682 204.378C69.4693 204.31 69.7719 204.256 70.0758 204.216C70.4736 204.165 70.796 204.126 71.0432 204.101C71.2932 204.072 71.475 204.026 71.5886 203.96C71.7051 203.895 71.7633 203.781 71.7633 203.619V203.585C71.7633 203.165 71.6483 202.838 71.4182 202.605C71.1909 202.372 70.8457 202.256 70.3827 202.256C69.9025 202.256 69.5261 202.361 69.2534 202.571C68.9807 202.781 68.7889 203.006 68.6781 203.244L67.7236 202.903C67.894 202.506 68.1213 202.196 68.4054 201.974C68.6923 201.75 69.0048 201.594 69.3429 201.506C69.6838 201.415 70.019 201.369 70.3486 201.369C70.5588 201.369 70.8003 201.395 71.073 201.446C71.3486 201.494 71.6142 201.595 71.8699 201.749C72.1284 201.902 72.3429 202.134 72.5133 202.443C72.6838 202.753 72.769 203.168 72.769 203.688V208H71.7633V207.114H71.7122C71.644 207.256 71.5304 207.408 71.3713 207.57C71.2122 207.732 71.0006 207.869 70.7364 207.983C70.4721 208.097 70.1497 208.153 69.769 208.153ZM69.9224 207.25C70.3202 207.25 70.6554 207.172 70.9281 207.016C71.2037 206.859 71.4111 206.658 71.5503 206.411C71.6923 206.163 71.7633 205.903 71.7633 205.631V204.71C71.7207 204.761 71.627 204.808 71.4821 204.851C71.34 204.891 71.1753 204.926 70.9878 204.957C70.8031 204.986 70.6227 205.011 70.4466 205.034C70.2733 205.054 70.1327 205.071 70.0247 205.085C69.7633 205.119 69.519 205.175 69.2918 205.251C69.0673 205.325 68.8855 205.437 68.7463 205.588C68.6099 205.736 68.5418 205.937 68.5418 206.193C68.5418 206.543 68.671 206.807 68.9295 206.986C69.1909 207.162 69.5219 207.25 69.9224 207.25ZM74.6046 208V201.455H75.6103V208H74.6046ZM75.116 200.364C74.9199 200.364 74.7509 200.297 74.6089 200.163C74.4697 200.03 74.4001 199.869 74.4001 199.682C74.4001 199.494 74.4697 199.334 74.6089 199.2C74.7509 199.067 74.9199 199 75.116 199C75.312 199 75.4796 199.067 75.6188 199.2C75.7609 199.334 75.8319 199.494 75.8319 199.682C75.8319 199.869 75.7609 200.03 75.6188 200.163C75.4796 200.297 75.312 200.364 75.116 200.364Z" fill="black" fill-opacity="0.7"/>
<path d="M117.631 208V199.273H120.682C121.29 199.273 121.791 199.378 122.186 199.588C122.581 199.795 122.875 200.075 123.068 200.428C123.261 200.777 123.358 201.165 123.358 201.591C123.358 201.966 123.291 202.276 123.158 202.52C123.027 202.764 122.854 202.957 122.638 203.099C122.425 203.241 122.193 203.347 121.943 203.415V203.5C122.21 203.517 122.479 203.611 122.749 203.781C123.019 203.952 123.244 204.196 123.426 204.514C123.608 204.832 123.699 205.222 123.699 205.682C123.699 206.119 123.599 206.513 123.401 206.862C123.202 207.212 122.888 207.489 122.459 207.693C122.03 207.898 121.472 208 120.784 208H117.631ZM118.688 207.062H120.784C121.474 207.062 121.965 206.929 122.254 206.662C122.547 206.392 122.693 206.065 122.693 205.682C122.693 205.386 122.618 205.114 122.467 204.864C122.317 204.611 122.102 204.409 121.824 204.259C121.546 204.105 121.216 204.028 120.835 204.028H118.688V207.062ZM118.688 203.108H120.648C120.966 203.108 121.253 203.045 121.509 202.92C121.767 202.795 121.972 202.619 122.122 202.392C122.276 202.165 122.352 201.898 122.352 201.591C122.352 201.207 122.219 200.882 121.952 200.615C121.685 200.345 121.261 200.21 120.682 200.21H118.688V203.108ZM127.225 208.153C126.81 208.153 126.434 208.075 126.096 207.919C125.758 207.76 125.489 207.531 125.291 207.233C125.092 206.932 124.992 206.568 124.992 206.142C124.992 205.767 125.066 205.463 125.214 205.23C125.362 204.994 125.559 204.81 125.806 204.676C126.053 204.543 126.326 204.443 126.624 204.378C126.925 204.31 127.228 204.256 127.532 204.216C127.93 204.165 128.252 204.126 128.499 204.101C128.749 204.072 128.931 204.026 129.045 203.96C129.161 203.895 129.22 203.781 129.22 203.619V203.585C129.22 203.165 129.104 202.838 128.874 202.605C128.647 202.372 128.302 202.256 127.839 202.256C127.359 202.256 126.982 202.361 126.71 202.571C126.437 202.781 126.245 203.006 126.134 203.244L125.18 202.903C125.35 202.506 125.577 202.196 125.862 201.974C126.148 201.75 126.461 201.594 126.799 201.506C127.14 201.415 127.475 201.369 127.805 201.369C128.015 201.369 128.256 201.395 128.529 201.446C128.805 201.494 129.07 201.595 129.326 201.749C129.585 201.902 129.799 202.134 129.97 202.443C130.14 202.753 130.225 203.168 130.225 203.688V208H129.22V207.114H129.168C129.1 207.256 128.987 207.408 128.827 207.57C128.668 207.732 128.457 207.869 128.193 207.983C127.928 208.097 127.606 208.153 127.225 208.153ZM127.379 207.25C127.776 207.25 128.112 207.172 128.384 207.016C128.66 206.859 128.867 206.658 129.006 206.411C129.148 206.163 129.22 205.903 129.22 205.631V204.71C129.177 204.761 129.083 204.808 128.938 204.851C128.796 204.891 128.631 204.926 128.444 204.957C128.259 204.986 128.079 205.011 127.903 205.034C127.729 205.054 127.589 205.071 127.481 205.085C127.22 205.119 126.975 205.175 126.748 205.251C126.523 205.325 126.342 205.437 126.202 205.588C126.066 205.736 125.998 205.937 125.998 206.193C125.998 206.543 126.127 206.807 126.386 206.986C126.647 207.162 126.978 207.25 127.379 207.25Z" fill="black" fill-opacity="0.7"/>
<path d="M173.871 200.21V199.273H180.417V200.21H177.673V208H176.616V200.21H173.871ZM186.919 201.165H187.805C187.805 201.597 187.748 201.959 187.635 202.251C187.521 202.541 187.322 202.76 187.038 202.908C186.754 203.053 186.356 203.125 185.845 203.125V202.426C186.197 202.426 186.447 202.384 186.595 202.298C186.745 202.21 186.836 202.074 186.867 201.889C186.902 201.702 186.919 201.46 186.919 201.165ZM185.146 205.324V201.455H186.152V208H185.146V206.892H185.078C184.924 207.224 184.686 207.507 184.362 207.74C184.038 207.97 183.629 208.085 183.135 208.085C182.725 208.085 182.362 207.996 182.044 207.817C181.725 207.635 181.475 207.362 181.294 206.999C181.112 206.632 181.021 206.17 181.021 205.614V201.455H182.027V205.545C182.027 206.023 182.16 206.403 182.427 206.688C182.697 206.972 183.041 207.114 183.458 207.114C183.708 207.114 183.963 207.05 184.221 206.922C184.483 206.794 184.701 206.598 184.877 206.334C185.056 206.07 185.146 205.733 185.146 205.324Z" fill="black" fill-opacity="0.7"/>
<path d="M231.864 199.273V208H230.841L226.086 201.148H226V208H224.944V199.273H225.966L230.739 206.142H230.824V199.273H231.864ZM235.768 208.153C235.354 208.153 234.977 208.075 234.639 207.919C234.301 207.76 234.033 207.531 233.834 207.233C233.635 206.932 233.536 206.568 233.536 206.142C233.536 205.767 233.609 205.463 233.757 205.23C233.905 204.994 234.102 204.81 234.349 204.676C234.597 204.543 234.869 204.443 235.168 204.378C235.469 204.31 235.771 204.256 236.075 204.216C236.473 204.165 236.795 204.126 237.043 204.101C237.293 204.072 237.474 204.026 237.588 203.96C237.705 203.895 237.763 203.781 237.763 203.619V203.585C237.763 203.165 237.648 202.838 237.418 202.605C237.19 202.372 236.845 202.256 236.382 202.256C235.902 202.256 235.526 202.361 235.253 202.571C234.98 202.781 234.788 203.006 234.678 203.244L233.723 202.903C233.893 202.506 234.121 202.196 234.405 201.974C234.692 201.75 235.004 201.594 235.342 201.506C235.683 201.415 236.018 201.369 236.348 201.369C236.558 201.369 236.8 201.395 237.072 201.446C237.348 201.494 237.614 201.595 237.869 201.749C238.128 201.902 238.342 202.134 238.513 202.443C238.683 202.753 238.768 203.168 238.768 203.688V208H237.763V207.114H237.712C237.643 207.256 237.53 207.408 237.371 207.57C237.212 207.732 237 207.869 236.736 207.983C236.472 208.097 236.149 208.153 235.768 208.153ZM235.922 207.25C236.32 207.25 236.655 207.172 236.928 207.016C237.203 206.859 237.411 206.658 237.55 206.411C237.692 206.163 237.763 205.903 237.763 205.631V204.71C237.72 204.761 237.626 204.808 237.482 204.851C237.339 204.891 237.175 204.926 236.987 204.957C236.803 204.986 236.622 205.011 236.446 205.034C236.273 205.054 236.132 205.071 236.024 205.085C235.763 205.119 235.518 205.175 235.291 205.251C235.067 205.325 234.885 205.437 234.746 205.588C234.609 205.736 234.541 205.937 234.541 206.193C234.541 206.543 234.67 206.807 234.929 206.986C235.19 207.162 235.521 207.25 235.922 207.25ZM237.251 199.273H238.189C238.189 199.733 238.03 200.109 237.712 200.402C237.393 200.695 236.962 200.841 236.416 200.841C235.879 200.841 235.452 200.695 235.134 200.402C234.818 200.109 234.661 199.733 234.661 199.273H235.598C235.598 199.494 235.659 199.689 235.781 199.857C235.906 200.024 236.118 200.108 236.416 200.108C236.714 200.108 236.928 200.024 237.055 199.857C237.186 199.689 237.251 199.494 237.251 199.273ZM240.604 208V201.455H241.576V202.477H241.661C241.797 202.128 242.017 201.857 242.321 201.663C242.625 201.467 242.99 201.369 243.417 201.369C243.848 201.369 244.208 201.467 244.495 201.663C244.784 201.857 245.01 202.128 245.172 202.477H245.24C245.408 202.139 245.659 201.871 245.995 201.672C246.33 201.47 246.732 201.369 247.201 201.369C247.786 201.369 248.265 201.553 248.637 201.919C249.009 202.283 249.195 202.849 249.195 203.619V208H248.189V203.619C248.189 203.136 248.057 202.791 247.793 202.584C247.529 202.376 247.218 202.273 246.86 202.273C246.399 202.273 246.043 202.412 245.79 202.69C245.537 202.966 245.411 203.315 245.411 203.739V208H244.388V203.517C244.388 203.145 244.267 202.845 244.026 202.618C243.784 202.388 243.473 202.273 243.093 202.273C242.831 202.273 242.587 202.342 242.36 202.482C242.135 202.621 241.953 202.814 241.814 203.061C241.678 203.305 241.61 203.588 241.61 203.909V208H240.604Z" fill="black" fill-opacity="0.7"/>
<path d="M288.708 201.455C288.656 201.023 288.449 200.688 288.085 200.449C287.722 200.21 287.276 200.091 286.747 200.091C286.361 200.091 286.023 200.153 285.733 200.278C285.446 200.403 285.222 200.575 285.06 200.794C284.901 201.013 284.821 201.261 284.821 201.54C284.821 201.773 284.877 201.973 284.987 202.141C285.101 202.305 285.246 202.443 285.422 202.554C285.598 202.662 285.783 202.751 285.976 202.822C286.169 202.891 286.347 202.946 286.509 202.989L287.395 203.227C287.622 203.287 287.875 203.369 288.154 203.474C288.435 203.58 288.703 203.723 288.959 203.905C289.218 204.084 289.431 204.314 289.598 204.595C289.766 204.876 289.85 205.222 289.85 205.631C289.85 206.102 289.726 206.528 289.479 206.909C289.235 207.29 288.877 207.592 288.405 207.817C287.936 208.041 287.367 208.153 286.696 208.153C286.071 208.153 285.53 208.053 285.073 207.851C284.618 207.649 284.26 207.368 283.999 207.007C283.74 206.646 283.594 206.227 283.56 205.75H284.651C284.679 206.08 284.79 206.352 284.983 206.568C285.179 206.781 285.426 206.94 285.725 207.045C286.026 207.148 286.35 207.199 286.696 207.199C287.1 207.199 287.462 207.134 287.783 207.003C288.104 206.869 288.358 206.685 288.546 206.449C288.733 206.21 288.827 205.932 288.827 205.614C288.827 205.324 288.746 205.088 288.584 204.906C288.422 204.724 288.209 204.577 287.945 204.463C287.681 204.349 287.395 204.25 287.088 204.165L286.014 203.858C285.333 203.662 284.793 203.382 284.395 203.018C283.997 202.655 283.799 202.179 283.799 201.591C283.799 201.102 283.931 200.676 284.195 200.312C284.462 199.946 284.82 199.662 285.269 199.46C285.72 199.256 286.225 199.153 286.781 199.153C287.344 199.153 287.844 199.254 288.281 199.456C288.719 199.655 289.066 199.928 289.321 200.274C289.58 200.621 289.716 201.014 289.73 201.455H288.708ZM293.377 208.153C292.962 208.153 292.586 208.075 292.248 207.919C291.91 207.76 291.641 207.531 291.442 207.233C291.243 206.932 291.144 206.568 291.144 206.142C291.144 205.767 291.218 205.463 291.366 205.23C291.513 204.994 291.711 204.81 291.958 204.676C292.205 204.543 292.478 204.443 292.776 204.378C293.077 204.31 293.38 204.256 293.684 204.216C294.082 204.165 294.404 204.126 294.651 204.101C294.901 204.072 295.083 204.026 295.197 203.96C295.313 203.895 295.371 203.781 295.371 203.619V203.585C295.371 203.165 295.256 202.838 295.026 202.605C294.799 202.372 294.454 202.256 293.991 202.256C293.511 202.256 293.134 202.361 292.861 202.571C292.589 202.781 292.397 203.006 292.286 203.244L291.332 202.903C291.502 202.506 291.729 202.196 292.013 201.974C292.3 201.75 292.613 201.594 292.951 201.506C293.292 201.415 293.627 201.369 293.957 201.369C294.167 201.369 294.408 201.395 294.681 201.446C294.957 201.494 295.222 201.595 295.478 201.749C295.736 201.902 295.951 202.134 296.121 202.443C296.292 202.753 296.377 203.168 296.377 203.688V208H295.371V207.114H295.32C295.252 207.256 295.138 207.408 294.979 207.57C294.82 207.732 294.609 207.869 294.344 207.983C294.08 208.097 293.758 208.153 293.377 208.153ZM293.53 207.25C293.928 207.25 294.263 207.172 294.536 207.016C294.812 206.859 295.019 206.658 295.158 206.411C295.3 206.163 295.371 205.903 295.371 205.631V204.71C295.329 204.761 295.235 204.808 295.09 204.851C294.948 204.891 294.783 204.926 294.596 204.957C294.411 204.986 294.231 205.011 294.055 205.034C293.881 205.054 293.741 205.071 293.633 205.085C293.371 205.119 293.127 205.175 292.9 205.251C292.675 205.325 292.493 205.437 292.354 205.588C292.218 205.736 292.15 205.937 292.15 206.193C292.15 206.543 292.279 206.807 292.538 206.986C292.799 207.162 293.13 207.25 293.53 207.25ZM293.564 200.568L294.604 198.591H295.78L294.451 200.568H293.564ZM302.338 205.324V201.455H303.343V208H302.338V206.892H302.269C302.116 207.224 301.877 207.507 301.553 207.74C301.23 207.97 300.821 208.085 300.326 208.085C299.917 208.085 299.553 207.996 299.235 207.817C298.917 207.635 298.667 207.362 298.485 206.999C298.303 206.632 298.213 206.17 298.213 205.614V201.455H299.218V205.545C299.218 206.023 299.352 206.403 299.619 206.688C299.889 206.972 300.232 207.114 300.65 207.114C300.9 207.114 301.154 207.05 301.413 206.922C301.674 206.794 301.893 206.598 302.069 206.334C302.248 206.07 302.338 205.733 302.338 205.324Z" fill="black" fill-opacity="0.7"/>
<path d="M340.694 208V199.273H343.745C344.353 199.273 344.854 199.378 345.249 199.588C345.644 199.795 345.938 200.075 346.131 200.428C346.324 200.777 346.421 201.165 346.421 201.591C346.421 201.966 346.354 202.276 346.221 202.52C346.09 202.764 345.917 202.957 345.701 203.099C345.488 203.241 345.256 203.347 345.006 203.415V203.5C345.273 203.517 345.542 203.611 345.812 203.781C346.082 203.952 346.307 204.196 346.489 204.514C346.671 204.832 346.762 205.222 346.762 205.682C346.762 206.119 346.663 206.513 346.464 206.862C346.265 207.212 345.951 207.489 345.522 207.693C345.093 207.898 344.535 208 343.847 208H340.694ZM341.751 207.062H343.847C344.538 207.062 345.028 206.929 345.317 206.662C345.61 206.392 345.756 206.065 345.756 205.682C345.756 205.386 345.681 205.114 345.53 204.864C345.38 204.611 345.165 204.409 344.887 204.259C344.609 204.105 344.279 204.028 343.898 204.028H341.751V207.062ZM341.751 203.108H343.711C344.029 203.108 344.316 203.045 344.572 202.92C344.83 202.795 345.035 202.619 345.185 202.392C345.339 202.165 345.415 201.898 345.415 201.591C345.415 201.207 345.282 200.882 345.015 200.615C344.748 200.345 344.324 200.21 343.745 200.21H341.751V203.108ZM350.288 208.153C349.873 208.153 349.497 208.075 349.159 207.919C348.821 207.76 348.552 207.531 348.354 207.233C348.155 206.932 348.055 206.568 348.055 206.142C348.055 205.767 348.129 205.463 348.277 205.23C348.425 204.994 348.622 204.81 348.869 204.676C349.116 204.543 349.389 204.443 349.687 204.378C349.989 204.31 350.291 204.256 350.595 204.216C350.993 204.165 351.315 204.126 351.562 204.101C351.812 204.072 351.994 204.026 352.108 203.96C352.224 203.895 352.283 203.781 352.283 203.619V203.585C352.283 203.165 352.168 202.838 351.937 202.605C351.71 202.372 351.365 202.256 350.902 202.256C350.422 202.256 350.045 202.361 349.773 202.571C349.5 202.781 349.308 203.006 349.197 203.244L348.243 202.903C348.413 202.506 348.641 202.196 348.925 201.974C349.212 201.75 349.524 201.594 349.862 201.506C350.203 201.415 350.538 201.369 350.868 201.369C351.078 201.369 351.319 201.395 351.592 201.446C351.868 201.494 352.133 201.595 352.389 201.749C352.648 201.902 352.862 202.134 353.033 202.443C353.203 202.753 353.288 203.168 353.288 203.688V208H352.283V207.114H352.231C352.163 207.256 352.05 207.408 351.891 207.57C351.731 207.732 351.52 207.869 351.256 207.983C350.991 208.097 350.669 208.153 350.288 208.153ZM350.442 207.25C350.839 207.25 351.175 207.172 351.447 207.016C351.723 206.859 351.93 206.658 352.069 206.411C352.212 206.163 352.283 205.903 352.283 205.631V204.71C352.24 204.761 352.146 204.808 352.001 204.851C351.859 204.891 351.694 204.926 351.507 204.957C351.322 204.986 351.142 205.011 350.966 205.034C350.793 205.054 350.652 205.071 350.544 205.085C350.283 205.119 350.038 205.175 349.811 205.251C349.587 205.325 349.405 205.437 349.266 205.588C349.129 205.736 349.061 205.937 349.061 206.193C349.061 206.543 349.19 206.807 349.449 206.986C349.71 207.162 350.041 207.25 350.442 207.25ZM351.379 200.568H350.544V199.648C350.842 199.631 351.052 199.589 351.175 199.524C351.3 199.459 351.362 199.358 351.362 199.222C351.362 199.068 351.273 198.956 351.094 198.885C350.915 198.814 350.697 198.778 350.442 198.778L350.476 198.131C351.064 198.131 351.508 198.233 351.81 198.438C352.114 198.642 352.266 198.915 352.266 199.256C352.266 199.545 352.173 199.757 351.989 199.891C351.804 200.024 351.601 200.108 351.379 200.142V200.568ZM355.537 210.455C355.367 210.455 355.215 210.44 355.081 210.412C354.948 210.386 354.855 210.361 354.804 210.335L355.06 209.449C355.304 209.511 355.52 209.534 355.708 209.517C355.895 209.5 356.061 209.416 356.206 209.266C356.354 209.118 356.489 208.878 356.611 208.545L356.799 208.034L354.378 201.455H355.469L357.276 206.67H357.344L359.151 201.455H360.242L357.463 208.955C357.338 209.293 357.183 209.572 356.999 209.794C356.814 210.018 356.6 210.185 356.355 210.293C356.114 210.401 355.841 210.455 355.537 210.455Z" fill="black" fill-opacity="0.7"/>
<path d="M388.087 202H387.03C386.967 201.696 386.858 201.429 386.702 201.199C386.548 200.969 386.361 200.776 386.139 200.619C385.921 200.46 385.678 200.341 385.411 200.261C385.144 200.182 384.865 200.142 384.575 200.142C384.047 200.142 383.568 200.276 383.139 200.543C382.713 200.81 382.374 201.203 382.121 201.723C381.871 202.243 381.746 202.881 381.746 203.636C381.746 204.392 381.871 205.03 382.121 205.55C382.374 206.07 382.713 206.463 383.139 206.73C383.568 206.997 384.047 207.131 384.575 207.131C384.865 207.131 385.144 207.091 385.411 207.011C385.678 206.932 385.921 206.814 386.139 206.658C386.361 206.499 386.548 206.304 386.702 206.074C386.858 205.841 386.967 205.574 387.03 205.273H388.087C388.007 205.719 387.862 206.118 387.652 206.47C387.442 206.822 387.181 207.122 386.868 207.369C386.556 207.614 386.205 207.8 385.815 207.928C385.429 208.055 385.016 208.119 384.575 208.119C383.831 208.119 383.169 207.938 382.59 207.574C382.01 207.21 381.554 206.693 381.222 206.023C380.889 205.352 380.723 204.557 380.723 203.636C380.723 202.716 380.889 201.92 381.222 201.25C381.554 200.58 382.01 200.062 382.59 199.699C383.169 199.335 383.831 199.153 384.575 199.153C385.016 199.153 385.429 199.217 385.815 199.345C386.205 199.473 386.556 199.661 386.868 199.908C387.181 200.152 387.442 200.45 387.652 200.803C387.862 201.152 388.007 201.551 388.087 202ZM390.664 204.062V208H389.658V199.273H390.664V202.477H390.749C390.902 202.139 391.133 201.871 391.439 201.672C391.749 201.47 392.161 201.369 392.675 201.369C393.121 201.369 393.512 201.459 393.847 201.638C394.182 201.814 394.442 202.085 394.627 202.452C394.814 202.815 394.908 203.278 394.908 203.841V208H393.902V203.909C393.902 203.389 393.768 202.987 393.498 202.703C393.231 202.416 392.86 202.273 392.385 202.273C392.056 202.273 391.76 202.342 391.499 202.482C391.241 202.621 391.036 202.824 390.885 203.091C390.738 203.358 390.664 203.682 390.664 204.062ZM400.873 205.324V201.455H401.879V208H400.873V206.892H400.805C400.651 207.224 400.413 207.507 400.089 207.74C399.765 207.97 399.356 208.085 398.862 208.085C398.453 208.085 398.089 207.996 397.771 207.817C397.453 207.635 397.203 207.362 397.021 206.999C396.839 206.632 396.748 206.17 396.748 205.614V201.455H397.754V205.545C397.754 206.023 397.887 206.403 398.154 206.688C398.424 206.972 398.768 207.114 399.185 207.114C399.435 207.114 399.69 207.05 399.948 206.922C400.21 206.794 400.428 206.598 400.605 206.334C400.783 206.07 400.873 205.733 400.873 205.324ZM399.765 200.568H398.93V199.648C399.228 199.631 399.438 199.589 399.56 199.524C399.685 199.459 399.748 199.358 399.748 199.222C399.748 199.068 399.658 198.956 399.48 198.885C399.301 198.814 399.083 198.778 398.828 198.778L398.862 198.131C399.45 198.131 399.894 198.233 400.195 198.438C400.499 198.642 400.651 198.915 400.651 199.256C400.651 199.545 400.559 199.757 400.374 199.891C400.19 200.024 399.987 200.108 399.765 200.142V200.568ZM414.152 199.273V208H413.13L408.374 201.148H408.289V208H407.232V199.273H408.255L413.027 206.142H413.113V199.273H414.152ZM417.136 204.062V208H416.131V199.273H417.136V202.477H417.222C417.375 202.139 417.605 201.871 417.912 201.672C418.222 201.47 418.634 201.369 419.148 201.369C419.594 201.369 419.984 201.459 420.32 201.638C420.655 201.814 420.915 202.085 421.1 202.452C421.287 202.815 421.381 203.278 421.381 203.841V208H420.375V203.909C420.375 203.389 420.24 202.987 419.97 202.703C419.703 202.416 419.332 202.273 418.858 202.273C418.529 202.273 418.233 202.342 417.972 202.482C417.713 202.621 417.509 202.824 417.358 203.091C417.21 203.358 417.136 203.682 417.136 204.062ZM425.147 208.153C424.732 208.153 424.356 208.075 424.018 207.919C423.679 207.76 423.411 207.531 423.212 207.233C423.013 206.932 422.914 206.568 422.914 206.142C422.914 205.767 422.988 205.463 423.135 205.23C423.283 204.994 423.481 204.81 423.728 204.676C423.975 204.543 424.248 204.443 424.546 204.378C424.847 204.31 425.15 204.256 425.454 204.216C425.851 204.165 426.174 204.126 426.421 204.101C426.671 204.072 426.853 204.026 426.966 203.96C427.083 203.895 427.141 203.781 427.141 203.619V203.585C427.141 203.165 427.026 202.838 426.796 202.605C426.569 202.372 426.223 202.256 425.76 202.256C425.28 202.256 424.904 202.361 424.631 202.571C424.358 202.781 424.167 203.006 424.056 203.244L423.101 202.903C423.272 202.506 423.499 202.196 423.783 201.974C424.07 201.75 424.383 201.594 424.721 201.506C425.062 201.415 425.397 201.369 425.726 201.369C425.937 201.369 426.178 201.395 426.451 201.446C426.726 201.494 426.992 201.595 427.248 201.749C427.506 201.902 427.721 202.134 427.891 202.443C428.062 202.753 428.147 203.168 428.147 203.688V208H427.141V207.114H427.09C427.022 207.256 426.908 207.408 426.749 207.57C426.59 207.732 426.378 207.869 426.114 207.983C425.85 208.097 425.527 208.153 425.147 208.153ZM425.3 207.25C425.698 207.25 426.033 207.172 426.306 207.016C426.581 206.859 426.789 206.658 426.928 206.411C427.07 206.163 427.141 205.903 427.141 205.631V204.71C427.098 204.761 427.005 204.808 426.86 204.851C426.718 204.891 426.553 204.926 426.366 204.957C426.181 204.986 426 205.011 425.824 205.034C425.651 205.054 425.51 205.071 425.402 205.085C425.141 205.119 424.897 205.175 424.669 205.251C424.445 205.325 424.263 205.437 424.124 205.588C423.988 205.736 423.919 205.937 423.919 206.193C423.919 206.543 424.049 206.807 424.307 206.986C424.569 207.162 424.9 207.25 425.3 207.25ZM426.681 200.67L425.794 199.477L424.908 200.67H423.954V200.602L425.334 198.83H426.255L427.635 200.602V200.67H426.681ZM425.743 210.165C425.547 210.165 425.378 210.098 425.236 209.964C425.097 209.831 425.027 209.67 425.027 209.483C425.027 209.295 425.097 209.135 425.236 209.001C425.378 208.868 425.547 208.801 425.743 208.801C425.939 208.801 426.107 208.868 426.246 209.001C426.388 209.135 426.459 209.295 426.459 209.483C426.459 209.67 426.388 209.831 426.246 209.964C426.107 210.098 425.939 210.165 425.743 210.165ZM432.829 201.455V202.307H429.437V201.455H432.829ZM430.426 199.886H431.431V206.125C431.431 206.409 431.472 206.622 431.555 206.764C431.64 206.903 431.748 206.997 431.879 207.045C432.012 207.091 432.153 207.114 432.301 207.114C432.411 207.114 432.502 207.108 432.573 207.097C432.644 207.082 432.701 207.071 432.744 207.062L432.948 207.966C432.88 207.991 432.785 208.017 432.663 208.043C432.541 208.071 432.386 208.085 432.198 208.085C431.914 208.085 431.636 208.024 431.363 207.902C431.093 207.78 430.869 207.594 430.69 207.344C430.514 207.094 430.426 206.778 430.426 206.398V199.886Z" fill="black" fill-opacity="0.7"/>
<rect x="148.5" y="227.5" width="7" height="7" fill="#8979FF" stroke="white"/>
<path d="M164.903 235.5V234.733L167.784 231.58C168.122 231.21 168.401 230.889 168.619 230.616C168.838 230.341 169 230.082 169.105 229.841C169.213 229.597 169.267 229.341 169.267 229.074C169.267 228.767 169.193 228.501 169.045 228.277C168.901 228.053 168.702 227.879 168.449 227.757C168.196 227.635 167.912 227.574 167.597 227.574C167.261 227.574 166.969 227.643 166.719 227.783C166.472 227.919 166.28 228.111 166.143 228.358C166.01 228.605 165.943 228.895 165.943 229.227H164.938C164.938 228.716 165.055 228.267 165.291 227.881C165.527 227.494 165.848 227.193 166.254 226.977C166.663 226.761 167.122 226.653 167.631 226.653C168.142 226.653 168.595 226.761 168.99 226.977C169.385 227.193 169.695 227.484 169.919 227.851C170.143 228.217 170.256 228.625 170.256 229.074C170.256 229.395 170.197 229.709 170.081 230.016C169.967 230.32 169.768 230.659 169.484 231.034C169.203 231.406 168.812 231.861 168.312 232.398L166.352 234.494V234.562H170.409V235.5H164.903ZM175.237 226.773V235.5H174.18V227.881H174.129L171.999 229.295V228.222L174.18 226.773H175.237ZM180.849 226.364L178.037 236.812H177.116L179.929 226.364H180.849ZM185.093 226.773V235.5H184.036V227.881H183.985L181.854 229.295V228.222L184.036 226.773H185.093ZM190.449 235.619C189.807 235.619 189.26 235.445 188.809 235.095C188.357 234.743 188.012 234.233 187.773 233.565C187.534 232.895 187.415 232.085 187.415 231.136C187.415 230.193 187.534 229.388 187.773 228.72C188.015 228.05 188.361 227.538 188.813 227.186C189.267 226.831 189.813 226.653 190.449 226.653C191.086 226.653 191.63 226.831 192.081 227.186C192.536 227.538 192.882 228.05 193.121 228.72C193.363 229.388 193.483 230.193 193.483 231.136C193.483 232.085 193.364 232.895 193.125 233.565C192.887 234.233 192.542 234.743 192.09 235.095C191.638 235.445 191.091 235.619 190.449 235.619ZM190.449 234.682C191.086 234.682 191.58 234.375 191.932 233.761C192.284 233.148 192.461 232.273 192.461 231.136C192.461 230.381 192.38 229.737 192.218 229.206C192.059 228.675 191.828 228.27 191.527 227.991C191.229 227.713 190.87 227.574 190.449 227.574C189.819 227.574 189.326 227.885 188.971 228.507C188.615 229.126 188.438 230.003 188.438 231.136C188.438 231.892 188.517 232.534 188.676 233.062C188.836 233.591 189.064 233.993 189.363 234.268C189.664 234.544 190.026 234.682 190.449 234.682ZM198.205 226.364L195.392 236.812H194.472L197.284 226.364H198.205ZM199.38 235.5V234.733L202.261 231.58C202.599 231.21 202.877 230.889 203.096 230.616C203.315 230.341 203.477 230.082 203.582 229.841C203.69 229.597 203.744 229.341 203.744 229.074C203.744 228.767 203.67 228.501 203.522 228.277C203.377 228.053 203.178 227.879 202.925 227.757C202.673 227.635 202.388 227.574 202.073 227.574C201.738 227.574 201.445 227.643 201.195 227.783C200.948 227.919 200.756 228.111 200.62 228.358C200.487 228.605 200.42 228.895 200.42 229.227H199.414C199.414 228.716 199.532 228.267 199.768 227.881C200.004 227.494 200.325 227.193 200.731 226.977C201.14 226.761 201.599 226.653 202.107 226.653C202.619 226.653 203.072 226.761 203.467 226.977C203.862 227.193 204.171 227.484 204.396 227.851C204.62 228.217 204.732 228.625 204.732 229.074C204.732 229.395 204.674 229.709 204.558 230.016C204.444 230.32 204.245 230.659 203.961 231.034C203.68 231.406 203.289 231.861 202.789 232.398L200.829 234.494V234.562H204.886V235.5H199.38ZM209.492 235.619C208.85 235.619 208.303 235.445 207.852 235.095C207.4 234.743 207.055 234.233 206.816 233.565C206.577 232.895 206.458 232.085 206.458 231.136C206.458 230.193 206.577 229.388 206.816 228.72C207.058 228.05 207.404 227.538 207.856 227.186C208.31 226.831 208.856 226.653 209.492 226.653C210.129 226.653 210.673 226.831 211.124 227.186C211.579 227.538 211.925 228.05 212.164 228.72C212.406 229.388 212.526 230.193 212.526 231.136C212.526 232.085 212.407 232.895 212.168 233.565C211.93 234.233 211.585 234.743 211.133 235.095C210.681 235.445 210.134 235.619 209.492 235.619ZM209.492 234.682C210.129 234.682 210.623 234.375 210.975 233.761C211.327 233.148 211.504 232.273 211.504 231.136C211.504 230.381 211.423 229.737 211.261 229.206C211.102 228.675 210.871 228.27 210.57 227.991C210.272 227.713 209.913 227.574 209.492 227.574C208.862 227.574 208.369 227.885 208.013 228.507C207.658 229.126 207.481 230.003 207.481 231.136C207.481 231.892 207.56 232.534 207.719 233.062C207.879 233.591 208.107 233.993 208.406 234.268C208.707 234.544 209.069 234.682 209.492 234.682ZM214.146 235.5V234.733L217.026 231.58C217.364 231.21 217.643 230.889 217.862 230.616C218.08 230.341 218.242 230.082 218.347 229.841C218.455 229.597 218.509 229.341 218.509 229.074C218.509 228.767 218.435 228.501 218.288 228.277C218.143 228.053 217.944 227.879 217.691 227.757C217.438 227.635 217.154 227.574 216.839 227.574C216.504 227.574 216.211 227.643 215.961 227.783C215.714 227.919 215.522 228.111 215.386 228.358C215.252 228.605 215.185 228.895 215.185 229.227H214.18C214.18 228.716 214.298 228.267 214.533 227.881C214.769 227.494 215.09 227.193 215.496 226.977C215.906 226.761 216.364 226.653 216.873 226.653C217.384 226.653 217.837 226.761 218.232 226.977C218.627 227.193 218.937 227.484 219.161 227.851C219.386 228.217 219.498 228.625 219.498 229.074C219.498 229.395 219.44 229.709 219.323 230.016C219.21 230.32 219.011 230.659 218.727 231.034C218.445 231.406 218.055 231.861 217.555 232.398L215.594 234.494V234.562H219.651V235.5H214.146ZM221.019 233.71V232.841L224.854 226.773H225.485V228.119H225.059L222.161 232.705V232.773H227.326V233.71H221.019ZM225.127 235.5V233.446V233.041V226.773H226.133V235.5H225.127ZM232.69 230.668V231.605H228.872V230.668H232.69ZM234.032 235.5V234.733L236.913 231.58C237.251 231.21 237.529 230.889 237.748 230.616C237.967 230.341 238.129 230.082 238.234 229.841C238.342 229.597 238.396 229.341 238.396 229.074C238.396 228.767 238.322 228.501 238.174 228.277C238.029 228.053 237.831 227.879 237.578 227.757C237.325 227.635 237.041 227.574 236.725 227.574C236.39 227.574 236.098 227.643 235.848 227.783C235.6 227.919 235.409 228.111 235.272 228.358C235.139 228.605 235.072 228.895 235.072 229.227H234.066C234.066 228.716 234.184 228.267 234.42 227.881C234.656 227.494 234.977 227.193 235.383 226.977C235.792 226.761 236.251 226.653 236.76 226.653C237.271 226.653 237.724 226.761 238.119 226.977C238.514 227.193 238.824 227.484 239.048 227.851C239.272 228.217 239.385 228.625 239.385 229.074C239.385 229.395 239.326 229.709 239.21 230.016C239.096 230.32 238.897 230.659 238.613 231.034C238.332 231.406 237.941 231.861 237.441 232.398L235.481 234.494V234.562H239.538V235.5H234.032ZM241.571 235.5L245.474 227.778V227.71H240.974V226.773H246.565V227.761L242.679 235.5H241.571ZM251.256 226.364L248.443 236.812H247.523L250.335 226.364H251.256ZM255.499 226.773V235.5H254.442V227.881H254.391L252.26 229.295V228.222L254.442 226.773H255.499ZM260.855 235.619C260.213 235.619 259.667 235.445 259.215 235.095C258.763 234.743 258.418 234.233 258.179 233.565C257.941 232.895 257.821 232.085 257.821 231.136C257.821 230.193 257.941 229.388 258.179 228.72C258.421 228.05 258.767 227.538 259.219 227.186C259.674 226.831 260.219 226.653 260.855 226.653C261.492 226.653 262.036 226.831 262.488 227.186C262.942 227.538 263.289 228.05 263.527 228.72C263.769 229.388 263.89 230.193 263.89 231.136C263.89 232.085 263.77 232.895 263.532 233.565C263.293 234.233 262.948 234.743 262.496 235.095C262.044 235.445 261.498 235.619 260.855 235.619ZM260.855 234.682C261.492 234.682 261.986 234.375 262.338 233.761C262.691 233.148 262.867 232.273 262.867 231.136C262.867 230.381 262.786 229.737 262.624 229.206C262.465 228.675 262.235 228.27 261.934 227.991C261.635 227.713 261.276 227.574 260.855 227.574C260.225 227.574 259.732 227.885 259.377 228.507C259.022 229.126 258.844 230.003 258.844 231.136C258.844 231.892 258.924 232.534 259.083 233.062C259.242 233.591 259.471 233.993 259.769 234.268C260.07 234.544 260.432 234.682 260.855 234.682ZM268.611 226.364L265.799 236.812H264.878L267.691 226.364H268.611ZM269.786 235.5V234.733L272.667 231.58C273.005 231.21 273.283 230.889 273.502 230.616C273.721 230.341 273.883 230.082 273.988 229.841C274.096 229.597 274.15 229.341 274.15 229.074C274.15 228.767 274.076 228.501 273.928 228.277C273.783 228.053 273.585 227.879 273.332 227.757C273.079 227.635 272.795 227.574 272.479 227.574C272.144 227.574 271.852 227.643 271.602 227.783C271.354 227.919 271.163 228.111 271.026 228.358C270.893 228.605 270.826 228.895 270.826 229.227H269.82C269.82 228.716 269.938 228.267 270.174 227.881C270.41 227.494 270.731 227.193 271.137 226.977C271.546 226.761 272.005 226.653 272.513 226.653C273.025 226.653 273.478 226.761 273.873 226.977C274.268 227.193 274.577 227.484 274.802 227.851C275.026 228.217 275.138 228.625 275.138 229.074C275.138 229.395 275.08 229.709 274.964 230.016C274.85 230.32 274.651 230.659 274.367 231.034C274.086 231.406 273.695 231.861 273.195 232.398L271.235 234.494V234.562H275.292V235.5H269.786ZM279.898 235.619C279.256 235.619 278.71 235.445 278.258 235.095C277.806 234.743 277.461 234.233 277.222 233.565C276.984 232.895 276.864 232.085 276.864 231.136C276.864 230.193 276.984 229.388 277.222 228.72C277.464 228.05 277.81 227.538 278.262 227.186C278.717 226.831 279.262 226.653 279.898 226.653C280.535 226.653 281.079 226.831 281.531 227.186C281.985 227.538 282.332 228.05 282.57 228.72C282.812 229.388 282.933 230.193 282.933 231.136C282.933 232.085 282.813 232.895 282.575 233.565C282.336 234.233 281.991 234.743 281.539 235.095C281.087 235.445 280.54 235.619 279.898 235.619ZM279.898 234.682C280.535 234.682 281.029 234.375 281.381 233.761C281.734 233.148 281.91 232.273 281.91 231.136C281.91 230.381 281.829 229.737 281.667 229.206C281.508 228.675 281.278 228.27 280.977 227.991C280.678 227.713 280.319 227.574 279.898 227.574C279.268 227.574 278.775 227.885 278.42 228.507C278.065 229.126 277.887 230.003 277.887 231.136C277.887 231.892 277.967 232.534 278.126 233.062C278.285 233.591 278.513 233.993 278.812 234.268C279.113 234.544 279.475 234.682 279.898 234.682ZM284.552 235.5V234.733L287.433 231.58C287.771 231.21 288.049 230.889 288.268 230.616C288.487 230.341 288.648 230.082 288.754 229.841C288.862 229.597 288.915 229.341 288.915 229.074C288.915 228.767 288.842 228.501 288.694 228.277C288.549 228.053 288.35 227.879 288.097 227.757C287.844 227.635 287.56 227.574 287.245 227.574C286.91 227.574 286.617 227.643 286.367 227.783C286.12 227.919 285.928 228.111 285.792 228.358C285.658 228.605 285.592 228.895 285.592 229.227H284.586C284.586 228.716 284.704 228.267 284.94 227.881C285.175 227.494 285.496 227.193 285.903 226.977C286.312 226.761 286.771 226.653 287.279 226.653C287.79 226.653 288.244 226.761 288.638 226.977C289.033 227.193 289.343 227.484 289.567 227.851C289.792 228.217 289.904 228.625 289.904 229.074C289.904 229.395 289.846 229.709 289.729 230.016C289.616 230.32 289.417 230.659 289.133 231.034C288.852 231.406 288.461 231.861 287.961 232.398L286.001 234.494V234.562H290.058V235.5H284.552ZM291.425 233.71V232.841L295.261 226.773H295.891V228.119H295.465L292.567 232.705V232.773H297.732V233.71H291.425ZM295.533 235.5V233.446V233.041V226.773H296.539V235.5H295.533Z" fill="black" fill-opacity="0.7"/>
</svg>
