<svg width="534" height="237" viewBox="0 0 534 237" fill="none" xmlns="http://www.w3.org/2000/svg">
<path d="M12.9092 20L15.0674 7.91406H16.5034L14.3369 20H12.9092ZM16.0801 20L18.2466 7.91406H19.6826L17.5161 20H16.0801ZM20.8696 12.7119H12.2285V11.3672H20.8696V12.7119ZM20.2388 16.5967H11.606V15.252H20.2388V16.5967ZM70.1875 7.91406V20H67.9131V7.91406H70.1875ZM73.9395 7.91406V9.71533H64.2026V7.91406H73.9395ZM79.0464 20.166C78.3657 20.166 77.7542 20.0553 77.2119 19.834C76.6696 19.6126 76.2075 19.3055 75.8257 18.9126C75.4494 18.5142 75.1589 18.0521 74.9541 17.5264C74.7549 16.9951 74.6553 16.4251 74.6553 15.8164V15.4844C74.6553 14.7926 74.7549 14.1646 74.9541 13.6001C75.1533 13.0301 75.4355 12.5404 75.8008 12.1309C76.166 11.7214 76.6032 11.4059 77.1123 11.1846C77.6214 10.9632 78.1831 10.8525 78.7974 10.8525C79.4338 10.8525 79.9954 10.9604 80.4824 11.1763C80.9694 11.3866 81.3761 11.6854 81.7026 12.0728C82.0291 12.4601 82.2754 12.925 82.4414 13.4673C82.6074 14.0041 82.6904 14.599 82.6904 15.252V16.1733H75.6514V14.6626H80.5322V14.4966C80.5212 14.1479 80.4548 13.8298 80.333 13.542C80.2113 13.2487 80.0231 13.0163 79.7686 12.8447C79.514 12.6676 79.1847 12.5791 78.7808 12.5791C78.4543 12.5791 78.1693 12.651 77.9258 12.7949C77.6878 12.9333 77.4886 13.1325 77.3281 13.3926C77.1732 13.6471 77.057 13.9515 76.9795 14.3057C76.902 14.6598 76.8633 15.0527 76.8633 15.4844V15.8164C76.8633 16.1927 76.9131 16.5413 77.0127 16.8623C77.1178 17.1833 77.27 17.4627 77.4692 17.7007C77.674 17.9331 77.9175 18.1157 78.1997 18.2485C78.4875 18.3758 78.814 18.4395 79.1792 18.4395C79.6385 18.4395 80.0535 18.3509 80.4243 18.1738C80.8006 17.9912 81.1271 17.7228 81.4038 17.3687L82.5078 18.5142C82.3197 18.7909 82.0651 19.0565 81.7441 19.311C81.4287 19.5656 81.0469 19.7731 80.5986 19.9336C80.1504 20.0885 79.633 20.166 79.0464 20.166ZM79.2207 7.2417L81.6279 9.54102V9.64062H79.8682L78.5815 8.37891L77.3032 9.64062H75.5684V9.52441L77.9424 7.2417H79.2207ZM86.8096 12.936V20H84.6182V11.0186H86.6768L86.8096 12.936ZM86.4609 15.1855H85.8135C85.819 14.5326 85.9076 13.9404 86.0791 13.4092C86.2507 12.8779 86.4914 12.4214 86.8013 12.0396C87.1167 11.6577 87.4902 11.3644 87.9219 11.1597C88.3535 10.9549 88.835 10.8525 89.3662 10.8525C89.7979 10.8525 90.188 10.9134 90.5366 11.0352C90.8853 11.1569 91.1841 11.3506 91.4331 11.6162C91.6877 11.8818 91.8813 12.2305 92.0142 12.6621C92.1525 13.0882 92.2217 13.6139 92.2217 14.2393V20H90.0137V14.2227C90.0137 13.8132 89.9528 13.4894 89.8311 13.2515C89.7148 13.0135 89.5433 12.8447 89.3164 12.7451C89.0951 12.6455 88.8211 12.5957 88.4946 12.5957C88.1571 12.5957 87.861 12.6649 87.6064 12.8032C87.3574 12.936 87.1471 13.1214 86.9756 13.3594C86.8096 13.5973 86.6823 13.8713 86.5938 14.1812C86.5052 14.491 86.4609 14.8258 86.4609 15.1855ZM236.863 7.91406V20H234.589V7.91406H236.863ZM240.615 7.91406V9.71533H230.878V7.91406H240.615ZM240.783 15.6006V15.4263C240.783 14.7677 240.877 14.1618 241.065 13.6084C241.254 13.0495 241.528 12.5653 241.887 12.1558C242.247 11.7463 242.687 11.4281 243.207 11.2012C243.727 10.9688 244.319 10.8525 244.983 10.8525C245.659 10.8525 246.256 10.9688 246.776 11.2012C247.302 11.4281 247.745 11.7463 248.104 12.1558C248.464 12.5653 248.738 13.0495 248.926 13.6084C249.114 14.1618 249.208 14.7677 249.208 15.4263V15.6006C249.208 16.2536 249.114 16.8595 248.926 17.4185C248.738 17.9718 248.464 18.4561 248.104 18.8711C247.745 19.2806 247.305 19.5988 246.785 19.8257C246.264 20.0526 245.67 20.166 245 20.166C244.336 20.166 243.741 20.0526 243.215 19.8257C242.69 19.5988 242.247 19.2806 241.887 18.8711C241.528 18.4561 241.254 17.9718 241.065 17.4185C240.877 16.8595 240.783 16.2536 240.783 15.6006ZM242.975 15.4263V15.6006C242.975 15.9935 243.013 16.3615 243.091 16.7046C243.168 17.0477 243.287 17.3493 243.448 17.6094C243.608 17.8695 243.816 18.0742 244.07 18.2236C244.33 18.3675 244.64 18.4395 245 18.4395C245.354 18.4395 245.659 18.3675 245.913 18.2236C246.168 18.0742 246.375 17.8695 246.536 17.6094C246.702 17.3493 246.823 17.0477 246.901 16.7046C246.978 16.3615 247.017 15.9935 247.017 15.6006V15.4263C247.017 15.0389 246.978 14.6764 246.901 14.3389C246.823 13.9958 246.702 13.6942 246.536 13.4341C246.375 13.1685 246.165 12.9609 245.905 12.8115C245.65 12.6566 245.343 12.5791 244.983 12.5791C244.629 12.5791 244.325 12.6566 244.07 12.8115C243.816 12.9609 243.608 13.1685 243.448 13.4341C243.287 13.6942 243.168 13.9958 243.091 14.3389C243.013 14.6764 242.975 15.0389 242.975 15.4263ZM245.664 7.87256L247.972 9.85645H246.336L244.95 8.61963L243.564 9.85645H241.92L244.228 7.87256H245.664ZM248.428 8.77734H247.233L247.142 7.79785C247.38 7.78125 247.568 7.75635 247.706 7.72314C247.85 7.68994 247.955 7.6429 248.021 7.58203C248.093 7.51562 248.129 7.42985 248.129 7.32471C248.129 7.19189 248.082 7.08952 247.988 7.01758C247.9 6.94564 247.775 6.89307 247.615 6.85986C247.46 6.82666 247.28 6.81006 247.075 6.81006L247.142 5.92188C247.523 5.92188 247.861 5.95231 248.154 6.01318C248.448 6.07406 248.694 6.16536 248.893 6.28711C249.092 6.40332 249.242 6.54443 249.341 6.71045C249.446 6.87646 249.499 7.06462 249.499 7.2749C249.499 7.60693 249.388 7.85319 249.167 8.01367C248.946 8.17415 248.699 8.27376 248.428 8.3125V8.77734ZM253.452 12.936V20H251.261V11.0186H253.319L253.452 12.936ZM253.104 15.1855H252.456C252.462 14.5326 252.55 13.9404 252.722 13.4092C252.893 12.8779 253.134 12.4214 253.444 12.0396C253.759 11.6577 254.133 11.3644 254.564 11.1597C254.996 10.9549 255.478 10.8525 256.009 10.8525C256.44 10.8525 256.831 10.9134 257.179 11.0352C257.528 11.1569 257.827 11.3506 258.076 11.6162C258.33 11.8818 258.524 12.2305 258.657 12.6621C258.795 13.0882 258.864 13.6139 258.864 14.2393V20H256.656V14.2227C256.656 13.8132 256.595 13.4894 256.474 13.2515C256.357 13.0135 256.186 12.8447 255.959 12.7451C255.738 12.6455 255.464 12.5957 255.137 12.5957C254.8 12.5957 254.504 12.6649 254.249 12.8032C254 12.936 253.79 13.1214 253.618 13.3594C253.452 13.5973 253.325 13.8713 253.236 14.1812C253.148 14.491 253.104 14.8258 253.104 15.1855ZM267.009 11.0186H269.001V19.7261C269.001 20.5396 268.824 21.2285 268.47 21.793C268.122 22.363 267.632 22.7946 267.001 23.0879C266.37 23.3867 265.637 23.5361 264.801 23.5361C264.442 23.5361 264.051 23.4863 263.631 23.3867C263.216 23.2871 262.815 23.1294 262.427 22.9136C262.045 22.7033 261.727 22.4294 261.473 22.0918L262.46 20.7969C262.759 21.1455 263.097 21.4084 263.473 21.5854C263.849 21.7681 264.256 21.8594 264.693 21.8594C265.136 21.8594 265.512 21.7764 265.822 21.6104C266.138 21.4499 266.378 21.2119 266.544 20.8965C266.716 20.5866 266.802 20.2048 266.802 19.751V13.0688L267.009 11.0186ZM260.941 15.6172V15.4429C260.941 14.7567 261.024 14.1341 261.19 13.5752C261.356 13.0107 261.594 12.5265 261.904 12.1226C262.22 11.7186 262.599 11.4059 263.042 11.1846C263.49 10.9632 263.993 10.8525 264.552 10.8525C265.144 10.8525 265.642 10.9604 266.046 11.1763C266.456 11.3921 266.793 11.6992 267.059 12.0977C267.33 12.4961 267.541 12.9692 267.69 13.5171C267.845 14.0594 267.964 14.6571 268.047 15.3101V15.7832C267.969 16.4196 267.845 17.0034 267.673 17.5347C267.507 18.0659 267.286 18.5308 267.009 18.9292C266.733 19.3221 266.389 19.6265 265.98 19.8423C265.57 20.0581 265.089 20.166 264.536 20.166C263.982 20.166 263.484 20.0526 263.042 19.8257C262.599 19.5988 262.22 19.2806 261.904 18.8711C261.594 18.4616 261.356 17.9801 261.19 17.4268C261.024 16.8734 260.941 16.2702 260.941 15.6172ZM263.133 15.4429V15.6172C263.133 16.0046 263.172 16.367 263.249 16.7046C263.326 17.0422 263.445 17.341 263.606 17.6011C263.766 17.8556 263.968 18.0549 264.212 18.1987C264.455 18.3426 264.746 18.4146 265.083 18.4146C265.537 18.4146 265.908 18.3205 266.196 18.1323C266.489 17.9386 266.71 17.6758 266.86 17.3438C267.015 17.0062 267.114 16.6271 267.159 16.2065V14.9033C267.131 14.5713 267.07 14.2642 266.976 13.9819C266.888 13.6997 266.763 13.4562 266.603 13.2515C266.442 13.0467 266.237 12.8862 265.988 12.77C265.739 12.6538 265.443 12.5957 265.1 12.5957C264.768 12.5957 264.478 12.6704 264.229 12.8198C263.979 12.9637 263.775 13.1657 263.614 13.4258C263.454 13.6859 263.332 13.9875 263.249 14.3306C263.172 14.6737 263.133 15.0444 263.133 15.4429ZM280.46 11.0186V12.5957H275.314V11.0186H280.46ZM276.692 8.81055H278.892V17.4102C278.892 17.6758 278.928 17.8805 279 18.0244C279.071 18.1683 279.179 18.2651 279.323 18.3149C279.467 18.3647 279.639 18.3896 279.838 18.3896C279.982 18.3896 280.115 18.3813 280.236 18.3647C280.358 18.3481 280.46 18.3315 280.543 18.3149L280.552 19.9585C280.369 20.0194 280.162 20.0692 279.929 20.1079C279.702 20.1466 279.445 20.166 279.157 20.166C278.665 20.166 278.233 20.083 277.862 19.917C277.492 19.7454 277.204 19.4715 276.999 19.0952C276.794 18.7134 276.692 18.2098 276.692 17.5845V8.81055ZM284.613 12.853V20H282.421V11.0186H284.497L284.613 12.853ZM287.344 10.9604L287.311 13.0024C287.189 12.9803 287.05 12.9637 286.896 12.9526C286.746 12.9416 286.605 12.936 286.472 12.936C286.135 12.936 285.839 12.9831 285.584 13.0771C285.329 13.1657 285.116 13.2957 284.945 13.4673C284.779 13.6388 284.652 13.8491 284.563 14.0981C284.474 14.3416 284.425 14.6183 284.414 14.9282L283.94 14.8701C283.94 14.3001 283.999 13.7716 284.115 13.2847C284.231 12.7977 284.4 12.3716 284.621 12.0063C284.842 11.6411 285.119 11.3589 285.451 11.1597C285.789 10.9549 286.176 10.8525 286.613 10.8525C286.735 10.8525 286.865 10.8636 287.003 10.8857C287.147 10.9023 287.261 10.9272 287.344 10.9604ZM293.712 18.0908V13.9487C293.712 13.6444 293.66 13.3815 293.555 13.1602C293.45 12.9388 293.289 12.7673 293.073 12.6455C292.857 12.5238 292.583 12.4629 292.251 12.4629C291.958 12.4629 291.701 12.5127 291.479 12.6123C291.264 12.7119 291.098 12.853 290.981 13.0356C290.865 13.2127 290.807 13.4175 290.807 13.6499H288.607C288.607 13.2791 288.696 12.9277 288.873 12.5957C289.05 12.2581 289.302 11.9593 289.628 11.6992C289.96 11.4336 290.356 11.2261 290.815 11.0767C291.28 10.9272 291.8 10.8525 292.376 10.8525C293.057 10.8525 293.663 10.9688 294.194 11.2012C294.731 11.4281 295.151 11.7712 295.456 12.2305C295.765 12.6898 295.92 13.2681 295.92 13.9653V17.8833C295.92 18.3315 295.948 18.7161 296.003 19.0371C296.064 19.3525 296.153 19.6265 296.269 19.8589V20H294.036C293.931 19.7731 293.851 19.4854 293.795 19.1367C293.74 18.7826 293.712 18.4339 293.712 18.0908ZM294.02 14.5298L294.036 15.833H292.65C292.307 15.833 292.005 15.869 291.745 15.9409C291.485 16.0073 291.272 16.1069 291.106 16.2397C290.94 16.367 290.815 16.522 290.732 16.7046C290.649 16.8817 290.608 17.0837 290.608 17.3105C290.608 17.5319 290.658 17.7311 290.757 17.9082C290.862 18.0853 291.012 18.2264 291.206 18.3315C291.405 18.4312 291.637 18.481 291.903 18.481C292.29 18.481 292.628 18.4035 292.916 18.2485C293.203 18.0881 293.427 17.8944 293.588 17.6675C293.748 17.4406 293.834 17.2248 293.845 17.02L294.476 17.9663C294.399 18.1932 294.282 18.4339 294.127 18.6885C293.972 18.943 293.773 19.181 293.53 19.4023C293.286 19.6237 292.993 19.8063 292.65 19.9502C292.307 20.0941 291.908 20.166 291.455 20.166C290.874 20.166 290.353 20.0498 289.894 19.8174C289.435 19.585 289.072 19.2668 288.807 18.8628C288.541 18.4588 288.408 17.9995 288.408 17.4849C288.408 17.009 288.497 16.5884 288.674 16.2231C288.851 15.8579 289.114 15.5508 289.462 15.3018C289.811 15.0472 290.243 14.8563 290.757 14.729C291.278 14.5962 291.872 14.5298 292.542 14.5298H294.02ZM300.546 12.936V20H298.354V11.0186H300.413L300.546 12.936ZM300.197 15.1855H299.55C299.555 14.5326 299.644 13.9404 299.815 13.4092C299.987 12.8779 300.228 12.4214 300.538 12.0396C300.853 11.6577 301.227 11.3644 301.658 11.1597C302.09 10.9549 302.571 10.8525 303.103 10.8525C303.534 10.8525 303.924 10.9134 304.273 11.0352C304.622 11.1569 304.92 11.3506 305.169 11.6162C305.424 11.8818 305.618 12.2305 305.75 12.6621C305.889 13.0882 305.958 13.6139 305.958 14.2393V20H303.75V14.2227C303.75 13.8132 303.689 13.4894 303.567 13.2515C303.451 13.0135 303.28 12.8447 303.053 12.7451C302.831 12.6455 302.557 12.5957 302.231 12.5957C301.893 12.5957 301.597 12.6649 301.343 12.8032C301.094 12.936 300.883 13.1214 300.712 13.3594C300.546 13.5973 300.419 13.8713 300.33 14.1812C300.242 14.491 300.197 14.8258 300.197 15.1855ZM314.103 11.0186H316.095V19.7261C316.095 20.5396 315.918 21.2285 315.564 21.793C315.215 22.363 314.726 22.7946 314.095 23.0879C313.464 23.3867 312.731 23.5361 311.895 23.5361C311.535 23.5361 311.145 23.4863 310.725 23.3867C310.31 23.2871 309.908 23.1294 309.521 22.9136C309.139 22.7033 308.821 22.4294 308.566 22.0918L309.554 20.7969C309.853 21.1455 310.191 21.4084 310.567 21.5854C310.943 21.7681 311.35 21.8594 311.787 21.8594C312.23 21.8594 312.606 21.7764 312.916 21.6104C313.231 21.4499 313.472 21.2119 313.638 20.8965C313.81 20.5866 313.896 20.2048 313.896 19.751V13.0688L314.103 11.0186ZM308.035 15.6172V15.4429C308.035 14.7567 308.118 14.1341 308.284 13.5752C308.45 13.0107 308.688 12.5265 308.998 12.1226C309.313 11.7186 309.693 11.4059 310.135 11.1846C310.583 10.9632 311.087 10.8525 311.646 10.8525C312.238 10.8525 312.736 10.9604 313.14 11.1763C313.55 11.3921 313.887 11.6992 314.153 12.0977C314.424 12.4961 314.634 12.9692 314.784 13.5171C314.939 14.0594 315.058 14.6571 315.141 15.3101V15.7832C315.063 16.4196 314.939 17.0034 314.767 17.5347C314.601 18.0659 314.38 18.5308 314.103 18.9292C313.826 19.3221 313.483 19.6265 313.074 19.8423C312.664 20.0581 312.183 20.166 311.629 20.166C311.076 20.166 310.578 20.0526 310.135 19.8257C309.693 19.5988 309.313 19.2806 308.998 18.8711C308.688 18.4616 308.45 17.9801 308.284 17.4268C308.118 16.8734 308.035 16.2702 308.035 15.6172ZM310.227 15.4429V15.6172C310.227 16.0046 310.265 16.367 310.343 16.7046C310.42 17.0422 310.539 17.341 310.7 17.6011C310.86 17.8556 311.062 18.0549 311.306 18.1987C311.549 18.3426 311.84 18.4146 312.177 18.4146C312.631 18.4146 313.002 18.3205 313.29 18.1323C313.583 17.9386 313.804 17.6758 313.954 17.3438C314.109 17.0062 314.208 16.6271 314.252 16.2065V14.9033C314.225 14.5713 314.164 14.2642 314.07 13.9819C313.981 13.6997 313.857 13.4562 313.696 13.2515C313.536 13.0467 313.331 12.8862 313.082 12.77C312.833 12.6538 312.537 12.5957 312.194 12.5957C311.862 12.5957 311.571 12.6704 311.322 12.8198C311.073 12.9637 310.868 13.1657 310.708 13.4258C310.548 13.6859 310.426 13.9875 310.343 14.3306C310.265 14.6737 310.227 15.0444 310.227 15.4429ZM325.628 11.0186V20H323.429V11.0186H325.628ZM323.279 8.66943C323.279 8.34294 323.39 8.07178 323.611 7.85596C323.838 7.64014 324.143 7.53223 324.524 7.53223C324.906 7.53223 325.208 7.64014 325.429 7.85596C325.656 8.07178 325.77 8.34294 325.77 8.66943C325.77 8.9904 325.656 9.25879 325.429 9.47461C325.208 9.69043 324.906 9.79834 324.524 9.79834C324.143 9.79834 323.838 9.69043 323.611 9.47461C323.39 9.25879 323.279 8.9904 323.279 8.66943ZM330.37 12.936V20H328.179V11.0186H330.237L330.37 12.936ZM330.021 15.1855H329.374C329.38 14.5326 329.468 13.9404 329.64 13.4092C329.811 12.8779 330.052 12.4214 330.362 12.0396C330.677 11.6577 331.051 11.3644 331.482 11.1597C331.914 10.9549 332.396 10.8525 332.927 10.8525C333.358 10.8525 333.749 10.9134 334.097 11.0352C334.446 11.1569 334.745 11.3506 334.994 11.6162C335.248 11.8818 335.442 12.2305 335.575 12.6621C335.713 13.0882 335.782 13.6139 335.782 14.2393V20H333.574V14.2227C333.574 13.8132 333.513 13.4894 333.392 13.2515C333.275 13.0135 333.104 12.8447 332.877 12.7451C332.656 12.6455 332.382 12.5957 332.055 12.5957C331.718 12.5957 331.422 12.6649 331.167 12.8032C330.918 12.936 330.708 13.1214 330.536 13.3594C330.37 13.5973 330.243 13.8713 330.154 14.1812C330.066 14.491 330.021 14.8258 330.021 15.1855ZM404.689 7.91406V20H402.415V7.91406H404.689ZM408.441 7.91406V9.71533H398.705V7.91406H408.441ZM408.609 15.6006V15.4263C408.609 14.7677 408.703 14.1618 408.892 13.6084C409.08 13.0495 409.354 12.5653 409.713 12.1558C410.073 11.7463 410.513 11.4281 411.033 11.2012C411.553 10.9688 412.146 10.8525 412.81 10.8525C413.485 10.8525 414.082 10.9688 414.603 11.2012C415.128 11.4281 415.571 11.7463 415.931 12.1558C416.29 12.5653 416.564 13.0495 416.752 13.6084C416.941 14.1618 417.035 14.7677 417.035 15.4263V15.6006C417.035 16.2536 416.941 16.8595 416.752 17.4185C416.564 17.9718 416.29 18.4561 415.931 18.8711C415.571 19.2806 415.131 19.5988 414.611 19.8257C414.091 20.0526 413.496 20.166 412.826 20.166C412.162 20.166 411.567 20.0526 411.042 19.8257C410.516 19.5988 410.073 19.2806 409.713 18.8711C409.354 18.4561 409.08 17.9718 408.892 17.4185C408.703 16.8595 408.609 16.2536 408.609 15.6006ZM410.801 15.4263V15.6006C410.801 15.9935 410.84 16.3615 410.917 16.7046C410.994 17.0477 411.113 17.3493 411.274 17.6094C411.434 17.8695 411.642 18.0742 411.896 18.2236C412.157 18.3675 412.466 18.4395 412.826 18.4395C413.18 18.4395 413.485 18.3675 413.739 18.2236C413.994 18.0742 414.201 17.8695 414.362 17.6094C414.528 17.3493 414.65 17.0477 414.727 16.7046C414.805 16.3615 414.843 15.9935 414.843 15.6006V15.4263C414.843 15.0389 414.805 14.6764 414.727 14.3389C414.65 13.9958 414.528 13.6942 414.362 13.4341C414.201 13.1685 413.991 12.9609 413.731 12.8115C413.476 12.6566 413.169 12.5791 412.81 12.5791C412.455 12.5791 412.151 12.6566 411.896 12.8115C411.642 12.9609 411.434 13.1685 411.274 13.4341C411.113 13.6942 410.994 13.9958 410.917 14.3389C410.84 14.6764 410.801 15.0389 410.801 15.4263ZM413.49 7.87256L415.798 9.85645H414.163L412.776 8.61963L411.39 9.85645H409.747L412.054 7.87256H413.49ZM416.254 8.77734H415.059L414.968 7.79785C415.206 7.78125 415.394 7.75635 415.532 7.72314C415.676 7.68994 415.781 7.6429 415.848 7.58203C415.92 7.51562 415.956 7.42985 415.956 7.32471C415.956 7.19189 415.909 7.08952 415.814 7.01758C415.726 6.94564 415.601 6.89307 415.441 6.85986C415.286 6.82666 415.106 6.81006 414.901 6.81006L414.968 5.92188C415.35 5.92188 415.687 5.95231 415.98 6.01318C416.274 6.07406 416.52 6.16536 416.719 6.28711C416.918 6.40332 417.068 6.54443 417.167 6.71045C417.273 6.87646 417.325 7.06462 417.325 7.2749C417.325 7.60693 417.215 7.85319 416.993 8.01367C416.772 8.17415 416.526 8.27376 416.254 8.3125V8.77734ZM421.278 12.936V20H419.087V11.0186H421.146L421.278 12.936ZM420.93 15.1855H420.282C420.288 14.5326 420.376 13.9404 420.548 13.4092C420.719 12.8779 420.96 12.4214 421.27 12.0396C421.585 11.6577 421.959 11.3644 422.391 11.1597C422.822 10.9549 423.304 10.8525 423.835 10.8525C424.267 10.8525 424.657 10.9134 425.005 11.0352C425.354 11.1569 425.653 11.3506 425.902 11.6162C426.156 11.8818 426.35 12.2305 426.483 12.6621C426.621 13.0882 426.69 13.6139 426.69 14.2393V20H424.482V14.2227C424.482 13.8132 424.422 13.4894 424.3 13.2515C424.184 13.0135 424.012 12.8447 423.785 12.7451C423.564 12.6455 423.29 12.5957 422.963 12.5957C422.626 12.5957 422.33 12.6649 422.075 12.8032C421.826 12.936 421.616 13.1214 421.444 13.3594C421.278 13.5973 421.151 13.8713 421.062 14.1812C420.974 14.491 420.93 14.8258 420.93 15.1855ZM434.835 11.0186H436.828V19.7261C436.828 20.5396 436.651 21.2285 436.296 21.793C435.948 22.363 435.458 22.7946 434.827 23.0879C434.196 23.3867 433.463 23.5361 432.627 23.5361C432.268 23.5361 431.878 23.4863 431.457 23.3867C431.042 23.2871 430.641 23.1294 430.253 22.9136C429.872 22.7033 429.553 22.4294 429.299 22.0918L430.287 20.7969C430.585 21.1455 430.923 21.4084 431.299 21.5854C431.676 21.7681 432.082 21.8594 432.52 21.8594C432.962 21.8594 433.339 21.7764 433.648 21.6104C433.964 21.4499 434.205 21.2119 434.371 20.8965C434.542 20.5866 434.628 20.2048 434.628 19.751V13.0688L434.835 11.0186ZM428.768 15.6172V15.4429C428.768 14.7567 428.851 14.1341 429.017 13.5752C429.183 13.0107 429.421 12.5265 429.73 12.1226C430.046 11.7186 430.425 11.4059 430.868 11.1846C431.316 10.9632 431.819 10.8525 432.378 10.8525C432.971 10.8525 433.469 10.9604 433.873 11.1763C434.282 11.3921 434.62 11.6992 434.885 12.0977C435.156 12.4961 435.367 12.9692 435.516 13.5171C435.671 14.0594 435.79 14.6571 435.873 15.3101V15.7832C435.796 16.4196 435.671 17.0034 435.5 17.5347C435.333 18.0659 435.112 18.5308 434.835 18.9292C434.559 19.3221 434.216 19.6265 433.806 19.8423C433.397 20.0581 432.915 20.166 432.362 20.166C431.808 20.166 431.31 20.0526 430.868 19.8257C430.425 19.5988 430.046 19.2806 429.73 18.8711C429.421 18.4616 429.183 17.9801 429.017 17.4268C428.851 16.8734 428.768 16.2702 428.768 15.6172ZM430.959 15.4429V15.6172C430.959 16.0046 430.998 16.367 431.075 16.7046C431.153 17.0422 431.272 17.341 431.432 17.6011C431.593 17.8556 431.795 18.0549 432.038 18.1987C432.282 18.3426 432.572 18.4146 432.91 18.4146C433.363 18.4146 433.734 18.3205 434.022 18.1323C434.315 17.9386 434.537 17.6758 434.686 17.3438C434.841 17.0062 434.941 16.6271 434.985 16.2065V14.9033C434.957 14.5713 434.896 14.2642 434.802 13.9819C434.714 13.6997 434.589 13.4562 434.429 13.2515C434.268 13.0467 434.063 12.8862 433.814 12.77C433.565 12.6538 433.269 12.5957 432.926 12.5957C432.594 12.5957 432.304 12.6704 432.055 12.8198C431.806 12.9637 431.601 13.1657 431.44 13.4258C431.28 13.6859 431.158 13.9875 431.075 14.3306C430.998 14.6737 430.959 15.0444 430.959 15.4429ZM448.287 11.0186V12.5957H443.14V11.0186H448.287ZM444.518 8.81055H446.718V17.4102C446.718 17.6758 446.754 17.8805 446.826 18.0244C446.898 18.1683 447.006 18.2651 447.149 18.3149C447.293 18.3647 447.465 18.3896 447.664 18.3896C447.808 18.3896 447.941 18.3813 448.062 18.3647C448.184 18.3481 448.287 18.3315 448.37 18.3149L448.378 19.9585C448.195 20.0194 447.988 20.0692 447.755 20.1079C447.528 20.1466 447.271 20.166 446.983 20.166C446.491 20.166 446.059 20.083 445.688 19.917C445.318 19.7454 445.03 19.4715 444.825 19.0952C444.62 18.7134 444.518 18.2098 444.518 17.5845V8.81055ZM452.439 12.853V20H450.248V11.0186H452.323L452.439 12.853ZM455.17 10.9604L455.137 13.0024C455.015 12.9803 454.877 12.9637 454.722 12.9526C454.572 12.9416 454.431 12.936 454.298 12.936C453.961 12.936 453.665 12.9831 453.41 13.0771C453.156 13.1657 452.943 13.2957 452.771 13.4673C452.605 13.6388 452.478 13.8491 452.389 14.0981C452.301 14.3416 452.251 14.6183 452.24 14.9282L451.767 14.8701C451.767 14.3001 451.825 13.7716 451.941 13.2847C452.057 12.7977 452.226 12.3716 452.447 12.0063C452.669 11.6411 452.945 11.3589 453.277 11.1597C453.615 10.9549 454.002 10.8525 454.439 10.8525C454.561 10.8525 454.691 10.8636 454.83 10.8857C454.973 10.9023 455.087 10.9272 455.17 10.9604ZM461.539 18.0908V13.9487C461.539 13.6444 461.486 13.3815 461.381 13.1602C461.276 12.9388 461.115 12.7673 460.899 12.6455C460.684 12.5238 460.41 12.4629 460.078 12.4629C459.784 12.4629 459.527 12.5127 459.306 12.6123C459.09 12.7119 458.924 12.853 458.808 13.0356C458.691 13.2127 458.633 13.4175 458.633 13.6499H456.434C456.434 13.2791 456.522 12.9277 456.699 12.5957C456.876 12.2581 457.128 11.9593 457.455 11.6992C457.787 11.4336 458.182 11.2261 458.642 11.0767C459.106 10.9272 459.627 10.8525 460.202 10.8525C460.883 10.8525 461.489 10.9688 462.02 11.2012C462.557 11.4281 462.977 11.7712 463.282 12.2305C463.592 12.6898 463.747 13.2681 463.747 13.9653V17.8833C463.747 18.3315 463.774 18.7161 463.83 19.0371C463.89 19.3525 463.979 19.6265 464.095 19.8589V20H461.862C461.757 19.7731 461.677 19.4854 461.622 19.1367C461.566 18.7826 461.539 18.4339 461.539 18.0908ZM461.846 14.5298L461.862 15.833H460.476C460.133 15.833 459.831 15.869 459.571 15.9409C459.311 16.0073 459.098 16.1069 458.932 16.2397C458.766 16.367 458.642 16.522 458.559 16.7046C458.476 16.8817 458.434 17.0837 458.434 17.3105C458.434 17.5319 458.484 17.7311 458.583 17.9082C458.689 18.0853 458.838 18.2264 459.032 18.3315C459.231 18.4312 459.463 18.481 459.729 18.481C460.116 18.481 460.454 18.4035 460.742 18.2485C461.029 18.0881 461.254 17.8944 461.414 17.6675C461.575 17.4406 461.66 17.2248 461.671 17.02L462.302 17.9663C462.225 18.1932 462.109 18.4339 461.954 18.6885C461.799 18.943 461.599 19.181 461.356 19.4023C461.112 19.6237 460.819 19.8063 460.476 19.9502C460.133 20.0941 459.735 20.166 459.281 20.166C458.7 20.166 458.18 20.0498 457.72 19.8174C457.261 19.585 456.898 19.2668 456.633 18.8628C456.367 18.4588 456.234 17.9995 456.234 17.4849C456.234 17.009 456.323 16.5884 456.5 16.2231C456.677 15.8579 456.94 15.5508 457.289 15.3018C457.637 15.0472 458.069 14.8563 458.583 14.729C459.104 14.5962 459.699 14.5298 460.368 14.5298H461.846ZM468.372 12.936V20H466.181V11.0186H468.239L468.372 12.936ZM468.023 15.1855H467.376C467.382 14.5326 467.47 13.9404 467.642 13.4092C467.813 12.8779 468.054 12.4214 468.364 12.0396C468.679 11.6577 469.053 11.3644 469.484 11.1597C469.916 10.9549 470.397 10.8525 470.929 10.8525C471.36 10.8525 471.75 10.9134 472.099 11.0352C472.448 11.1569 472.747 11.3506 472.996 11.6162C473.25 11.8818 473.444 12.2305 473.577 12.6621C473.715 13.0882 473.784 13.6139 473.784 14.2393V20H471.576V14.2227C471.576 13.8132 471.515 13.4894 471.394 13.2515C471.277 13.0135 471.106 12.8447 470.879 12.7451C470.658 12.6455 470.384 12.5957 470.057 12.5957C469.72 12.5957 469.424 12.6649 469.169 12.8032C468.92 12.936 468.71 13.1214 468.538 13.3594C468.372 13.5973 468.245 13.8713 468.156 14.1812C468.068 14.491 468.023 14.8258 468.023 15.1855ZM481.929 11.0186H483.921V19.7261C483.921 20.5396 483.744 21.2285 483.39 21.793C483.042 22.363 482.552 22.7946 481.921 23.0879C481.29 23.3867 480.557 23.5361 479.721 23.5361C479.361 23.5361 478.971 23.4863 478.551 23.3867C478.136 23.2871 477.735 23.1294 477.347 22.9136C476.965 22.7033 476.647 22.4294 476.393 22.0918L477.38 20.7969C477.679 21.1455 478.017 21.4084 478.393 21.5854C478.769 21.7681 479.176 21.8594 479.613 21.8594C480.056 21.8594 480.432 21.7764 480.742 21.6104C481.058 21.4499 481.298 21.2119 481.464 20.8965C481.636 20.5866 481.722 20.2048 481.722 19.751V13.0688L481.929 11.0186ZM475.861 15.6172V15.4429C475.861 14.7567 475.944 14.1341 476.11 13.5752C476.276 13.0107 476.514 12.5265 476.824 12.1226C477.14 11.7186 477.519 11.4059 477.961 11.1846C478.41 10.9632 478.913 10.8525 479.472 10.8525C480.064 10.8525 480.562 10.9604 480.966 11.1763C481.376 11.3921 481.713 11.6992 481.979 12.0977C482.25 12.4961 482.46 12.9692 482.61 13.5171C482.765 14.0594 482.884 14.6571 482.967 15.3101V15.7832C482.889 16.4196 482.765 17.0034 482.593 17.5347C482.427 18.0659 482.206 18.5308 481.929 18.9292C481.653 19.3221 481.309 19.6265 480.9 19.8423C480.49 20.0581 480.009 20.166 479.456 20.166C478.902 20.166 478.404 20.0526 477.961 19.8257C477.519 19.5988 477.14 19.2806 476.824 18.8711C476.514 18.4616 476.276 17.9801 476.11 17.4268C475.944 16.8734 475.861 16.2702 475.861 15.6172ZM478.053 15.4429V15.6172C478.053 16.0046 478.091 16.367 478.169 16.7046C478.246 17.0422 478.365 17.341 478.526 17.6011C478.686 17.8556 478.888 18.0549 479.132 18.1987C479.375 18.3426 479.666 18.4146 480.003 18.4146C480.457 18.4146 480.828 18.3205 481.116 18.1323C481.409 17.9386 481.63 17.6758 481.78 17.3438C481.935 17.0062 482.034 16.6271 482.079 16.2065V14.9033C482.051 14.5713 481.99 14.2642 481.896 13.9819C481.807 13.6997 481.683 13.4562 481.522 13.2515C481.362 13.0467 481.157 12.8862 480.908 12.77C480.659 12.6538 480.363 12.5957 480.02 12.5957C479.688 12.5957 479.397 12.6704 479.148 12.8198C478.899 12.9637 478.695 13.1657 478.534 13.4258C478.374 13.6859 478.252 13.9875 478.169 14.3306C478.091 14.6737 478.053 15.0444 478.053 15.4429ZM493.313 12.8613V20H491.122V11.0186H493.189L493.313 12.8613ZM492.99 15.1855H492.317C492.317 14.5602 492.392 13.9847 492.542 13.459C492.696 12.9333 492.923 12.4767 493.222 12.0894C493.521 11.6965 493.889 11.3921 494.326 11.1763C494.769 10.9604 495.281 10.8525 495.862 10.8525C496.266 10.8525 496.637 10.9134 496.974 11.0352C497.312 11.1514 497.602 11.3368 497.846 11.5913C498.095 11.8403 498.286 12.1668 498.418 12.5708C498.551 12.9692 498.618 13.4479 498.618 14.0068V20H496.426V14.231C496.426 13.8104 496.365 13.4811 496.244 13.2432C496.127 13.0052 495.959 12.8392 495.737 12.7451C495.516 12.6455 495.25 12.5957 494.94 12.5957C494.597 12.5957 494.301 12.6649 494.052 12.8032C493.809 12.936 493.607 13.1214 493.446 13.3594C493.291 13.5973 493.175 13.8713 493.098 14.1812C493.026 14.491 492.99 14.8258 492.99 15.1855ZM498.452 14.7788L497.547 14.9448C497.552 14.3804 497.63 13.8519 497.779 13.3594C497.929 12.8613 498.147 12.4269 498.435 12.0562C498.728 11.6799 499.091 11.3866 499.522 11.1763C499.96 10.9604 500.463 10.8525 501.033 10.8525C501.476 10.8525 501.874 10.9162 502.229 11.0435C502.588 11.1652 502.895 11.3617 503.15 11.6328C503.404 11.8984 503.598 12.2443 503.731 12.6704C503.869 13.0965 503.938 13.6167 503.938 14.231V20H501.73V14.2227C501.73 13.7855 501.67 13.4507 501.548 13.2183C501.432 12.9858 501.263 12.8254 501.042 12.7368C500.82 12.6427 500.56 12.5957 500.261 12.5957C499.957 12.5957 499.691 12.6538 499.464 12.77C499.243 12.8807 499.055 13.0356 498.9 13.2349C498.75 13.4341 498.637 13.6665 498.56 13.9321C498.488 14.1922 498.452 14.4744 498.452 14.7788ZM511.751 17.8667V11.0186H513.959V20H511.884L511.751 17.8667ZM512.034 16.0073L512.714 15.9907C512.714 16.5939 512.648 17.1501 512.515 17.6592C512.382 18.1683 512.175 18.611 511.893 18.9873C511.616 19.3581 511.264 19.6486 510.838 19.8589C510.412 20.0636 509.909 20.166 509.328 20.166C508.885 20.166 508.481 20.1051 508.116 19.9834C507.75 19.8561 507.435 19.6597 507.169 19.394C506.909 19.1229 506.707 18.777 506.563 18.3564C506.42 17.9303 506.348 17.4185 506.348 16.8208V11.0186H508.539V16.8374C508.539 17.1362 508.572 17.3853 508.639 17.5845C508.711 17.7837 508.807 17.9469 508.929 18.0742C509.056 18.196 509.203 18.2845 509.369 18.3398C509.541 18.3896 509.723 18.4146 509.917 18.4146C510.448 18.4146 510.866 18.3094 511.17 18.0991C511.48 17.8833 511.702 17.5955 511.834 17.2358C511.967 16.8706 512.034 16.4611 512.034 16.0073ZM521.349 18.0908V13.9487C521.349 13.6444 521.297 13.3815 521.191 13.1602C521.086 12.9388 520.926 12.7673 520.71 12.6455C520.494 12.5238 520.22 12.4629 519.888 12.4629C519.595 12.4629 519.338 12.5127 519.116 12.6123C518.9 12.7119 518.734 12.853 518.618 13.0356C518.502 13.2127 518.444 13.4175 518.444 13.6499H516.244C516.244 13.2791 516.333 12.9277 516.51 12.5957C516.687 12.2581 516.939 11.9593 517.265 11.6992C517.597 11.4336 517.993 11.2261 518.452 11.0767C518.917 10.9272 519.437 10.8525 520.013 10.8525C520.693 10.8525 521.299 10.9688 521.831 11.2012C522.367 11.4281 522.788 11.7712 523.092 12.2305C523.402 12.6898 523.557 13.2681 523.557 13.9653V17.8833C523.557 18.3315 523.585 18.7161 523.64 19.0371C523.701 19.3525 523.79 19.6265 523.906 19.8589V20H521.673C521.568 19.7731 521.487 19.4854 521.432 19.1367C521.377 18.7826 521.349 18.4339 521.349 18.0908ZM521.656 14.5298L521.673 15.833H520.287C519.944 15.833 519.642 15.869 519.382 15.9409C519.122 16.0073 518.909 16.1069 518.743 16.2397C518.577 16.367 518.452 16.522 518.369 16.7046C518.286 16.8817 518.245 17.0837 518.245 17.3105C518.245 17.5319 518.294 17.7311 518.394 17.9082C518.499 18.0853 518.649 18.2264 518.842 18.3315C519.042 18.4312 519.274 18.481 519.54 18.481C519.927 18.481 520.264 18.4035 520.552 18.2485C520.84 18.0881 521.064 17.8944 521.225 17.6675C521.385 17.4406 521.471 17.2248 521.482 17.02L522.113 17.9663C522.035 18.1932 521.919 18.4339 521.764 18.6885C521.609 18.943 521.41 19.181 521.167 19.4023C520.923 19.6237 520.63 19.8063 520.287 19.9502C519.944 20.0941 519.545 20.166 519.091 20.166C518.51 20.166 517.99 20.0498 517.531 19.8174C517.071 19.585 516.709 19.2668 516.443 18.8628C516.178 18.4588 516.045 17.9995 516.045 17.4849C516.045 17.009 516.133 16.5884 516.311 16.2231C516.488 15.8579 516.75 15.5508 517.099 15.3018C517.448 15.0472 517.879 14.8563 518.394 14.729C518.914 14.5962 519.509 14.5298 520.179 14.5298H521.656Z" fill="#535C68"/>
<g filter="url(#filter0_d_232_1249)">
<line x1="4" y1="28.75" x2="530" y2="28.75" stroke="#95AFC0" stroke-width="0.5"/>
</g>
<g filter="url(#filter1_d_232_1249)">
<line x1="4" y1="78.75" x2="530" y2="78.75" stroke="#95AFC0" stroke-width="0.5"/>
</g>
<g filter="url(#filter2_d_232_1249)">
<line x1="4" y1="128.75" x2="530" y2="128.75" stroke="#95AFC0" stroke-width="0.5"/>
</g>
<g filter="url(#filter3_d_232_1249)">
<line x1="4" y1="178.75" x2="530" y2="178.75" stroke="#95AFC0" stroke-width="0.5"/>
</g>
<g filter="url(#filter4_d_232_1249)">
<line x1="4" y1="228.75" x2="530" y2="228.75" stroke="#95AFC0" stroke-width="0.5"/>
</g>
<defs>
<filter id="filter0_d_232_1249" x="0" y="28.5" width="534" height="8.5" filterUnits="userSpaceOnUse" color-interpolation-filters="sRGB">
<feFlood flood-opacity="0" result="BackgroundImageFix"/>
<feColorMatrix in="SourceAlpha" type="matrix" values="0 0 0 0 0 0 0 0 0 0 0 0 0 0 0 0 0 0 127 0" result="hardAlpha"/>
<feOffset dy="4"/>
<feGaussianBlur stdDeviation="2"/>
<feComposite in2="hardAlpha" operator="out"/>
<feColorMatrix type="matrix" values="0 0 0 0 0 0 0 0 0 0 0 0 0 0 0 0 0 0 0.25 0"/>
<feBlend mode="normal" in2="BackgroundImageFix" result="effect1_dropShadow_232_1249"/>
<feBlend mode="normal" in="SourceGraphic" in2="effect1_dropShadow_232_1249" result="shape"/>
</filter>
<filter id="filter1_d_232_1249" x="0" y="78.5" width="534" height="8.5" filterUnits="userSpaceOnUse" color-interpolation-filters="sRGB">
<feFlood flood-opacity="0" result="BackgroundImageFix"/>
<feColorMatrix in="SourceAlpha" type="matrix" values="0 0 0 0 0 0 0 0 0 0 0 0 0 0 0 0 0 0 127 0" result="hardAlpha"/>
<feOffset dy="4"/>
<feGaussianBlur stdDeviation="2"/>
<feComposite in2="hardAlpha" operator="out"/>
<feColorMatrix type="matrix" values="0 0 0 0 0 0 0 0 0 0 0 0 0 0 0 0 0 0 0.25 0"/>
<feBlend mode="normal" in2="BackgroundImageFix" result="effect1_dropShadow_232_1249"/>
<feBlend mode="normal" in="SourceGraphic" in2="effect1_dropShadow_232_1249" result="shape"/>
</filter>
<filter id="filter2_d_232_1249" x="0" y="128.5" width="534" height="8.5" filterUnits="userSpaceOnUse" color-interpolation-filters="sRGB">
<feFlood flood-opacity="0" result="BackgroundImageFix"/>
<feColorMatrix in="SourceAlpha" type="matrix" values="0 0 0 0 0 0 0 0 0 0 0 0 0 0 0 0 0 0 127 0" result="hardAlpha"/>
<feOffset dy="4"/>
<feGaussianBlur stdDeviation="2"/>
<feComposite in2="hardAlpha" operator="out"/>
<feColorMatrix type="matrix" values="0 0 0 0 0 0 0 0 0 0 0 0 0 0 0 0 0 0 0.25 0"/>
<feBlend mode="normal" in2="BackgroundImageFix" result="effect1_dropShadow_232_1249"/>
<feBlend mode="normal" in="SourceGraphic" in2="effect1_dropShadow_232_1249" result="shape"/>
</filter>
<filter id="filter3_d_232_1249" x="0" y="178.5" width="534" height="8.5" filterUnits="userSpaceOnUse" color-interpolation-filters="sRGB">
<feFlood flood-opacity="0" result="BackgroundImageFix"/>
<feColorMatrix in="SourceAlpha" type="matrix" values="0 0 0 0 0 0 0 0 0 0 0 0 0 0 0 0 0 0 127 0" result="hardAlpha"/>
<feOffset dy="4"/>
<feGaussianBlur stdDeviation="2"/>
<feComposite in2="hardAlpha" operator="out"/>
<feColorMatrix type="matrix" values="0 0 0 0 0 0 0 0 0 0 0 0 0 0 0 0 0 0 0.25 0"/>
<feBlend mode="normal" in2="BackgroundImageFix" result="effect1_dropShadow_232_1249"/>
<feBlend mode="normal" in="SourceGraphic" in2="effect1_dropShadow_232_1249" result="shape"/>
</filter>
<filter id="filter4_d_232_1249" x="0" y="228.5" width="534" height="8.5" filterUnits="userSpaceOnUse" color-interpolation-filters="sRGB">
<feFlood flood-opacity="0" result="BackgroundImageFix"/>
<feColorMatrix in="SourceAlpha" type="matrix" values="0 0 0 0 0 0 0 0 0 0 0 0 0 0 0 0 0 0 127 0" result="hardAlpha"/>
<feOffset dy="4"/>
<feGaussianBlur stdDeviation="2"/>
<feComposite in2="hardAlpha" operator="out"/>
<feColorMatrix type="matrix" values="0 0 0 0 0 0 0 0 0 0 0 0 0 0 0 0 0 0 0.25 0"/>
<feBlend mode="normal" in2="BackgroundImageFix" result="effect1_dropShadow_232_1249"/>
<feBlend mode="normal" in="SourceGraphic" in2="effect1_dropShadow_232_1249" result="shape"/>
</filter>
</defs>
</svg>
