<svg width="69" height="266" viewBox="0 0 69 266" fill="none" xmlns="http://www.w3.org/2000/svg">
<circle cx="12" cy="121" r="3.5" fill="#8979FF" stroke="white"/>
<path d="M32.0795 119.5H31.0227C30.9602 119.196 30.8509 118.929 30.6946 118.699C30.5412 118.469 30.3537 118.276 30.1321 118.119C29.9134 117.96 29.6705 117.841 29.4034 117.761C29.1364 117.682 28.858 117.642 28.5682 117.642C28.0398 117.642 27.5611 117.776 27.1321 118.043C26.706 118.31 26.3665 118.703 26.1136 119.223C25.8636 119.743 25.7386 120.381 25.7386 121.136C25.7386 121.892 25.8636 122.53 26.1136 123.05C26.3665 123.57 26.706 123.963 27.1321 124.23C27.5611 124.497 28.0398 124.631 28.5682 124.631C28.858 124.631 29.1364 124.591 29.4034 124.511C29.6705 124.432 29.9134 124.314 30.1321 124.158C30.3537 123.999 30.5412 123.804 30.6946 123.574C30.8509 123.341 30.9602 123.074 31.0227 122.773H32.0795C32 123.219 31.8551 123.618 31.6449 123.97C31.4347 124.322 31.1733 124.622 30.8608 124.869C30.5483 125.114 30.1974 125.3 29.8082 125.428C29.4219 125.555 29.0085 125.619 28.5682 125.619C27.8239 125.619 27.1619 125.438 26.5824 125.074C26.0028 124.71 25.5469 124.193 25.2145 123.523C24.8821 122.852 24.7159 122.057 24.7159 121.136C24.7159 120.216 24.8821 119.42 25.2145 118.75C25.5469 118.08 26.0028 117.562 26.5824 117.199C27.1619 116.835 27.8239 116.653 28.5682 116.653C29.0085 116.653 29.4219 116.717 29.8082 116.845C30.1974 116.973 30.5483 117.161 30.8608 117.408C31.1733 117.652 31.4347 117.95 31.6449 118.303C31.8551 118.652 32 119.051 32.0795 119.5ZM34.6566 121.562V125.5H33.6509V116.773H34.6566V119.977H34.7418C34.8952 119.639 35.1254 119.371 35.4322 119.172C35.7418 118.97 36.1538 118.869 36.668 118.869C37.114 118.869 37.5046 118.959 37.8398 119.138C38.1751 119.314 38.435 119.585 38.6197 119.952C38.8072 120.315 38.9009 120.778 38.9009 121.341V125.5H37.8952V121.409C37.8952 120.889 37.7603 120.487 37.4904 120.203C37.2234 119.916 36.8526 119.773 36.3782 119.773C36.0487 119.773 35.7532 119.842 35.4918 119.982C35.2333 120.121 35.0288 120.324 34.8782 120.591C34.7305 120.858 34.6566 121.182 34.6566 121.562ZM40.7408 125.5V118.955H41.7464V125.5H40.7408ZM41.2521 117.864C41.0561 117.864 40.8871 117.797 40.745 117.663C40.6058 117.53 40.5362 117.369 40.5362 117.182C40.5362 116.994 40.6058 116.834 40.745 116.7C40.8871 116.567 41.0561 116.5 41.2521 116.5C41.4482 116.5 41.6158 116.567 41.755 116.7C41.897 116.834 41.968 116.994 41.968 117.182C41.968 117.369 41.897 117.53 41.755 117.663C41.6158 117.797 41.4482 117.864 41.2521 117.864ZM46.9634 127.955V118.955H47.935V119.994H48.0543C48.1282 119.881 48.2305 119.736 48.3612 119.56C48.4947 119.381 48.685 119.222 48.9322 119.082C49.1822 118.94 49.5202 118.869 49.9464 118.869C50.4975 118.869 50.9833 119.007 51.4038 119.283C51.8242 119.558 52.1523 119.949 52.3881 120.455C52.6239 120.96 52.7418 121.557 52.7418 122.244C52.7418 122.938 52.6239 123.538 52.3881 124.047C52.1523 124.553 51.8256 124.945 51.408 125.223C50.9904 125.499 50.5089 125.636 49.9634 125.636C49.543 125.636 49.2063 125.567 48.9535 125.428C48.7006 125.286 48.506 125.125 48.3697 124.946C48.2333 124.764 48.1282 124.614 48.0543 124.494H47.9691V127.955H46.9634ZM47.9521 122.227C47.9521 122.722 48.0245 123.158 48.1694 123.536C48.3143 123.911 48.5259 124.205 48.8043 124.418C49.0827 124.628 49.4237 124.733 49.8271 124.733C50.2475 124.733 50.5984 124.622 50.8796 124.401C51.1637 124.176 51.3768 123.875 51.5188 123.497C51.6637 123.116 51.7362 122.693 51.7362 122.227C51.7362 121.767 51.6651 121.352 51.5231 120.983C51.3839 120.611 51.1722 120.317 50.8881 120.101C50.6069 119.882 50.2532 119.773 49.8271 119.773C49.418 119.773 49.0742 119.876 48.7958 120.084C48.5174 120.288 48.3072 120.575 48.1651 120.945C48.0231 121.311 47.9521 121.739 47.9521 122.227ZM55.2816 121.562V125.5H54.2759V116.773H55.2816V119.977H55.3668C55.5202 119.639 55.7504 119.371 56.0572 119.172C56.3668 118.97 56.7788 118.869 57.293 118.869C57.739 118.869 58.1296 118.959 58.4648 119.138C58.8001 119.314 59.06 119.585 59.2447 119.952C59.4322 120.315 59.5259 120.778 59.5259 121.341V125.5H58.5202V121.409C58.5202 120.889 58.3853 120.487 58.1154 120.203C57.8484 119.916 57.4776 119.773 57.0032 119.773C56.6737 119.773 56.3782 119.842 56.1168 119.982C55.8583 120.121 55.6538 120.324 55.5032 120.591C55.3555 120.858 55.2816 121.182 55.2816 121.562ZM61.3658 125.5V118.955H62.3714V125.5H61.3658ZM61.4169 118.068L62.4567 116.091H63.6328L62.3033 118.068H61.4169Z" fill="black" fill-opacity="0.7"/>
<circle cx="12" cy="145" r="3.5" fill="#FF928A" stroke="white"/>
<path d="M24.5795 141.71V140.773H31.125V141.71H28.3807V149.5H27.3239V141.71H24.5795ZM32.6197 149.5V142.955H33.6254V149.5H32.6197ZM33.131 141.864C32.935 141.864 32.766 141.797 32.6239 141.663C32.4847 141.53 32.4151 141.369 32.4151 141.182C32.4151 140.994 32.4847 140.834 32.6239 140.7C32.766 140.567 32.935 140.5 33.131 140.5C33.3271 140.5 33.4947 140.567 33.6339 140.7C33.7759 140.834 33.8469 140.994 33.8469 141.182C33.8469 141.369 33.7759 141.53 33.6339 141.663C33.4947 141.797 33.3271 141.864 33.131 141.864ZM38.2116 149.636C37.581 149.636 37.0369 149.497 36.5795 149.219C36.125 148.938 35.7741 148.545 35.527 148.043C35.2827 147.537 35.1605 146.949 35.1605 146.278C35.1605 145.608 35.2827 145.017 35.527 144.506C35.7741 143.991 36.1179 143.591 36.5582 143.304C37.0014 143.014 37.5185 142.869 38.1094 142.869C38.4503 142.869 38.7869 142.926 39.1193 143.04C39.4517 143.153 39.7543 143.338 40.027 143.594C40.2997 143.847 40.517 144.182 40.679 144.599C40.8409 145.017 40.9219 145.531 40.9219 146.142V146.568H35.8764V145.699H39.8991C39.8991 145.33 39.8253 145 39.6776 144.71C39.5327 144.42 39.3253 144.192 39.0554 144.024C38.7884 143.857 38.473 143.773 38.1094 143.773C37.7088 143.773 37.3622 143.872 37.0696 144.071C36.7798 144.267 36.5568 144.523 36.4006 144.838C36.2443 145.153 36.1662 145.491 36.1662 145.852V146.432C36.1662 146.926 36.2514 147.345 36.4219 147.689C36.5952 148.03 36.8352 148.29 37.142 148.469C37.4489 148.645 37.8054 148.733 38.2116 148.733C38.4759 148.733 38.7145 148.696 38.9276 148.622C39.1435 148.545 39.3295 148.432 39.4858 148.281C39.642 148.128 39.7628 147.937 39.848 147.71L40.8196 147.983C40.7173 148.312 40.5455 148.602 40.304 148.852C40.0625 149.099 39.7642 149.293 39.4091 149.432C39.054 149.568 38.6548 149.636 38.2116 149.636ZM38.5185 140.602L40.2571 142.153H39.0298L38.0582 141.25L37.0866 142.153H35.8594L37.581 140.602H38.5185ZM35.4844 139.562L36.3026 141.114H35.4332L34.223 139.562H35.4844ZM43.4574 145.562V149.5H42.4517V142.955H43.4233V143.977H43.5085C43.6619 143.645 43.8949 143.378 44.2074 143.176C44.5199 142.972 44.9233 142.869 45.4176 142.869C45.8608 142.869 46.2486 142.96 46.581 143.142C46.9134 143.321 47.1719 143.594 47.3565 143.96C47.5412 144.324 47.6335 144.784 47.6335 145.341V149.5H46.6278V145.409C46.6278 144.895 46.4943 144.494 46.2273 144.207C45.9602 143.918 45.5938 143.773 45.1278 143.773C44.8068 143.773 44.5199 143.842 44.267 143.982C44.017 144.121 43.8196 144.324 43.6747 144.591C43.5298 144.858 43.4574 145.182 43.4574 145.562ZM53.8519 140.773V149.5H52.8462V140.773H53.8519ZM61.0121 142.46H61.9496C61.9496 143.108 61.8075 143.622 61.5234 144.003C61.2422 144.384 60.7479 144.574 60.0405 144.574V143.858C60.3246 143.858 60.5348 143.8 60.6712 143.683C60.8104 143.567 60.9013 143.403 60.9439 143.193C60.9893 142.983 61.0121 142.739 61.0121 142.46ZM58.353 149.636C57.7621 149.636 57.2436 149.496 56.7976 149.214C56.3544 148.933 56.0078 148.54 55.7578 148.034C55.5107 147.528 55.3871 146.937 55.3871 146.261C55.3871 145.58 55.5107 144.984 55.7578 144.476C56.0078 143.967 56.3544 143.572 56.7976 143.291C57.2436 143.01 57.7621 142.869 58.353 142.869C58.9439 142.869 59.4609 143.01 59.9041 143.291C60.3501 143.572 60.6967 143.967 60.9439 144.476C61.1939 144.984 61.3189 145.58 61.3189 146.261C61.3189 146.937 61.1939 147.528 60.9439 148.034C60.6967 148.54 60.3501 148.933 59.9041 149.214C59.4609 149.496 58.9439 149.636 58.353 149.636ZM58.353 148.733C58.8018 148.733 59.1712 148.618 59.4609 148.388C59.7507 148.158 59.9652 147.855 60.1044 147.48C60.2436 147.105 60.3132 146.699 60.3132 146.261C60.3132 145.824 60.2436 145.416 60.1044 145.038C59.9652 144.661 59.7507 144.355 59.4609 144.122C59.1712 143.889 58.8018 143.773 58.353 143.773C57.9041 143.773 57.5348 143.889 57.245 144.122C56.9553 144.355 56.7408 144.661 56.6016 145.038C56.4624 145.416 56.3928 145.824 56.3928 146.261C56.3928 146.699 56.4624 147.105 56.6016 147.48C56.7408 147.855 56.9553 148.158 57.245 148.388C57.5348 148.618 57.9041 148.733 58.353 148.733ZM57.9268 142.068L56.5973 140.091H57.7734L58.8132 142.068H57.9268ZM62.8658 149.5V142.955H63.8714V149.5H62.8658ZM63.3771 141.864C63.1811 141.864 63.0121 141.797 62.87 141.663C62.7308 141.53 62.6612 141.369 62.6612 141.182C62.6612 140.994 62.7308 140.834 62.87 140.7C63.0121 140.567 63.1811 140.5 63.3771 140.5C63.5732 140.5 63.7408 140.567 63.88 140.7C64.022 140.834 64.093 140.994 64.093 141.182C64.093 141.369 64.022 141.53 63.88 141.663C63.7408 141.797 63.5732 141.864 63.3771 141.864Z" fill="black" fill-opacity="0.7"/>
</svg>
