<svg width="30" height="30" viewBox="0 0 30 30" fill="none" xmlns="http://www.w3.org/2000/svg">
<path d="M18.75 26.2501V16.2501C18.75 15.9186 18.6183 15.6006 18.3839 15.3662C18.1495 15.1318 17.8315 15.0001 17.5 15.0001H12.5C12.1685 15.0001 11.8505 15.1318 11.6161 15.3662C11.3817 15.6006 11.25 15.9186 11.25 16.2501V26.2501M3.75 12.5001C3.74991 12.1364 3.82917 11.7771 3.98223 11.4472C4.1353 11.1173 4.3585 10.8248 4.63625 10.5901L13.3862 3.09133C13.8375 2.70997 14.4092 2.50073 15 2.50073C15.5908 2.50073 16.1625 2.70997 16.6138 3.09133L25.3638 10.5901C25.6415 10.8248 25.8647 11.1173 26.0178 11.4472C26.1708 11.7771 26.2501 12.1364 26.25 12.5001V23.7501C26.25 24.4131 25.9866 25.049 25.5178 25.5178C25.0489 25.9867 24.413 26.2501 23.75 26.2501H6.25C5.58696 26.2501 4.95107 25.9867 4.48223 25.5178C4.01339 25.049 3.75 24.4131 3.75 23.7501V12.5001Z" stroke="black" stroke-width="2" stroke-linecap="round" stroke-linejoin="round"/>
</svg>
