<svg width="30" height="30" viewBox="0 0 30 30" fill="none" xmlns="http://www.w3.org/2000/svg">
<path d="M12.5 18.75H7.5C6.17392 18.75 4.90215 19.2768 3.96447 20.2145C3.02678 21.1521 2.5 22.4239 2.5 23.75V26.25M27.125 20.5L26 20.125M19 17.375L17.875 17M20.75 23.375L21.125 22.25M23.875 15.25L24.25 14.125M24.5 23.375L24 22.125M21 15.375L20.5 14.125M17.875 20.75L19.125 20.25M25.875 17.25L27.125 16.75M26.25 18.75C26.25 20.8211 24.5711 22.5 22.5 22.5C20.4289 22.5 18.75 20.8211 18.75 18.75C18.75 16.6789 20.4289 15 22.5 15C24.5711 15 26.25 16.6789 26.25 18.75ZM16.25 8.75C16.25 11.5114 14.0114 13.75 11.25 13.75C8.48858 13.75 6.25 11.5114 6.25 8.75C6.25 5.98858 8.48858 3.75 11.25 3.75C14.0114 3.75 16.25 5.98858 16.25 8.75Z" stroke="black" stroke-width="2" stroke-linecap="round" stroke-linejoin="round"/>
</svg>
