<svg width="25" height="31" viewBox="0 0 25 31" fill="none" xmlns="http://www.w3.org/2000/svg">
<path d="M0.833328 25.7084V22.7917H3.74999V12.5834C3.74999 10.5661 4.35763 8.77959 5.57291 7.22404C6.78819 5.64418 8.36805 4.61119 10.3125 4.12508V3.10425C10.3125 2.49661 10.5191 1.98619 10.9323 1.573C11.3698 1.1355 11.8924 0.916748 12.5 0.916748C13.1076 0.916748 13.6181 1.1355 14.0312 1.573C14.4687 1.98619 14.6875 2.49661 14.6875 3.10425V4.12508C16.6319 4.61119 18.2118 5.64418 19.4271 7.22404C20.6424 8.77959 21.25 10.5661 21.25 12.5834V22.7917H24.1667V25.7084H0.833328ZM12.5 30.0834C11.6979 30.0834 11.0052 29.8039 10.4219 29.2449C9.86284 28.6615 9.58333 27.9688 9.58333 27.1667H15.4167C15.4167 27.9688 15.125 28.6615 14.5417 29.2449C13.9826 29.8039 13.3021 30.0834 12.5 30.0834ZM6.66666 22.7917H18.3333V12.5834C18.3333 10.9792 17.7621 9.60598 16.6198 8.46362C15.4774 7.32126 14.1042 6.75008 12.5 6.75008C10.8958 6.75008 9.52256 7.32126 8.3802 8.46362C7.23784 9.60598 6.66666 10.9792 6.66666 12.5834V22.7917Z" fill="#FEF7FF"/>
</svg>
