<svg width="245" height="266" viewBox="0 0 245 266" fill="none" xmlns="http://www.w3.org/2000/svg">
<path d="M81.7741 142.155C82.0881 134.74 86.5166 127.703 94.1199 122.536C101.723 117.369 111.903 114.479 122.5 114.479C122.5 114.479 122.5 116.228 122.5 117.977C122.5 119.726 122.5 121.475 122.5 121.475C114.502 121.475 106.819 123.656 101.081 127.556C95.3427 131.455 92.0005 136.766 91.7635 142.362L81.7741 142.155Z" fill="#FF928A"/>
<path d="M122.5 94.4795C111.903 94.4795 101.723 97.3695 94.1199 102.536V122.536C101.723 117.369 111.903 114.479 122.5 114.479V94.4795Z" fill="url(#paint0_linear_161_2182)"/>
<path d="M101.081 107.556C106.819 103.656 114.502 101.475 122.5 101.475V121.475C114.502 121.475 106.819 123.656 101.081 127.556V107.556Z" fill="url(#paint1_linear_161_2182)"/>
<path d="M94.1199 102.536C86.5166 107.703 82.0881 114.74 81.7741 122.155V142.155C82.0881 134.74 86.5166 127.703 94.1199 122.536V102.536Z" fill="url(#paint2_linear_161_2182)"/>
<path d="M91.7635 122.362C92.0005 116.766 95.3427 111.455 101.081 107.556V127.556C95.3427 131.455 92.0005 136.766 91.7635 142.362V122.362Z" fill="url(#paint3_linear_161_2182)"/>
<path d="M81.7741 122.155L91.7635 122.362V142.362L81.7741 142.155V122.155Z" fill="url(#paint4_linear_161_2182)"/>
<path d="M81.7741 122.155C82.0881 114.74 86.5166 107.703 94.1199 102.536C101.723 97.3695 111.903 94.4795 122.5 94.4795V101.475C114.502 101.475 106.819 103.656 101.081 107.556C95.3427 111.455 92.0005 116.766 91.7635 122.362L81.7741 122.155Z" fill="#FF928A"/>
<path d="M122.5 110.712C122.5 105.331 122.5 99.95 122.5 99.95C134.741 99.95 146.704 102.507 156.857 107.294C167.01 112.081 174.891 118.88 179.491 126.821C182.483 131.984 183.999 137.476 184 142.992C184.001 145.96 183.563 148.934 182.681 151.867C180.16 160.252 174.121 167.92 165.338 173.889C156.555 179.857 145.427 183.855 133.379 185.371C121.331 186.887 108.91 185.851 97.7079 182.397C86.5055 178.943 77.0305 173.227 70.4959 165.981C63.9612 158.735 60.6643 150.289 61.027 141.724L91.7635 142.362C91.5821 146.645 93.2306 150.868 96.4979 154.49C99.7652 158.113 104.503 160.971 110.104 162.698C115.705 164.426 121.915 164.943 127.939 164.186C133.963 163.428 139.527 161.429 143.919 158.444C148.311 155.46 151.33 151.626 152.591 147.434C153.031 145.97 153.25 144.485 153.25 143.004C153.251 140.243 152.493 137.494 150.996 134.91C148.695 130.94 144.755 127.54 139.678 125.147C134.602 122.754 128.621 121.475 122.5 121.475C122.5 121.475 122.5 116.094 122.5 110.712Z" fill="#8979FF"/>
<path d="M156.857 87.294C146.704 82.5071 134.741 79.95 122.5 79.95V99.95C134.741 99.95 146.704 102.507 156.857 107.294V87.294Z" fill="url(#paint5_linear_161_2182)"/>
<path d="M179.491 106.82C174.891 98.8798 167.01 92.0809 156.857 87.2939V107.294C167.01 112.081 174.891 118.88 179.491 126.82V106.82Z" fill="url(#paint6_linear_161_2182)"/>
<path d="M122.5 101.475C128.621 101.475 134.602 102.753 139.678 105.147V125.147C134.602 122.753 128.621 121.475 122.5 121.475V101.475Z" fill="url(#paint7_linear_161_2182)"/>
<path d="M139.678 105.147C144.755 107.54 148.695 110.94 150.996 114.91V134.91C148.695 130.94 144.755 127.54 139.678 125.147V105.147Z" fill="url(#paint8_linear_161_2182)"/>
<path d="M184 122.992C183.999 117.476 182.483 111.984 179.491 106.821V126.821C182.483 131.984 183.999 137.476 184 142.992V122.992Z" fill="url(#paint9_linear_161_2182)"/>
<path d="M150.996 114.91C152.493 117.494 153.251 120.243 153.25 123.004V142.996C153.249 140.238 152.491 137.492 150.996 134.91V114.91Z" fill="url(#paint10_linear_161_2182)"/>
<path d="M91.7635 122.362L61.027 121.724V141.724L91.7635 142.362V122.362Z" fill="url(#paint11_linear_161_2182)"/>
<path d="M153.25 123.004C153.25 124.485 153.031 125.97 152.591 127.434V147.434C153.031 145.97 153.25 144.485 153.25 143.004V123.004Z" fill="url(#paint12_linear_161_2182)"/>
<path d="M184 122.992C184 122.998 184 123.003 184 123.008V122.992Z" fill="url(#paint13_linear_161_2182)"/>
<path d="M184 122.992C184 122.998 184 123.003 184 123.008V142.992C184.001 145.96 183.563 148.934 182.681 151.867V131.867C183.562 128.939 183.999 125.971 184 123.008V122.992Z" fill="url(#paint14_linear_161_2182)"/>
<path d="M91.7635 123.638C91.7455 123.214 91.7455 122.788 91.7635 122.362V123.638C91.9262 127.479 93.5557 131.228 96.4979 134.49V154.49C93.2306 150.868 91.5821 146.645 91.7635 142.362V123.638Z" fill="url(#paint15_linear_161_2182)"/>
<path d="M152.591 127.434C151.33 131.626 148.311 135.46 143.919 138.444V158.444C148.311 155.46 151.33 151.626 152.591 147.434V127.434Z" fill="url(#paint16_linear_161_2182)"/>
<path d="M61.027 124.276C61.3524 131.958 64.6114 139.456 70.4959 145.981V165.981C63.9612 158.735 60.6643 150.289 61.027 141.724V124.276C60.9911 123.427 60.9909 122.576 61.027 121.724V124.276Z" fill="url(#paint17_linear_161_2182)"/>
<path d="M110.104 142.698C104.503 140.971 99.7652 138.113 96.4979 134.49V154.49C99.7652 158.113 104.503 160.971 110.104 162.698V142.698Z" fill="url(#paint18_linear_161_2182)"/>
<path d="M143.919 138.444C139.527 141.429 133.963 143.428 127.939 144.186V164.186C133.963 163.428 139.527 161.429 143.919 158.444V138.444Z" fill="url(#paint19_linear_161_2182)"/>
<path d="M165.338 153.889C174.121 147.92 180.16 140.253 182.681 131.867V151.867C180.16 160.253 174.121 167.92 165.338 173.889V153.889Z" fill="url(#paint20_linear_161_2182)"/>
<path d="M127.939 144.186C121.915 144.943 115.705 144.426 110.104 142.698V162.698C115.705 164.426 121.915 164.943 127.939 164.186V144.186Z" fill="url(#paint21_linear_161_2182)"/>
<path d="M70.4958 145.981C77.0305 153.227 86.5055 158.943 97.7079 162.397V182.397C86.5055 178.943 77.0305 173.227 70.4958 165.981V145.981Z" fill="url(#paint22_linear_161_2182)"/>
<path d="M133.379 165.371C145.427 163.855 156.555 159.857 165.338 153.889V173.889C156.555 179.857 145.427 183.855 133.379 185.371V165.371Z" fill="url(#paint23_linear_161_2182)"/>
<path d="M97.7079 162.397C108.91 165.851 121.331 166.887 133.379 165.371V185.371C121.331 186.887 108.91 185.851 97.7079 182.397V162.397Z" fill="url(#paint24_linear_161_2182)"/>
<path d="M122.5 79.95C134.741 79.95 146.704 82.5071 156.857 87.294C167.01 92.081 174.891 98.8799 179.491 106.821C184.092 114.761 185.203 123.482 182.681 131.867C180.16 140.252 174.121 147.92 165.338 153.889C156.555 159.857 145.427 163.855 133.379 165.371C121.331 166.887 108.91 165.851 97.7079 162.397C86.5054 158.943 77.0305 153.227 70.4958 145.981C63.9612 138.735 60.6643 130.289 61.027 121.724L91.7635 122.362C91.5821 126.645 93.2306 130.868 96.4979 134.49C99.7652 138.113 104.503 140.971 110.104 142.698C115.705 144.426 121.915 144.943 127.939 144.186C133.963 143.428 139.527 141.429 143.919 138.444C148.311 135.46 151.33 131.626 152.591 127.434C153.851 123.241 153.296 118.881 150.996 114.91C148.695 110.94 144.755 107.54 139.678 105.147C134.602 102.754 128.621 101.475 122.5 101.475L122.5 79.95Z" fill="#8979FF"/>
<path d="M200.618 159.274V158.017L204.321 152.166H205.369V153.956H204.73L202.237 157.906V157.974H207.406V159.274H200.618ZM204.781 160.893V158.89L204.798 158.328V152.166H206.29V160.893H204.781ZM211.994 161.06C211.292 161.06 210.69 160.882 210.187 160.527C209.687 160.169 209.302 159.653 209.032 158.98C208.765 158.304 208.631 157.49 208.631 156.538C208.634 155.586 208.769 154.777 209.036 154.109C209.306 153.439 209.691 152.927 210.191 152.575C210.694 152.223 211.295 152.047 211.994 152.047C212.692 152.047 213.293 152.223 213.796 152.575C214.299 152.927 214.684 153.439 214.951 154.109C215.221 154.78 215.356 155.589 215.356 156.538C215.356 157.493 215.221 158.308 214.951 158.984C214.684 159.658 214.299 160.172 213.796 160.527C213.296 160.882 212.695 161.06 211.994 161.06ZM211.994 159.726C212.539 159.726 212.969 159.457 213.285 158.92C213.603 158.381 213.762 157.586 213.762 156.538C213.762 155.845 213.69 155.263 213.545 154.791C213.4 154.319 213.195 153.964 212.931 153.726C212.667 153.484 212.354 153.363 211.994 153.363C211.451 153.363 211.022 153.633 210.707 154.173C210.391 154.71 210.232 155.498 210.229 156.538C210.227 157.234 210.296 157.819 210.438 158.294C210.583 158.768 210.788 159.126 211.052 159.368C211.316 159.606 211.63 159.726 211.994 159.726ZM219.998 161.06C219.296 161.06 218.694 160.882 218.191 160.527C217.691 160.169 217.306 159.653 217.036 158.98C216.769 158.304 216.635 157.49 216.635 156.538C216.638 155.586 216.773 154.777 217.04 154.109C217.31 153.439 217.695 152.927 218.195 152.575C218.698 152.223 219.299 152.047 219.998 152.047C220.696 152.047 221.297 152.223 221.8 152.575C222.303 152.927 222.688 153.439 222.955 154.109C223.225 154.78 223.36 155.589 223.36 156.538C223.36 157.493 223.225 158.308 222.955 158.984C222.688 159.658 222.303 160.172 221.8 160.527C221.3 160.882 220.699 161.06 219.998 161.06ZM219.998 159.726C220.543 159.726 220.973 159.457 221.289 158.92C221.607 158.381 221.766 157.586 221.766 156.538C221.766 155.845 221.694 155.263 221.549 154.791C221.404 154.319 221.199 153.964 220.935 153.726C220.671 153.484 220.358 153.363 219.998 153.363C219.455 153.363 219.026 153.633 218.711 154.173C218.395 154.71 218.236 155.498 218.233 156.538C218.23 157.234 218.3 157.819 218.442 158.294C218.587 158.768 218.792 159.126 219.056 159.368C219.32 159.606 219.634 159.726 219.998 159.726ZM228.001 161.06C227.3 161.06 226.697 160.882 226.195 160.527C225.695 160.169 225.31 159.653 225.04 158.98C224.773 158.304 224.639 157.49 224.639 156.538C224.642 155.586 224.777 154.777 225.044 154.109C225.314 153.439 225.699 152.927 226.199 152.575C226.702 152.223 227.303 152.047 228.001 152.047C228.7 152.047 229.301 152.223 229.804 152.575C230.307 152.927 230.692 153.439 230.959 154.109C231.229 154.78 231.364 155.589 231.364 156.538C231.364 157.493 231.229 158.308 230.959 158.984C230.692 159.658 230.307 160.172 229.804 160.527C229.304 160.882 228.703 161.06 228.001 161.06ZM228.001 159.726C228.547 159.726 228.977 159.457 229.293 158.92C229.611 158.381 229.77 157.586 229.77 156.538C229.77 155.845 229.697 155.263 229.553 154.791C229.408 154.319 229.203 153.964 228.939 153.726C228.675 153.484 228.362 153.363 228.001 153.363C227.459 153.363 227.03 153.633 226.714 154.173C226.399 154.71 226.24 155.498 226.237 156.538C226.234 157.234 226.304 157.819 226.446 158.294C226.591 158.768 226.795 159.126 227.06 159.368C227.324 159.606 227.638 159.726 228.001 159.726Z" fill="#8979FF"/>
<path d="M164.481 153.271L168.811 156.393H196" stroke="#8979FF"/>
<path d="M16.3253 85.3797V94.1069H14.7443V86.918H14.6932L12.652 88.222V86.7731L14.821 85.3797H16.3253ZM21.6733 94.2263C21.0597 94.2263 20.5142 94.1211 20.0369 93.9109C19.5625 93.7007 19.1875 93.4081 18.9119 93.0331C18.6364 92.6581 18.4901 92.2248 18.473 91.7334H20.0753C20.0895 91.9691 20.1676 92.1751 20.3097 92.3513C20.4517 92.5245 20.6406 92.6595 20.8764 92.7561C21.1122 92.8527 21.3764 92.901 21.669 92.901C21.9815 92.901 22.2585 92.847 22.5 92.739C22.7415 92.6282 22.9304 92.4748 23.0668 92.2788C23.2031 92.0828 23.2699 91.8569 23.267 91.6013C23.2699 91.337 23.2017 91.1041 23.0625 90.9024C22.9233 90.7007 22.7216 90.543 22.4574 90.4294C22.196 90.3157 21.8807 90.2589 21.5114 90.2589H20.7401V89.0402H21.5114C21.8153 89.0402 22.081 88.9876 22.3082 88.8825C22.5384 88.7774 22.7188 88.6297 22.8494 88.4393C22.9801 88.2461 23.044 88.0231 23.0412 87.7703C23.044 87.5231 22.9886 87.3086 22.875 87.1268C22.7642 86.9422 22.6065 86.7987 22.402 86.6964C22.2003 86.5941 21.9631 86.543 21.6903 86.543C21.4233 86.543 21.1761 86.5913 20.9489 86.6879C20.7216 86.7845 20.5384 86.9223 20.3991 87.1013C20.2599 87.2774 20.1861 87.4876 20.1776 87.7319H18.6562C18.6676 87.2433 18.8082 86.8143 19.0781 86.445C19.3509 86.0728 19.7145 85.7831 20.169 85.5757C20.6236 85.3655 21.1335 85.2603 21.6989 85.2603C22.2813 85.2603 22.7869 85.3697 23.2159 85.5885C23.6477 85.8044 23.9815 86.0956 24.2173 86.462C24.4531 86.8285 24.571 87.2334 24.571 87.6765C24.5739 88.168 24.429 88.5799 24.1364 88.9123C23.8466 89.2447 23.4659 89.462 22.9943 89.5643V89.6325C23.608 89.7177 24.0781 89.945 24.4048 90.3143C24.7344 90.6808 24.8977 91.1368 24.8949 91.6822C24.8949 92.1709 24.7557 92.6084 24.4773 92.9947C24.2017 93.3782 23.821 93.6794 23.3352 93.8981C22.8523 94.1169 22.2983 94.2263 21.6733 94.2263ZM29.5835 94.2731C28.8817 94.2731 28.2795 94.0956 27.7766 93.7405C27.2766 93.3825 26.8917 92.8669 26.6218 92.1936C26.3548 91.5174 26.2212 90.7035 26.2212 89.7518C26.2241 88.8001 26.359 87.9905 26.6261 87.3228C26.896 86.6524 27.2809 86.141 27.7809 85.7888C28.2837 85.4365 28.8846 85.2603 29.5835 85.2603C30.2823 85.2603 30.8832 85.4365 31.386 85.7888C31.8888 86.141 32.2738 86.6524 32.5408 87.3228C32.8107 87.9933 32.9457 88.803 32.9457 89.7518C32.9457 90.7064 32.8107 91.5217 32.5408 92.1978C32.2738 92.8711 31.8888 93.3853 31.386 93.7405C30.886 94.0956 30.2852 94.2731 29.5835 94.2731ZM29.5835 92.9393C30.1289 92.9393 30.5593 92.6709 30.8746 92.1339C31.1928 91.5941 31.3519 90.8001 31.3519 89.7518C31.3519 89.0586 31.2795 88.4763 31.1346 88.0047C30.9897 87.5331 30.7852 87.178 30.521 86.9393C30.2567 86.6978 29.9442 86.5771 29.5835 86.5771C29.0408 86.5771 28.6119 86.847 28.2965 87.3868C27.9812 87.9237 27.8221 88.712 27.8192 89.7518C27.8164 90.4478 27.886 91.0331 28.0281 91.5075C28.1729 91.9819 28.3775 92.3399 28.6417 92.5814C28.9059 92.82 29.2198 92.9393 29.5835 92.9393ZM37.5874 94.2731C36.8857 94.2731 36.2834 94.0956 35.7805 93.7405C35.2805 93.3825 34.8956 92.8669 34.6257 92.1936C34.3587 91.5174 34.2251 90.7035 34.2251 89.7518C34.228 88.8001 34.3629 87.9905 34.63 87.3228C34.8999 86.6524 35.2848 86.141 35.7848 85.7888C36.2876 85.4365 36.8885 85.2603 37.5874 85.2603C38.2862 85.2603 38.8871 85.4365 39.3899 85.7888C39.8928 86.141 40.2777 86.6524 40.5447 87.3228C40.8146 87.9933 40.9496 88.803 40.9496 89.7518C40.9496 90.7064 40.8146 91.5217 40.5447 92.1978C40.2777 92.8711 39.8928 93.3853 39.3899 93.7405C38.8899 94.0956 38.2891 94.2731 37.5874 94.2731ZM37.5874 92.9393C38.1328 92.9393 38.5632 92.6709 38.8786 92.1339C39.1967 91.5941 39.3558 90.8001 39.3558 89.7518C39.3558 89.0586 39.2834 88.4763 39.1385 88.0047C38.9936 87.5331 38.7891 87.178 38.5249 86.9393C38.2607 86.6978 37.9482 86.5771 37.5874 86.5771C37.0447 86.5771 36.6158 86.847 36.3004 87.3868C35.9851 87.9237 35.826 88.712 35.8232 89.7518C35.8203 90.4478 35.8899 91.0331 36.032 91.5075C36.1768 91.9819 36.3814 92.3399 36.6456 92.5814C36.9098 92.82 37.2237 92.9393 37.5874 92.9393Z" fill="#FF928A"/>
<path d="M94.6875 102.946L76.1888 89.6069H46" stroke="#FF928A"/>
<path d="M19.736 26V12.152H14.144V9.08H29.048V12.152H23.456V26H19.736ZM34.3216 26.264C33.0576 26.264 31.9536 26.016 31.0096 25.52C30.0816 25.024 29.3616 24.312 28.8496 23.384C28.3376 22.456 28.0816 21.36 28.0816 20.096C28.0816 18.832 28.3376 17.744 28.8496 16.832C29.3616 15.92 30.0816 15.216 31.0096 14.72C31.9536 14.224 33.0576 13.976 34.3216 13.976C35.5856 13.976 36.6816 14.224 37.6096 14.72C38.5536 15.216 39.2816 15.928 39.7936 16.856C40.3216 17.768 40.5856 18.848 40.5856 20.096C40.5856 21.36 40.3216 22.456 39.7936 23.384C39.2816 24.312 38.5536 25.024 37.6096 25.52C36.6816 26.016 35.5856 26.264 34.3216 26.264ZM34.3216 23.552C35.1056 23.552 35.7376 23.272 36.2176 22.712C36.6976 22.136 36.9376 21.264 36.9376 20.096C36.9376 18.928 36.6976 18.072 36.2176 17.528C35.7376 16.968 35.1056 16.688 34.3216 16.688C33.5536 16.688 32.9296 16.968 32.4496 17.528C31.9696 18.072 31.7296 18.928 31.7296 20.096C31.7296 21.264 31.9696 22.136 32.4496 22.712C32.9296 23.272 33.5536 23.552 34.3216 23.552ZM30.1216 12.752L32.7856 8.792H35.8576L38.5216 12.752H36.2656L34.3216 10.664L32.3776 12.752H30.1216ZM37.1296 10.16C37.1296 9.904 37.1776 9.688 37.2736 9.512C37.3856 9.32 37.5136 9.168 37.6576 9.056C37.8016 8.928 37.9216 8.8 38.0176 8.672C38.1296 8.544 38.1856 8.408 38.1856 8.264C38.1856 8.136 38.1136 8.048 37.9696 8C37.8416 7.936 37.6736 7.904 37.4656 7.904C37.2416 7.904 37.0176 7.928 36.7936 7.976C36.5696 8.008 36.3456 8.072 36.1216 8.168L35.6896 6.92C36.0256 6.76 36.3856 6.648 36.7696 6.584C37.1536 6.504 37.6336 6.464 38.2096 6.464C38.9456 6.464 39.5136 6.576 39.9136 6.8C40.3136 7.008 40.5136 7.304 40.5136 7.688C40.5136 7.976 40.4416 8.216 40.2976 8.408C40.1536 8.6 39.9776 8.784 39.7696 8.96C39.5776 9.12 39.4016 9.296 39.2416 9.488C39.0976 9.664 39.0256 9.888 39.0256 10.16H37.1296ZM42.7904 26V14.216H46.3424V16.424H46.0784C46.4464 15.64 46.9904 15.04 47.7104 14.624C48.4464 14.192 49.2784 13.976 50.2064 13.976C51.1504 13.976 51.9264 14.16 52.5344 14.528C53.1424 14.88 53.5984 15.424 53.9024 16.16C54.2064 16.88 54.3584 17.8 54.3584 18.92V26H50.7344V19.088C50.7344 18.544 50.6624 18.104 50.5184 17.768C50.3904 17.416 50.1904 17.168 49.9184 17.024C49.6624 16.864 49.3344 16.784 48.9344 16.784C48.4224 16.784 47.9744 16.896 47.5904 17.12C47.2224 17.328 46.9344 17.632 46.7264 18.032C46.5184 18.432 46.4144 18.896 46.4144 19.424V26H42.7904ZM62.7279 30.584C61.6079 30.584 60.5519 30.464 59.5599 30.224C58.5679 29.984 57.7039 29.608 56.9679 29.096L57.9519 26.624C58.3839 26.88 58.8479 27.104 59.3439 27.296C59.8559 27.488 60.3759 27.632 60.9039 27.728C61.4319 27.824 61.9359 27.872 62.4159 27.872C63.4399 27.872 64.2079 27.64 64.7199 27.176C65.2319 26.712 65.4879 26 65.4879 25.04V23.216H65.7039C65.4639 23.952 64.9679 24.552 64.2159 25.016C63.4639 25.48 62.6319 25.712 61.7199 25.712C60.6639 25.712 59.7439 25.472 58.9599 24.992C58.1759 24.496 57.5679 23.808 57.1359 22.928C56.7039 22.032 56.4879 21 56.4879 19.832C56.4879 18.648 56.7039 17.624 57.1359 16.76C57.5679 15.88 58.1759 15.2 58.9599 14.72C59.7439 14.224 60.6639 13.976 61.7199 13.976C62.6639 13.976 63.4959 14.208 64.2159 14.672C64.9519 15.12 65.4399 15.712 65.6799 16.448H65.4879V14.216H69.0159V24.632C69.0159 25.944 68.7759 27.04 68.2959 27.92C67.8159 28.816 67.1039 29.48 66.1599 29.912C65.2319 30.36 64.0879 30.584 62.7279 30.584ZM62.7999 23C63.5999 23 64.2399 22.72 64.7199 22.16C65.2159 21.6 65.4639 20.824 65.4639 19.832C65.4639 18.84 65.2159 18.072 64.7199 17.528C64.2399 16.968 63.5999 16.688 62.7999 16.688C61.9839 16.688 61.3359 16.968 60.8559 17.528C60.3759 18.072 60.1359 18.84 60.1359 19.832C60.1359 20.824 60.3759 21.6 60.8559 22.16C61.3359 22.72 61.9839 23 62.7999 23ZM84.2452 26.264C82.9652 26.264 81.8452 26.016 80.8852 25.52C79.9412 25.008 79.2132 24.288 78.7012 23.36C78.1892 22.432 77.9332 21.336 77.9332 20.072C77.9332 18.808 78.1892 17.72 78.7012 16.808C79.2132 15.896 79.9412 15.2 80.8852 14.72C81.8452 14.224 82.9652 13.976 84.2452 13.976C85.0132 13.976 85.7732 14.088 86.5252 14.312C87.2932 14.536 87.9172 14.856 88.3972 15.272L87.3892 17.768C87.0052 17.448 86.5572 17.2 86.0452 17.024C85.5332 16.832 85.0532 16.736 84.6052 16.736C83.6612 16.736 82.9252 17.032 82.3972 17.624C81.8852 18.2 81.6292 19.024 81.6292 20.096C81.6292 21.152 81.8852 21.984 82.3972 22.592C82.9252 23.184 83.6612 23.48 84.6052 23.48C85.0532 23.48 85.5332 23.392 86.0452 23.216C86.5572 23.04 87.0052 22.784 87.3892 22.448L88.3972 24.944C87.9172 25.344 87.2932 25.664 86.5252 25.904C85.7572 26.144 84.9972 26.264 84.2452 26.264ZM89.9701 26V9.08H93.5941V16.424H93.2581C93.6261 15.64 94.1701 15.04 94.8901 14.624C95.6261 14.192 96.4581 13.976 97.3861 13.976C98.3301 13.976 99.1061 14.16 99.7141 14.528C100.322 14.88 100.778 15.424 101.082 16.16C101.386 16.88 101.538 17.8 101.538 18.92V26H97.9141V19.088C97.9141 18.544 97.8421 18.104 97.6981 17.768C97.5701 17.416 97.3701 17.168 97.0981 17.024C96.8421 16.864 96.5141 16.784 96.1141 16.784C95.6021 16.784 95.1541 16.896 94.7701 17.12C94.4021 17.328 94.1141 17.632 93.9061 18.032C93.6981 18.432 93.5941 18.896 93.5941 19.424V26H89.9701ZM104.1 11.936V8.552H108.012V11.936H104.1ZM104.244 26V14.216H107.868V26H104.244ZM117.345 30.32V14.216H120.897V16.544H120.657C120.897 15.776 121.377 15.16 122.097 14.696C122.833 14.216 123.673 13.976 124.617 13.976C125.641 13.976 126.537 14.224 127.305 14.72C128.089 15.216 128.697 15.92 129.129 16.832C129.561 17.744 129.777 18.832 129.777 20.096C129.777 21.36 129.561 22.456 129.129 23.384C128.697 24.312 128.097 25.024 127.329 25.52C126.561 26.016 125.657 26.264 124.617 26.264C123.689 26.264 122.865 26.04 122.145 25.592C121.425 25.128 120.937 24.528 120.681 23.792H120.969V30.32H117.345ZM123.537 23.552C124.305 23.552 124.929 23.272 125.409 22.712C125.889 22.136 126.129 21.264 126.129 20.096C126.129 18.928 125.889 18.072 125.409 17.528C124.929 16.968 124.305 16.688 123.537 16.688C122.753 16.688 122.121 16.968 121.641 17.528C121.161 18.072 120.921 18.928 120.921 20.096C120.921 21.264 121.161 22.136 121.641 22.712C122.121 23.272 122.753 23.552 123.537 23.552ZM131.994 26V9.08H135.618V16.424H135.282C135.65 15.64 136.194 15.04 136.914 14.624C137.65 14.192 138.482 13.976 139.41 13.976C140.354 13.976 141.13 14.16 141.738 14.528C142.346 14.88 142.802 15.424 143.106 16.16C143.41 16.88 143.562 17.8 143.562 18.92V26H139.938V19.088C139.938 18.544 139.866 18.104 139.722 17.768C139.594 17.416 139.394 17.168 139.122 17.024C138.866 16.864 138.538 16.784 138.138 16.784C137.626 16.784 137.178 16.896 136.794 17.12C136.426 17.328 136.138 17.632 135.93 18.032C135.722 18.432 135.618 18.896 135.618 19.424V26H131.994ZM146.267 26V14.216H149.891V26H146.267ZM146.891 12.68L149.363 7.76H152.819L149.291 12.68H146.891Z" fill="black"/>
<defs>
<linearGradient id="paint0_linear_161_2182" x1="122.5" y1="108.508" x2="94.1199" y2="108.508" gradientUnits="userSpaceOnUse">
<stop stop-color="#FF746A"/>
<stop offset="0.5" stop-color="#FF9793"/>
<stop offset="1" stop-color="#FFC2C2"/>
</linearGradient>
<linearGradient id="paint1_linear_161_2182" x1="122.5" y1="114.515" x2="101.081" y2="114.515" gradientUnits="userSpaceOnUse">
<stop stop-color="#FF746A"/>
<stop offset="0.5" stop-color="#FF9793"/>
<stop offset="1" stop-color="#FFC2C2"/>
</linearGradient>
<linearGradient id="paint2_linear_161_2182" x1="94.1199" y1="122.346" x2="81.7741" y2="122.346" gradientUnits="userSpaceOnUse">
<stop stop-color="#FFC2C2"/>
<stop offset="0.5" stop-color="#FFBDBC"/>
<stop offset="1" stop-color="#FF7971"/>
</linearGradient>
<linearGradient id="paint3_linear_161_2182" x1="101.081" y1="124.959" x2="91.7635" y2="124.959" gradientUnits="userSpaceOnUse">
<stop stop-color="#FFC2C2"/>
<stop offset="0.5" stop-color="#FFBDBC"/>
<stop offset="1" stop-color="#FF7971"/>
</linearGradient>
<linearGradient id="paint4_linear_161_2182" x1="91.7635" y1="132.259" x2="81.7741" y2="132.259" gradientUnits="userSpaceOnUse">
<stop stop-color="#FF7167"/>
<stop offset="1" stop-color="#FF7167"/>
</linearGradient>
<linearGradient id="paint5_linear_161_2182" x1="156.857" y1="93.622" x2="122.5" y2="93.622" gradientUnits="userSpaceOnUse">
<stop stop-color="#3E1AFF"/>
<stop offset="0.5" stop-color="#563CFF"/>
<stop offset="1" stop-color="#6D5AFF"/>
</linearGradient>
<linearGradient id="paint6_linear_161_2182" x1="179.491" y1="107.057" x2="156.857" y2="107.057" gradientUnits="userSpaceOnUse">
<stop stop-color="#360EFF"/>
<stop offset="0.5" stop-color="#2D00F1"/>
<stop offset="1" stop-color="#3E1AFF"/>
</linearGradient>
<linearGradient id="paint7_linear_161_2182" x1="139.678" y1="113.311" x2="122.5" y2="113.311" gradientUnits="userSpaceOnUse">
<stop stop-color="#3E1AFF"/>
<stop offset="0.5" stop-color="#563CFF"/>
<stop offset="1" stop-color="#6D5AFF"/>
</linearGradient>
<linearGradient id="paint8_linear_161_2182" x1="150.996" y1="120.029" x2="139.678" y2="120.029" gradientUnits="userSpaceOnUse">
<stop stop-color="#360EFF"/>
<stop offset="0.5" stop-color="#2D00F1"/>
<stop offset="1" stop-color="#3E1AFF"/>
</linearGradient>
<linearGradient id="paint9_linear_161_2182" x1="184" y1="124.906" x2="179.491" y2="124.906" gradientUnits="userSpaceOnUse">
<stop stop-color="#6D5AFF"/>
<stop offset="0.5" stop-color="#5033FF"/>
<stop offset="1" stop-color="#360EFF"/>
</linearGradient>
<linearGradient id="paint10_linear_161_2182" x1="153.25" y1="128.957" x2="150.996" y2="128.957" gradientUnits="userSpaceOnUse">
<stop stop-color="#6E5AFF"/>
<stop offset="0.5" stop-color="#5033FF"/>
<stop offset="1" stop-color="#360EFF"/>
</linearGradient>
<linearGradient id="paint11_linear_161_2182" x1="91.7635" y1="132.043" x2="61.027" y2="132.043" gradientUnits="userSpaceOnUse">
<stop stop-color="#6B57FF"/>
<stop offset="1" stop-color="#6B57FF"/>
</linearGradient>
<linearGradient id="paint12_linear_161_2182" x1="153.25" y1="135.219" x2="152.591" y2="135.219" gradientUnits="userSpaceOnUse">
<stop stop-color="#6E5AFF"/>
<stop offset="0.5" stop-color="#8270FF"/>
<stop offset="1" stop-color="#9785FF"/>
</linearGradient>
<linearGradient id="paint13_linear_161_2182" x1="184" y1="137.43" x2="182.681" y2="137.43" gradientUnits="userSpaceOnUse">
<stop stop-color="#6D5AFF"/>
<stop offset="0.5" stop-color="#8270FF"/>
<stop offset="1" stop-color="#9785FF"/>
</linearGradient>
<linearGradient id="paint14_linear_161_2182" x1="184" y1="137.43" x2="182.681" y2="137.43" gradientUnits="userSpaceOnUse">
<stop stop-color="#6D5AFF"/>
<stop offset="0.5" stop-color="#8270FF"/>
<stop offset="1" stop-color="#9785FF"/>
</linearGradient>
<linearGradient id="paint15_linear_161_2182" x1="96.4979" y1="138.426" x2="91.75" y2="138.426" gradientUnits="userSpaceOnUse">
<stop stop-color="#2C00EE"/>
<stop offset="0.5" stop-color="#4524FF"/>
<stop offset="1" stop-color="#7460FF"/>
</linearGradient>
<linearGradient id="paint16_linear_161_2182" x1="152.591" y1="142.939" x2="143.919" y2="142.939" gradientUnits="userSpaceOnUse">
<stop stop-color="#9785FF"/>
<stop offset="0.5" stop-color="#C8BCFF"/>
<stop offset="1" stop-color="#BFB1FF"/>
</linearGradient>
<linearGradient id="paint17_linear_161_2182" x1="70.4959" y1="143.853" x2="61" y2="143.853" gradientUnits="userSpaceOnUse">
<stop stop-color="#2C00EE"/>
<stop offset="0.5" stop-color="#4524FF"/>
<stop offset="1" stop-color="#7460FF"/>
</linearGradient>
<linearGradient id="paint18_linear_161_2182" x1="110.104" y1="148.594" x2="96.4979" y2="148.594" gradientUnits="userSpaceOnUse">
<stop stop-color="#4D2FFF"/>
<stop offset="0.5" stop-color="#340BFF"/>
<stop offset="1" stop-color="#2C00EE"/>
</linearGradient>
<linearGradient id="paint19_linear_161_2182" x1="143.919" y1="151.315" x2="127.939" y2="151.315" gradientUnits="userSpaceOnUse">
<stop stop-color="#BFB1FF"/>
<stop offset="0.5" stop-color="#9E8DFF"/>
<stop offset="1" stop-color="#7F6DFF"/>
</linearGradient>
<linearGradient id="paint20_linear_161_2182" x1="182.681" y1="152.878" x2="165.338" y2="152.878" gradientUnits="userSpaceOnUse">
<stop stop-color="#9785FF"/>
<stop offset="0.5" stop-color="#C8BCFF"/>
<stop offset="1" stop-color="#BFB1FF"/>
</linearGradient>
<linearGradient id="paint21_linear_161_2182" x1="127.939" y1="153.612" x2="110.104" y2="153.612" gradientUnits="userSpaceOnUse">
<stop stop-color="#7F6DFF"/>
<stop offset="0.5" stop-color="#644EFF"/>
<stop offset="1" stop-color="#4D2FFF"/>
</linearGradient>
<linearGradient id="paint22_linear_161_2182" x1="97.7079" y1="164.189" x2="70.4958" y2="164.189" gradientUnits="userSpaceOnUse">
<stop stop-color="#4D2FFF"/>
<stop offset="0.5" stop-color="#340BFF"/>
<stop offset="1" stop-color="#2C00EE"/>
</linearGradient>
<linearGradient id="paint23_linear_161_2182" x1="165.338" y1="169.63" x2="133.379" y2="169.63" gradientUnits="userSpaceOnUse">
<stop stop-color="#BFB1FF"/>
<stop offset="0.5" stop-color="#9E8DFF"/>
<stop offset="1" stop-color="#7F6DFF"/>
</linearGradient>
<linearGradient id="paint24_linear_161_2182" x1="133.379" y1="174.223" x2="97.7079" y2="174.223" gradientUnits="userSpaceOnUse">
<stop stop-color="#7F6DFF"/>
<stop offset="0.5" stop-color="#644EFF"/>
<stop offset="1" stop-color="#4D2FFF"/>
</linearGradient>
</defs>
</svg>
