<svg width="31" height="31" viewBox="0 0 31 31" fill="none" xmlns="http://www.w3.org/2000/svg">
<path d="M28.625 14.7709C28.63 16.6957 28.1803 18.5945 27.3125 20.3125C26.2835 22.3713 24.7017 24.103 22.7442 25.3136C20.7867 26.5241 18.5308 27.1658 16.2292 27.1667C14.3044 27.1717 12.4056 26.722 10.6875 25.8542L2.375 28.625L5.14583 20.3125C4.27802 18.5945 3.82831 16.6957 3.83333 14.7709C3.83422 12.4693 4.47589 10.2134 5.68647 8.25584C6.89704 6.29832 8.6287 4.71649 10.6875 3.68754C12.4056 2.81973 14.3044 2.37002 16.2292 2.37504H16.9583C19.998 2.54274 22.869 3.82574 25.0217 5.97838C27.1743 8.13102 28.4573 11.002 28.625 14.0417V14.7709Z" stroke="#F5F5F5" stroke-width="4" stroke-linecap="round" stroke-linejoin="round"/>
</svg>
