<svg width="26" height="27" viewBox="0 0 26 27" fill="none" xmlns="http://www.w3.org/2000/svg">
<path d="M16.75 25.2501V15.2501C16.75 14.9186 16.6183 14.6006 16.3839 14.3662C16.1495 14.1318 15.8315 14.0001 15.5 14.0001H10.5C10.1685 14.0001 9.85054 14.1318 9.61612 14.3662C9.3817 14.6006 9.25 14.9186 9.25 15.2501V25.2501M1.75 11.5001C1.74991 11.1364 1.82917 10.7771 1.98223 10.4472C2.1353 10.1173 2.3585 9.82483 2.63625 9.59008L11.3862 2.09133C11.8375 1.70997 12.4092 1.50073 13 1.50073C13.5908 1.50073 14.1625 1.70997 14.6138 2.09133L23.3638 9.59008C23.6415 9.82483 23.8647 10.1173 24.0178 10.4472C24.1708 10.7771 24.2501 11.1364 24.25 11.5001V22.7501C24.25 23.4131 23.9866 24.049 23.5178 24.5178C23.0489 24.9867 22.413 25.2501 21.75 25.2501H4.25C3.58696 25.2501 2.95107 24.9867 2.48223 24.5178C2.01339 24.049 1.75 23.4131 1.75 22.7501V11.5001Z" stroke="white" stroke-width="2" stroke-linecap="round" stroke-linejoin="round"/>
</svg>
